<svg id="Capa_1" enable-background="new 0 0 512 512" height="512" viewBox="0 0 512 512" width="512" xmlns="http://www.w3.org/2000/svg"><g><g><path d="m408.24 0h-304.48c-18 0-32.644 14.652-32.644 32.662v19.351 38.889 235.418c0 5.523 4.477 10 10 10s10-4.477 10-10v-203.253c4.783 2.37 10.164 3.709 15.853 3.709h36.012c10.151 0 19.323-4.25 25.853-11.057 6.529 6.807 15.701 11.057 25.853 11.057h210.345c5.689 0 11.069-1.339 15.853-3.708v356.271c0 6.982-5.672 12.662-12.644 12.662h-304.481c-6.972 0-12.644-5.68-12.644-12.662v-64.429c0-5.523-4.477-10-10-10s-10 4.477-10 10v64.429c0 18.01 14.644 32.662 32.644 32.662h304.48c18 0 32.644-14.652 32.644-32.662v-388.437-38.889-19.351c0-18.01-14.644-32.662-32.644-32.662zm-304.48 20h304.48c6.972 0 12.644 5.68 12.644 12.662v9.351h-329.768v-9.351c0-6.982 5.672-12.662 12.644-12.662zm39.221 86.775h-36.012c-8.741 0-15.853-7.121-15.853-15.873v-28.889h67.718v28.889c0 8.753-7.112 15.873-15.853 15.873zm262.05 0h-210.345c-8.741 0-15.853-7.121-15.853-15.873v-28.889h242.05v28.889c.001 8.753-7.11 15.873-15.852 15.873z"/><path d="m256 195.734c-49.744 0-90.213 40.498-90.213 90.276 0 50.64 43.599 92.394 94.195 90.184 35.82-1.583 68.072-25.156 80.582-58.745 3.737-10.035 5.649-20.732 5.649-31.439 0-49.778-40.47-90.276-90.213-90.276zm68.127 107.265c-7.693 30.818-36.331 53.289-68.127 53.289-32.284 0-61.318-23.236-68.458-54.719 6.968-1.406 13.375-4.827 18.517-9.973 3.115-3.118 7.255-4.834 11.656-4.834 4.396 0 8.531 1.717 11.646 4.834 6.893 6.898 16.054 10.698 25.794 10.698 9.747 0 18.911-3.799 25.804-10.698 3.114-3.117 7.254-4.834 11.655-4.834 4.396 0 8.532 1.717 11.647 4.834 5.538 5.542 12.539 9.083 20.128 10.262-.086.38-.168.762-.262 1.141zm-68.127-87.265c37.299 0 67.885 29.264 70.075 66.055-2.872-.713-5.515-2.179-7.665-4.33-6.893-6.899-16.054-10.698-25.795-10.698-9.747 0-18.911 3.799-25.804 10.698-3.115 3.118-7.254 4.834-11.656 4.834-4.395 0-8.531-1.717-11.646-4.834-6.893-6.899-16.054-10.698-25.794-10.698-9.747 0-18.91 3.799-25.804 10.698-1.712 1.714-3.741 2.987-5.946 3.801 2.452-36.541 32.917-65.526 70.035-65.526z"/><path d="m256 155.702c-71.8 0-130.213 58.456-130.213 130.309s58.413 130.308 130.213 130.308 130.213-58.456 130.213-130.309-58.413-130.308-130.213-130.308zm0 240.617c-60.771 0-110.213-49.484-110.213-110.309s49.442-110.308 110.213-110.308 110.213 49.484 110.213 110.309-49.441 110.308-110.213 110.308z"/><path d="m336.882 438.162c0 17.837 14.504 32.349 32.331 32.349s32.331-14.512 32.331-32.349-14.504-32.349-32.331-32.349-32.331 14.512-32.331 32.349zm32.331-12.349c6.8 0 12.331 5.54 12.331 12.349s-5.531 12.349-12.331 12.349-12.331-5.54-12.331-12.349 5.531-12.349 12.331-12.349z"/><path d="m361.61 80.57c-3.435-8.246-15.616-7.987-18.646.455-1.437 4.003-.107 8.637 3.257 11.249 3.254 2.526 7.809 2.801 11.333.67 4.162-2.519 5.93-7.876 4.056-12.374z"/><path d="m307.698 74.395h-52.536c-5.523 0-10 4.477-10 10s4.477 10 10 10h52.536c5.522 0 10-4.477 10-10s-4.478-10-10-10z"/><path d="m401.77 80.57c-2.095-5.029-8.017-7.498-13.06-5.41-5.03 2.082-7.499 8.027-5.41 13.06 2.087 5.028 8.024 7.5 13.06 5.41 5.023-2.085 7.506-8.028 5.41-13.06z"/><path d="m72.8 375.26c3.043 4.525 9.32 5.797 13.87 2.77 4.548-3.025 5.76-9.338 2.76-13.87-3.01-4.547-9.338-5.76-13.86-2.76-4.54 3.012-5.787 9.332-2.77 13.86z"/></g></g></svg>