<svg id="Capa_1" enable-background="new 0 0 512 512" height="512" viewBox="0 0 512 512" width="512" xmlns="http://www.w3.org/2000/svg"><g><g><path d="m460.805 492h-40v-218.084h17.982c5.522 0 10-4.477 10-10v-91.71c0-5.523-4.478-10-10-10h-107.599c16.189-28.49 34.025-59.919 34.734-61.343h.001c4.837-9.72 7.289-20.169 7.289-31.057 0-38.492-31.315-69.806-69.805-69.806s-69.804 31.314-69.804 69.805c0 10.777 2.402 21.123 7.141 30.758.118.258.248.513.389.763l.055.098.002-.001c2.269 4.13 19.091 33.769 34.439 60.784h-18.862-3.357c-5.523 0-10 4.477-10 10s4.477 10 10 10h33.586c2.777 4.885 5.314 9.348 7.476 13.15 1.832 3.29 5.095 5.484 8.936 5.483 3.975 0 7.131-2.31 9.035-5.659 2.14-3.763 4.642-8.162 7.377-12.973h108.967v71.71h-13.984l-39.671-37.754c-1.858-1.77-4.327-2.756-6.894-2.756h-129.662c-2.58 0-5.061.998-6.923 2.784l-39.328 37.727h-14.297v-81.71c0-5.523-4.477-10-10-10s-10 4.477-10 10v91.71c0 5.523 4.477 10 10 10h18.306l-.31 218.081h-73.312v-19.912c29.179-4.792 51.517-30.177 51.517-60.692 0-15.799-6.01-30.788-16.702-42.141 1.615-4.826 2.452-9.914 2.452-15.024 0-26.063-21.204-47.267-47.267-47.267s-47.267 21.204-47.267 47.267c0 5.11.837 10.198 2.452 15.024-10.692 11.353-16.702 26.341-16.702 42.141 0 30.515 22.337 55.9 51.517 60.692v19.912h-41.517c-5.523 0-10 4.477-10 10s4.477 10 10 10h409.609c5.522 0 10-4.477 10-10s-4.477-10-9.999-10zm-207.202-422.195c0-27.462 22.342-49.805 49.804-49.805s49.805 22.342 49.805 49.805c0 7.733-1.731 15.152-5.148 22.052-1.526 2.829-44.654 78.747-44.654 78.747s-43.272-76.173-44.635-78.699c-3.432-6.914-5.172-14.349-5.172-22.1zm-192.408 341.591c0-12.381 5.472-24.027 15.013-31.952 3.651-3.033 4.667-8.214 2.432-12.401-2.12-3.973-3.195-8.283-3.195-12.812 0-15.035 12.232-27.267 27.267-27.267s27.267 12.232 27.267 27.267c0 4.529-1.075 8.839-3.195 12.812-2.235 4.187-1.218 9.368 2.433 12.401 9.541 7.925 15.013 19.571 15.013 31.952 0 19.445-13.44 35.804-31.517 40.292v-48.828c0-5.523-4.477-10-10-10s-10 4.477-10 10v48.828c-18.077-4.488-31.518-20.846-31.518-40.292zm231.993 80.604v-29.57h20.438v29.57zm40.439 0v-39.57c0-5.523-4.478-10-10-10h-40.438c-5.522 0-10 4.477-10 10v39.57h-67.165l.317-223.814 36.255-34.78h121.645l36.563 34.797v223.797z"/><path d="m204.41 176.03c2.095 5.028 8.021 7.502 13.06 5.41 5.03-2.088 7.494-8.025 5.41-13.06-2.083-5.031-8.027-7.499-13.06-5.41-5.024 2.085-7.507 8.026-5.41 13.06z"/><path d="m283.188 266.603h-43.283c-5.523 0-10 4.477-10 10v44.233c0 5.523 4.477 10 10 10h43.283c5.522 0 10-4.477 10-10v-44.233c0-5.523-4.477-10-10-10zm-10 44.232h-23.283v-24.233h23.283z"/><path d="m283.188 350.973h-43.283c-5.523 0-10 4.477-10 10v44.233c0 5.523 4.477 10 10 10h43.283c5.522 0 10-4.477 10-10v-44.233c0-5.523-4.477-10-10-10zm-10 44.233h-23.283v-24.233h23.283z"/><path d="m366.909 266.603h-43.282c-5.522 0-10 4.477-10 10v44.233c0 5.523 4.478 10 10 10h43.282c5.522 0 10-4.477 10-10v-44.233c0-5.523-4.477-10-10-10zm-10 44.232h-23.282v-24.233h23.282z"/><path d="m366.909 350.973h-43.282c-5.522 0-10 4.477-10 10v44.233c0 5.523 4.478 10 10 10h43.282c5.522 0 10-4.477 10-10v-44.233c0-5.523-4.477-10-10-10zm-10 44.233h-23.282v-24.233h23.282z"/><path d="m296.627 79.358h13.561v14.338c0 4.694 3.806 8.5 8.5 8.5s8.5-3.806 8.5-8.5v-44.162c0-4.694-3.806-8.5-8.5-8.5s-8.5 3.806-8.5 8.5v12.824h-13.561v-12.824c0-4.694-3.806-8.5-8.5-8.5s-8.5 3.806-8.5 8.5v44.163c0 4.694 3.806 8.5 8.5 8.5s8.5-3.806 8.5-8.5z"/></g></g></svg>