<svg id="Capa_1" enable-background="new 0 0 512 512" height="512" viewBox="0 0 512 512" width="512" xmlns="http://www.w3.org/2000/svg"><g><g><path d="m178.81 371.412c0-10.718 6.796-18.857 6.814-18.881 3.638-4.155 3.218-10.473-.938-14.111-4.155-3.637-10.472-3.219-14.111.937-1.204 1.375-11.766 13.962-11.766 32.055s10.562 30.679 11.716 31.997c.069.081 6.864 8.22 6.864 18.938 0 5.523 4.478 10 10 10s10-4.477 10-10c0-18.092-10.562-30.679-11.716-31.997-.068-.081-6.863-8.22-6.863-18.938z"/><path d="m256.459 371.412c0-10.718 6.796-18.857 6.814-18.881 3.638-4.155 3.218-10.473-.938-14.111-4.154-3.637-10.472-3.219-14.111.937-1.204 1.375-11.766 13.962-11.766 32.055s10.562 30.679 11.766 32.055c.068.078 6.814 8.26 6.814 18.88 0 10.606-6.654 18.688-6.859 18.933-3.589 4.156-3.155 10.436.982 14.059 1.897 1.661 4.245 2.476 6.583 2.476 2.782 0 5.551-1.155 7.528-3.413 1.204-1.375 11.766-13.962 11.766-32.055s-10.562-30.679-11.716-31.997c-.067-.081-6.863-8.22-6.863-18.938z"/><path d="m334.109 371.412c0-10.719 6.795-18.858 6.813-18.881 3.638-4.156 3.218-10.473-.938-14.111-4.155-3.637-10.473-3.218-14.111.938-1.204 1.375-11.765 13.962-11.765 32.054s10.561 30.679 11.715 31.997c.069.081 6.864 8.22 6.864 18.938 0 5.523 4.478 10 10 10s10-4.477 10-10c0-18.092-10.562-30.679-11.716-31.996-.067-.081-6.862-8.221-6.862-18.939z"/><path d="m469.322 54.186h-426.644c-23.532 0-42.678 19.145-42.678 42.677v135.192c0 20.088 13.956 36.968 32.678 41.482v32.4c0 5.523 4.478 10 10 10h426.142c5.522 0 10-4.477 10-10v-32.284c18.974-4.331 33.18-21.331 33.18-41.599v-135.191c0-23.532-19.146-42.677-42.678-42.677zm-10.502 241.752h-406.142v-21.203l288.398.067h.002c5.521 0 9.999-4.476 10-9.998 0-.012-.002-.024-.002-.036s.002-.024.002-.036v-.118c0-5.523-4.478-10-10-10-.523 0-1.037.04-1.538.118h-285.631c.44-2.067 1.036-4.279 1.846-6.458 4.105-11.063 10.065-12.481 14.8-12.481h370.39c4.734 0 10.694 1.418 14.8 12.481.809 2.179 1.405 4.392 1.845 6.458h-26.973c-.501-.078-1.015-.118-1.538-.118-5.522 0-10 4.477-10 10v.118c0 .014.002.028.002.043s-.002.029-.002.044c.01 5.517 4.484 9.983 10 9.982h.018l29.725-.052v21.189zm33.18-63.882c0 9.539-5.923 17.715-14.282 21.06-3.026-16.851-12.902-37.322-36.774-37.322h-370.389c-23.782 0-33.674 20.32-36.74 37.135-8.113-3.459-13.815-11.512-13.815-20.873v-135.193c0-12.504 10.173-22.678 22.678-22.678h426.645c12.505 0 22.678 10.173 22.678 22.678v135.193z"/><path d="m178.1 96.276h-107.546c-5.522 0-10 4.477-10 10v47.842c0 5.523 4.478 10 10 10h107.546c5.522 0 10-4.477 10-10v-47.842c0-5.523-4.478-10-10-10zm-10 47.843h-87.546v-27.842h87.546z"/><path d="m461.02 96.276h-50.542c-5.522 0-10 4.477-10 10s4.478 10 10 10h50.542c5.522 0 10-4.477 10-10s-4.478-10-10-10z"/><path d="m229.21 150.29c-2.096-5.032-8.023-7.491-13.061-5.4-5.032 2.088-7.489 8.013-5.409 13.05 2.078 5.033 8.032 7.497 13.06 5.41 5.048-2.096 7.479-8.012 5.41-13.06z"/><path d="m268.229 150.29c-2.096-5.031-8.007-7.492-13.05-5.41-5.033 2.078-7.497 8.034-5.41 13.06 2.091 5.035 8.019 7.497 13.061 5.41 5.053-2.092 7.464-8.023 5.399-13.06z"/><path d="m394.87 260.91c-1.642-3.938-5.705-6.461-9.967-6.144-4.347.323-8.057 3.526-9.018 7.776-1.97 8.708 8.194 15.524 15.508 10.366 3.771-2.662 5.256-7.728 3.477-11.998z"/></g></g></svg>