<svg id="Capa_1" enable-background="new 0 0 512.028 512.028" height="512" viewBox="0 0 512.028 512.028" width="512" xmlns="http://www.w3.org/2000/svg"><g><g><path d="m481.849 388.272c3.47-2.047 6.664-4.779 9.319-8.072l.373-.463c12.716-15.777 16.494-35.024 9.86-50.229-5.111-11.718-15.671-18.972-28.972-19.901-.113-.008-.191-.014-.305-.018-.125-.008-.25-.016-.377-.022-6.141-.384-11.355-2.608-15.083-6.435-3.802-3.902-6.007-9.392-6.378-15.878-.649-11.353-4.807-21.269-12.021-28.675-7.279-7.473-17.052-11.78-28.262-12.456-6.169-.372-11.406-2.598-15.147-6.438-3.798-3.898-6.001-9.386-6.372-15.871-.649-11.353-4.809-21.271-12.028-28.682-7.284-7.477-17.058-11.782-28.255-12.449-6.168-.372-11.406-2.598-15.147-6.439-3.802-3.903-6.008-9.393-6.378-15.871-.642-11.349-4.799-21.267-12.022-28.682-7.279-7.473-17.052-11.78-28.261-12.457-6.169-.372-11.405-2.596-15.142-6.431-3.802-3.902-6.007-9.393-6.378-15.878-.649-11.353-4.809-21.271-12.028-28.682-7.276-7.468-17.046-11.773-28.254-12.449-6.17-.372-11.408-2.599-15.148-6.439-3.802-3.902-6.008-9.393-6.38-15.899-.798-13.522-8.058-25.653-20.925-30.79-15.031-6.001-33.721-1.712-48.773 11.189-3.023 2.589-5.557 5.669-7.485 9.011l-.683-.701c-5.626-5.774-14.065-7.554-21.493-4.533-7.562 3.075-12.447 10.394-12.447 18.646v105.848l-81.047 84.068c-3.742 3.882-3.733 10.032.021 13.903l81.025 83.538v95.981c0 11.077 8.895 20.089 19.828 20.089h56.214c2.914 17.872 11.114 34.667 23.24 47.114 14.771 15.163 34.407 24.08 55.29 25.11 17.893.885 35.81-4.218 50.588-14.336 14.779 10.117 32.686 15.208 50.578 14.329 20.881-1.03 40.513-9.945 55.279-25.103 12.489-12.819 20.591-29.286 23.37-47.114h58.881c7.951 0 15.107-4.784 18.23-12.188 3.181-7.54 1.564-16.181-4.118-22.013zm-450.53-155.158 59.937-62.171v123.967zm173.545 239.749c-8.575-8.802-14.607-20.513-17.255-33.158h72.712c2.61 16.175 9.682 31.771 20.516 44.103-24.44 14.061-55.463 10.108-75.973-10.945zm183.083 0c-23.171 23.786-59.764 25.739-85.072 4.58-11.46-9.694-19.149-23.074-22.21-37.738h124.686c-2.546 12.552-8.545 24.065-17.404 33.158zm96.394-53.157h-67.701-147.348-93.064-64.964c-.005-.022-.009-.052-.009-.089v-100.034-173.42-109.644l56.789 58.295c3.853 3.955 10.185 4.039 14.141.185s4.039-10.185.186-14.141l-40.286-41.354c-.287-.295-.447-1.069-.406-1.971.097-2.143 1.384-5.65 4.697-8.487 9.244-7.923 20.373-10.987 28.347-7.803 5.682 2.268 8.025 7.577 8.374 13.379.65 11.365 4.807 21.287 12.02 28.69 7.271 7.466 17.048 11.77 28.271 12.447 6.156.371 11.389 2.598 15.132 6.441 3.809 3.909 6.018 9.396 6.388 15.869.65 11.366 4.806 21.287 12.019 28.691 7.269 7.461 17.043 11.763 28.264 12.439 6.156.371 11.392 2.601 15.139 6.448 3.809 3.91 6.015 9.392 6.381 15.861.649 11.365 4.807 21.287 12.02 28.691 7.273 7.466 17.049 11.771 28.277 12.447 6.146.366 11.377 2.593 15.125 6.44 3.809 3.909 6.018 9.396 6.388 15.868.649 11.366 4.804 21.285 12.013 28.685 7.273 7.466 17.049 11.77 28.27 12.446 6.157.371 11.393 2.601 15.14 6.448 3.804 3.905 6.011 9.389 6.381 15.861.65 11.366 4.806 21.288 12.019 28.691 7.273 7.466 17.049 11.77 28.271 12.447.072.004.125.008.197.011.11.007.222.014.333.02 5.809.434 9.821 3.104 11.931 7.938 2.725 6.247 2.5 17.769-7.102 29.683l-.373.463c-2.73 3.387-6.012 4.698-7.992 4.791-.544.023-1.213-.039-1.463-.295l-221.795-227.663c-3.979-4.087-10.784-3.941-14.597.292-3.479 3.862-3.356 9.94.271 13.664l254.286 261.024c.037.039.057.064.061.066.004.045-.008.115-.031.18z"/><path d="m215.221 115.609c-3.44-8.393-15.874-7.906-18.723.688-2.839 8.563 6.721 16.252 14.484 11.789 4.284-2.464 6.142-7.909 4.239-12.477z"/><path d="m317.692 466.609c2.096 5.031 8.017 7.498 13.06 5.41 5.032-2.084 7.5-8.026 5.41-13.06-2.088-5.029-8.023-7.502-13.061-5.41-5.022 2.087-7.508 8.027-5.409 13.06z"/><path d="m353.862 466.609c2.096 5.032 8.015 7.499 13.06 5.41 5.026-2.081 7.493-8.037 5.4-13.06-2.097-5.032-8.004-7.494-13.05-5.41-5.029 2.077-7.507 8.032-5.41 13.06z"/><path d="m244.572 454.469c-7.524-5.021-17.613 2.236-15.176 10.984 1.109 3.981 4.635 6.928 8.752 7.297 4.296.384 8.463-2.167 10.113-6.141 1.812-4.363.215-9.512-3.689-12.14z"/></g></g></svg>