<svg id="Capa_1" enable-background="new 0 0 512 512" height="512" viewBox="0 0 512 512" width="512" xmlns="http://www.w3.org/2000/svg"><g><g><path d="m464.518 32.357h-2.68c-5.522 0-10 4.478-10 10s4.478 10 10 10h2.68c15.154 0 27.482 12.334 27.482 27.494v303.771c0 15.148-12.307 27.473-27.444 27.494h-417.075c-.004 0-.009.001-.013.001-15.147-.006-27.468-12.337-27.468-27.494v-303.771c0-15.16 12.328-27.494 27.481-27.494h325.151c5.522 0 10-4.478 10-10s-4.478-10-10-10h-325.151c-26.181-.001-47.481 21.305-47.481 47.494v303.771c0 22.757 16.087 41.819 37.481 46.426v39.594c0 5.522 4.478 10 10 10h28.123c2.992 0 5.827-1.34 7.727-3.652l36.862-44.872h271.699l36.862 44.872c1.899 2.313 4.734 3.652 7.727 3.652h28.123c5.522 0 10-4.478 10-10v-39.613c21.352-4.64 37.396-23.68 37.396-46.406v-303.772c0-26.189-21.301-47.495-47.482-47.495zm-393.64 427.286h-13.397v-28.524h36.829zm370.329 0-23.433-28.524h36.829v28.524z"/><path d="m60.093 82.257c-5.522 0-10 4.478-10 10v278.961c0 5.522 4.478 10 10 10h392.025c5.522 0 10-4.478 10-10v-278.961c0-5.522-4.478-10-10-10zm197.623 164.48h50.619l-7.031 15.456c-2.554 5.615-8.188 9.243-14.354 9.243h-61.519c-6.271 0-11.943-3.715-14.453-9.464l-6.651-15.235zm-68.663-144.48-4.845 10.651c-1.877 4.125-6.017 6.791-10.547 6.791h-29.964c-4.606 0-8.775-2.729-10.619-6.953l-4.58-10.489zm-118.96 0h36.582l8.074 18.492c5.027 11.512 16.39 18.95 28.948 18.95h29.964c12.352 0 23.637-7.266 28.752-18.51l8.612-18.933h36.691v124.48h-177.623zm372.025 258.961h-372.025v-114.48h112.41l10.145 23.237c5.692 13.038 18.561 21.462 32.783 21.462h61.519c13.987 0 26.768-8.229 32.56-20.962l10.798-23.737h111.811v114.48zm0-134.481h-174.402v-124.48h34.972l8.073 18.491c5.026 11.513 16.389 18.951 28.948 18.951h29.964c12.352 0 23.637-7.266 28.752-18.51l8.612-18.933h35.08v124.481zm-57.053-124.48-4.845 10.651c-1.877 4.125-6.017 6.791-10.547 6.791h-29.963c-4.606 0-8.774-2.729-10.619-6.954l-4.579-10.488z"/><path d="m409.26 46.18c2.066 5.045 8.027 7.484 13.05 5.41 5.033-2.079 7.504-8.026 5.42-13.06-2.085-5.035-8.03-7.487-13.06-5.41-5.028 2.076-7.505 8.035-5.41 13.06z"/></g></g></svg>