<svg id="Capa_1" enable-background="new 0 0 512 512" height="512" viewBox="0 0 512 512" width="512" xmlns="http://www.w3.org/2000/svg"><g><g><path d="m502 26.145h-438.307c-5.523 0-10 4.478-10 10v73.214h-43.693c-5.523 0-10 4.478-10 10v356.493c0 3.454 1.752 6.499 4.415 8.296 1.596 1.078 3.52 1.708 5.591 1.708h438.307c35.117 0 63.687-28.569 63.687-63.687v-386.024c0-5.523-4.477-10-10-10zm-448.313 103.213v292.806c0 15.749-8.792 30.548-22.531 38.21-3.495 1.949-7.261 3.4-11.156 4.315v-335.33h33.687zm69.291 336.494c10.774-11.412 17.387-26.791 17.387-43.688v-37.623h285.519v37.623c0 24.09-19.598 43.688-43.687 43.688zm369.022-43.683c0 24.089-19.598 43.687-43.687 43.687h-19.845c10.783-11.414 17.415-26.788 17.415-43.691v-47.623c0-5.522-4.477-10-10-10h-305.519c-5.523 0-10 4.478-10 10v47.623c0 24.09-19.598 43.688-43.687 43.688-.026 0-.051.004-.077.004h-20.293c11.079-11.727 17.387-27.554 17.387-43.687v-376.025h418.306z"/><path d="m130.359 178.894h225.941c6.438 0 11.082-6.137 9.779-12.337-1.141-5.428-6.714-8.949-12.11-7.663h-213.61v-63.16h285.524v73.16c0 5.522 4.477 10 10 10s10-4.478 10-10v-83.16c0-5.522-4.477-10-10-10h-305.524c-5.523 0-10 4.478-10 10v83.16c0 5.522 4.477 10 10 10z"/><path d="m130.359 240.401h115.582c5.523 0 10-4.478 10-10s-4.477-10-10-10h-115.582c-5.523 0-10 4.478-10 10s4.477 10 10 10z"/><path d="m130.359 335.13h115.582c5.523 0 10-4.478 10-10s-4.477-10-10-10h-115.582c-5.523 0-10 4.478-10 10s4.477 10 10 10z"/><path d="m130.359 287.766h115.582c5.523 0 10-4.478 10-10s-4.477-10-10-10h-115.582c-5.523 0-10 4.478-10 10s4.477 10 10 10z"/><path d="m435.883 220.401h-136.862c-5.523 0-10 4.478-10 10v94.729c0 5.522 4.477 10 10 10h136.862c5.523 0 10-4.478 10-10v-94.729c0-5.522-4.477-10-10-10zm-10 94.729h-116.862v-74.729h116.862z"/><path d="m392.94 178.13c8.382 3.492 16.803-5.642 12.751-13.728-4.113-8.208-16.642-6.65-18.677 2.298-1.062 4.673 1.483 9.609 5.926 11.43z"/></g></g></svg>