<svg xmlns="http://www.w3.org/2000/svg" width="94.672" height="97.258" viewBox="0 0 94.672 97.258">
  <g id="food" transform="translate(-640 -807.799)">
    <g id="Group_77" data-name="Group 77" transform="translate(4 -34)">
      <path id="Path_386" data-name="Path 386" d="M68.838,47.086H12.714a5.907,5.907,0,0,0-5.907,5.907v76.5a5.907,5.907,0,0,0,5.907,5.907H68.838a5.907,5.907,0,0,0,5.907-5.907v-76.5a5.907,5.907,0,0,0-5.907-5.907Z" transform="translate(629.193 803.657)" fill="#6c63ff"/>
      <path id="Path_387" data-name="Path 387" d="M22.14,135.4H12.715A5.907,5.907,0,0,1,6.807,129.5V53a5.906,5.906,0,0,1,5.908-5.906H22.14A5.906,5.906,0,0,0,16.235,53v76.5A5.906,5.906,0,0,0,22.14,135.4Z" transform="translate(629.193 803.653)" fill="#65617d"/>
      <path id="Path_388" data-name="Path 388" d="M59.716,0h-12a2.881,2.881,0,0,0-2.881,2.881V8.944H62.6V2.881A2.881,2.881,0,0,0,59.716,0Z" transform="translate(598.391 841.799)" fill="#f9f6f9"/>
      <path id="Path_389" data-name="Path 389" d="M54.345,0a2.88,2.88,0,0,0-2.881,2.881V8.949H44.833V2.885A2.882,2.882,0,0,1,47.715,0h6.63Z" transform="translate(598.391 841.795)" fill="#dfeaef"/>
      <ellipse id="Ellipse_104" data-name="Ellipse 104" cx="22.258" cy="22.258" rx="22.258" ry="22.258" transform="translate(647.711 875.404)" fill="#f1d333"/>
      <path id="Path_390" data-name="Path 390" d="M67.384,165.332a22.2,22.2,0,0,1-18.811,6.3q-.7-.094-1.394-.236a22.257,22.257,0,0,1,26.273-26.273A22.23,22.23,0,0,1,67.384,165.332Z" transform="translate(596.856 724.605)" fill="#b7e445"/>
      <g id="Group_67" data-name="Group 67" transform="translate(683.506 878.27)">
        <path id="Path_391" data-name="Path 391" d="M313.229,263.46l-.26,2.439-.207,1.957-3.979,37.475a5.922,5.922,0,0,1-5.889,5.3H282.016a5.92,5.92,0,0,1-5.889-5.3l-3.98-37.475-.207-1.957-.26-2.439Z" transform="translate(-268.871 -249.885)" fill="#f1d333"/>
        <path id="Path_392" data-name="Path 392" d="M313.228,250.448l-.26,2.439-.207,1.957H272.146l-.207-1.957-.26-2.439,21.456-3.051Z" transform="translate(-268.87 -236.873)" fill="#e7a52e"/>
        <path id="Path_393" data-name="Path 393" d="M287.289,310.624h-5.271a5.923,5.923,0,0,1-5.89-5.3l-4.446-41.87h10.491l2.2,41.87C284.532,308.339,285.79,310.624,287.289,310.624Z" transform="translate(-268.873 -249.882)" fill="#e7a52e"/>
        <path id="Path_394" data-name="Path 394" d="M301.521,205.571H259.43a2.538,2.538,0,0,1-2.538-2.538v-8.5A2.538,2.538,0,0,1,259.43,192h42.09a2.538,2.538,0,0,1,2.538,2.538v8.5A2.538,2.538,0,0,1,301.521,205.571Z" transform="translate(-256.892 -191.996)" fill="#e4f6ff"/>
        <path id="Path_395" data-name="Path 395" d="M275.208,205.572H259.431a2.538,2.538,0,0,1-2.538-2.538v-8.5A2.538,2.538,0,0,1,259.431,192h15.777a2.538,2.538,0,0,0-2.538,2.538v8.5A2.538,2.538,0,0,0,275.208,205.572Z" transform="translate(-256.893 -191.997)" fill="#d3effb"/>
      </g>
      <path id="Path_396" data-name="Path 396" d="M48.572,215.03v13.6q-.7-.094-1.394-.236A22.345,22.345,0,0,1,48.572,215.03Z" transform="translate(596.856 667.615)" fill="#9bd069"/>
    </g>
  </g>
</svg>
