<svg xmlns="http://www.w3.org/2000/svg" xmlns:xlink="http://www.w3.org/1999/xlink" width="655" height="527.786" viewBox="0 0 655 527.786">
  <defs>
    <linearGradient id="linear-gradient" x1="0.5" y1="1" x2="0.5" gradientUnits="objectBoundingBox">
      <stop offset="0" stop-color="gray" stop-opacity="0.251"/>
      <stop offset="0.54" stop-color="gray" stop-opacity="0.122"/>
      <stop offset="1" stop-color="gray" stop-opacity="0.102"/>
    </linearGradient>
    <linearGradient id="linear-gradient-2" x1="7.194" y1="-9.858" x2="7.194" y2="-10.955" xlink:href="#linear-gradient"/>
    <linearGradient id="linear-gradient-3" x1="47.005" y1="-76.977" x2="47.005" y2="-77.977" xlink:href="#linear-gradient"/>
    <linearGradient id="linear-gradient-4" x1="45.78" y1="-75.851" x2="45.78" y2="-76.851" xlink:href="#linear-gradient"/>
    <linearGradient id="linear-gradient-5" x1="45.657" y1="-78.237" x2="45.657" y2="-79.237" xlink:href="#linear-gradient"/>
    <linearGradient id="linear-gradient-6" x1="44.401" y1="-77.207" x2="44.401" y2="-78.207" xlink:href="#linear-gradient"/>
    <linearGradient id="linear-gradient-7" y1="1.001" y2="0" xlink:href="#linear-gradient"/>
    <linearGradient id="linear-gradient-8" y1="1" y2="0" xlink:href="#linear-gradient"/>
    <linearGradient id="linear-gradient-9" x1="0.501" y1="1" x2="0.501" gradientUnits="objectBoundingBox">
      <stop offset="0" stop-color="#fff"/>
      <stop offset="1"/>
    </linearGradient>
    <linearGradient id="linear-gradient-10" y1="1" y2="0" xlink:href="#linear-gradient"/>
    <linearGradient id="linear-gradient-11" x1="5.982" y1="-11.162" x2="5.982" y2="-12.162" xlink:href="#linear-gradient"/>
    <linearGradient id="linear-gradient-12" x1="3.661" y1="-6.311" x2="3.661" y2="-7.416" xlink:href="#linear-gradient"/>
  </defs>
  <g id="footerpic" transform="translate(0 0.007)" opacity="0.8">
    <g id="Group_100" data-name="Group 100" transform="translate(0 61.149)" opacity="0.5">
      <path id="Path_539" data-name="Path 539" d="M735.454,220.034h-89.7V185.711A35.951,35.951,0,0,0,609.8,149.76H199.09a32.615,32.615,0,0,0-32.615,32.615v37.679H152.97A37.956,37.956,0,0,0,115,257.963V428.128a37.95,37.95,0,0,0,35.113,37.814v38.49h38.341V466.057h48.281v38.7h38.341v-38.7H620.133v38.7h38.341v-38.7h31.953V504.4h38.382V466.057h6.908A34.278,34.278,0,0,0,770,431.775V254.587a34.548,34.548,0,0,0-34.553-34.553ZM639,370.2v28.752H496.061a18.563,18.563,0,0,0,2.357-9.069V370.2Z" transform="translate(-115 -149.76)" fill="url(#linear-gradient)"/>
    </g>
    <rect id="Rectangle_912" data-name="Rectangle 912" width="36.916" height="46.147" transform="translate(45.999 363.064)" fill="#6c63ff"/>
    <rect id="Rectangle_913" data-name="Rectangle 913" width="36.916" height="46.147" transform="translate(498.59 363.408)" fill="#6c63ff"/>
    <rect id="Rectangle_914" data-name="Rectangle 914" width="36.916" height="46.147" transform="translate(566.271 363.064)" fill="#6c63ff"/>
    <rect id="Rectangle_915" data-name="Rectangle 915" width="36.916" height="46.147" transform="translate(129.406 363.408)" fill="#6c63ff"/>
    <rect id="Rectangle_916" data-name="Rectangle 916" width="36.916" height="46.147" transform="translate(45.999 363.064)" opacity="0.3"/>
    <rect id="Rectangle_917" data-name="Rectangle 917" width="36.916" height="46.147" transform="translate(498.59 363.408)" opacity="0.3"/>
    <rect id="Rectangle_918" data-name="Rectangle 918" width="36.916" height="46.147" transform="translate(566.271 363.064)" opacity="0.3"/>
    <rect id="Rectangle_919" data-name="Rectangle 919" width="36.916" height="46.147" transform="translate(129.406 363.408)" opacity="0.3"/>
    <path id="Path_540" data-name="Path 540" d="M765.2,200.52h92.875a33.263,33.263,0,0,1,33.263,33.263V404.414a33,33,0,0,1-33,33H765.2Z" transform="translate(-248.493 -65.12)" fill="#6c63ff"/>
    <path id="Path_541" data-name="Path 541" d="M765.2,200.52h92.875a33.263,33.263,0,0,1,33.263,33.263V404.414a33,33,0,0,1-33,33H765.2Z" transform="translate(-248.493 -65.12)" opacity="0.3"/>
    <path id="Path_542" data-name="Path 542" d="M122.806,100.29h177.8V312.571H91.4V131.689a31.4,31.4,0,0,1,31.4-31.4Z" transform="translate(-29.681 -32.571)" fill="#6c63ff"/>
    <path id="Path_543" data-name="Path 543" d="M123.819,100.29H300.608V312.571H91.4V132.7A32.412,32.412,0,0,1,123.819,100.29Z" transform="translate(-29.681 -32.571)" opacity="0.3"/>
    <path id="Path_544" data-name="Path 544" d="M191.5,100.29H363.888V312.571H154.68V137.1a36.808,36.808,0,0,1,36.808-36.808Z" transform="translate(-50.231 -32.571)" fill="#6c63ff"/>
    <path id="Path_545" data-name="Path 545" d="M463,100.29H638.938a34.62,34.62,0,0,1,34.62,34.62v177.66H463Z" transform="translate(-150.356 -32.571)" fill="#6c63ff"/>
    <path id="Path_546" data-name="Path 546" d="M851.77,200.52h34.438a33.263,33.263,0,0,1,33.243,33.263V404.414a33,33,0,0,1-33,33H851.77Z" transform="translate(-276.606 -65.12)" fill="#6c63ff"/>
    <rect id="Rectangle_920" data-name="Rectangle 920" width="424.562" height="64.609" transform="translate(150.596 307.686)" fill="#6c63ff"/>
    <rect id="Rectangle_921" data-name="Rectangle 921" width="125.368" height="131.966" rx="57.05" transform="translate(164.776 168.03) rotate(-16.25)" fill="url(#linear-gradient-2)"/>
    <rect id="Rectangle_922" data-name="Rectangle 922" width="116.907" height="123.059" rx="53.2" transform="translate(167.847 172.688) rotate(-16.25)" fill="#f55f44"/>
    <rect id="Rectangle_923" data-name="Rectangle 923" width="116.907" height="123.059" rx="53.2" transform="translate(167.847 172.688) rotate(-16.25)" opacity="0.1"/>
    <rect id="Rectangle_924" data-name="Rectangle 924" width="116.907" height="123.059" rx="53.2" transform="translate(170.079 171.12) rotate(-16.25)" fill="#f55f44"/>
    <circle id="Ellipse_147" data-name="Ellipse 147" cx="9.231" cy="9.231" r="9.231" transform="matrix(0.818, -0.575, 0.575, 0.818, 220.404, 181.115)" fill="url(#linear-gradient-3)"/>
    <circle id="Ellipse_148" data-name="Ellipse 148" cx="9.231" cy="9.231" r="9.231" transform="matrix(0.818, -0.575, 0.575, 0.818, 264.567, 206.47)" fill="url(#linear-gradient-4)"/>
    <circle id="Ellipse_149" data-name="Ellipse 149" cx="9.231" cy="9.231" r="9.231" transform="matrix(0.818, -0.575, 0.575, 0.818, 196.067, 232.073)" fill="url(#linear-gradient-5)"/>
    <circle id="Ellipse_150" data-name="Ellipse 150" cx="9.231" cy="9.231" r="9.231" transform="matrix(0.818, -0.575, 0.575, 0.818, 237.709, 259.203)" fill="url(#linear-gradient-6)"/>
    <circle id="Ellipse_151" data-name="Ellipse 151" cx="6.152" cy="6.152" r="6.152" transform="matrix(0.818, -0.575, 0.575, 0.818, 224.694, 181.862)" fill="#f99f8f"/>
    <circle id="Ellipse_152" data-name="Ellipse 152" cx="6.152" cy="6.152" r="6.152" transform="matrix(0.818, -0.575, 0.575, 0.818, 268.857, 207.217)" fill="#f99f8f"/>
    <circle id="Ellipse_153" data-name="Ellipse 153" cx="6.152" cy="6.152" r="6.152" transform="matrix(0.818, -0.575, 0.575, 0.818, 200.357, 232.82)" fill="#f99f8f"/>
    <circle id="Ellipse_154" data-name="Ellipse 154" cx="6.152" cy="6.152" r="6.152" transform="matrix(0.818, -0.575, 0.575, 0.818, 241.999, 259.95)" fill="#f99f8f"/>
    <path id="Path_547" data-name="Path 547" d="M54.552,200.52H190.279V437.414H54.552A36.552,36.552,0,0,1,18,400.869v-163.8A36.552,36.552,0,0,1,54.552,200.52Z" transform="translate(-5.845 -65.12)" fill="#6c63ff"/>
    <path id="Path_548" data-name="Path 548" d="M54.808,200.52H156.225a34.06,34.06,0,0,1,34.06,34.087V403.354a34.06,34.06,0,0,1-34.06,34.06H54.808A36.808,36.808,0,0,1,18,400.606v-163.3A36.808,36.808,0,0,1,54.808,200.52Z" transform="translate(-5.845 -65.12)" opacity="0.3"/>
    <path id="Path_549" data-name="Path 549" d="M173.41,200.52h59.281A11.479,11.479,0,0,1,244.17,212V425.935a11.479,11.479,0,0,1-11.479,11.479H173.41Z" transform="translate(-56.314 -65.12)" opacity="0.1"/>
    <path id="Path_550" data-name="Path 550" d="M168.35,200.52h59.281A11.479,11.479,0,0,1,239.11,212V425.935a11.479,11.479,0,0,1-11.479,11.479H168.35Z" transform="translate(-54.67 -65.12)" fill="#6c63ff"/>
    <rect id="Rectangle_925" data-name="Rectangle 925" width="212.281" height="58.457" transform="translate(169.058 258.466)" fill="#6c63ff"/>
    <rect id="Rectangle_926" data-name="Rectangle 926" width="212.281" height="58.457" transform="translate(381.683 258.804)" fill="#6c63ff"/>
    <rect id="Rectangle_927" data-name="Rectangle 927" width="212.281" height="58.457" rx="26.6" transform="translate(169.058 258.466)" fill="#fff" opacity="0.15"/>
    <circle id="Ellipse_155" data-name="Ellipse 155" cx="12.303" cy="12.303" r="12.303" transform="translate(393.817 126.345)" fill="#6c63ff"/>
    <circle id="Ellipse_156" data-name="Ellipse 156" cx="12.303" cy="12.303" r="12.303" transform="translate(393.817 126.345)" opacity="0.3"/>
    <circle id="Ellipse_157" data-name="Ellipse 157" cx="12.303" cy="12.303" r="12.303" transform="translate(203.077 126.345)" fill="#6c63ff"/>
    <circle id="Ellipse_158" data-name="Ellipse 158" cx="12.303" cy="12.303" r="12.303" transform="translate(203.077 126.345)" opacity="0.3"/>
    <ellipse id="Ellipse_159" data-name="Ellipse 159" cx="3.079" cy="4.612" rx="3.079" ry="4.612" transform="translate(206.143 64.471)" fill="#fda57d"/>
    <rect id="Rectangle_928" data-name="Rectangle 928" width="212.281" height="58.457" rx="26.6" transform="translate(381.683 258.804)" fill="#fff" opacity="0.15"/>
    <g id="Group_101" data-name="Group 101" transform="translate(405.938 96.581)" opacity="0.5">
      <path id="Path_551" data-name="Path 551" d="M764.292,246.109c-1.411-7.759-2.856-15.605-6.077-22.824a50.124,50.124,0,0,0-16.037-19.961,5.4,5.4,0,0,0-3.619-1.08h0a3.072,3.072,0,0,0-2.964,2.7c-.04.155-.074.3-.1.459a23.706,23.706,0,0,0,.891,11.662c1.438,4.788,3.849,9.454,5.854,14.086a93.969,93.969,0,0,1,7.11,26.065,35.744,35.744,0,0,1,.29,3.633,21.161,21.161,0,0,1-.054,2.181,13.006,13.006,0,0,1-.959,4.139q-.142.324-.3.675a4.008,4.008,0,0,1-.351.621,18.744,18.744,0,0,1-5.024,4.9,23.631,23.631,0,0,1-6.246,3.714h.074a9.014,9.014,0,0,1-3.255.533c-3.464-.108-7.158-2.9-10.642-2.242h0l-.392.088c-3.565.966-6.3,6.57-6.327,10.129h0v.824a.817.817,0,0,0,.034.284c.034.095.041.358.068.527a2.306,2.306,0,0,0,.068.311c.027.1.061.3.1.452s.061.209.095.311.088.277.135.412.081.2.122.3.108.257.169.378l.149.284c.068.115.128.236.2.351l.176.27.23.324.2.25.263.3.216.23.29.277.236.209.317.257.25.2.344.236.257.176.378.223.263.149.425.209.25.122c.2.095.412.182.621.263l.3.115.486.176.351.108.4.122.392.1.378.095.419.088.365.074.439.074.351.054.452.061.338.04.473.04H730.6l.594-.047h.115a19.483,19.483,0,0,0,4.936-1.087c5.044-1.911,9.325-5.4,13.289-9.069,7.86-7.259,15.288-16.267,15.916-26.95A48.5,48.5,0,0,0,764.292,246.109Z" transform="translate(-716.16 -202.232)" fill="url(#linear-gradient-7)"/>
    </g>
    <rect id="Rectangle_929" data-name="Rectangle 929" width="63.657" height="18.428" transform="translate(357.171 137.892)" opacity="0.1"/>
    <rect id="Rectangle_930" data-name="Rectangle 930" width="63.657" height="16.753" transform="translate(357.171 137.892)" fill="#6c63ff"/>
    <circle id="Ellipse_160" data-name="Ellipse 160" cx="10.048" cy="10.048" r="10.048" transform="translate(383.979 120.032)" fill="#6c63ff"/>
    <path id="Path_552" data-name="Path 552" d="M670.4,273.2l-.122-.122a1.85,1.85,0,0,0,0-2.951l.108-.135a2.026,2.026,0,0,1,0,3.2Z" transform="translate(-295.323 -127.655)" fill="#4d8af0"/>
    <path id="Path_553" data-name="Path 553" d="M670.4,273.2l-.122-.122a1.85,1.85,0,0,0,0-2.951l.108-.135a2.026,2.026,0,0,1,0,3.2Z" transform="translate(-295.323 -127.655)" opacity="0.1"/>
    <path id="Path_554" data-name="Path 554" d="M669.9,273.2a2.026,2.026,0,0,1,0-3.2l.108.135a1.85,1.85,0,0,0,0,2.951Z" transform="translate(-294.946 -127.658)" fill="#4d8af0"/>
    <path id="Path_555" data-name="Path 555" d="M555.37,210.9h0" transform="translate(-180.352 -68.49)" fill="#4d8af0"/>
    <path id="Path_556" data-name="Path 556" d="M737.661,314.578c4.612-1.749,8.522-4.943,12.155-8.292,7.185-6.631,13.964-14.856,14.545-24.627a44.9,44.9,0,0,0-1.074-10.635c-1.29-7.09-2.606-14.261-5.53-20.852A45.8,45.8,0,0,0,743.1,231.94a4.929,4.929,0,0,0-3.315-.986c-2.026.182-2.539,1.573-2.809,2.9-1.641,8.1,2.863,15.963,6.158,23.526a85.877,85.877,0,0,1,6.5,23.816c.425,3.484.581,7.252-1.256,10.25a17.226,17.226,0,0,1-4.592,4.47c-2.566,1.938-5.4,3.971-8.616,3.876s-6.807-2.856-10.129-1.965-5.76,6-5.78,9.278C719.219,315.983,731.489,316.915,737.661,314.578Z" transform="translate(-311.229 -114.974)" fill="#ffd180"/>
    <g id="Group_102" data-name="Group 102" transform="translate(408.038 115.957)" opacity="0.1">
      <path id="Path_557" data-name="Path 557" d="M756.7,291.445a17.225,17.225,0,0,1-4.592,4.47,21.336,21.336,0,0,1-5.713,3.376c2.917-.2,5.53-2.026,7.9-3.842a17.33,17.33,0,0,0,4.592-4.47c1.83-2.991,1.681-6.753,1.256-10.25a85.865,85.865,0,0,0-6.5-23.816c-3.3-7.57-7.806-15.436-6.158-23.526a3.5,3.5,0,0,1,1.351-2.444,4.408,4.408,0,0,0-.75,0c-2.026.182-2.539,1.573-2.809,2.9-1.641,8.1,2.863,15.963,6.158,23.526a85.865,85.865,0,0,1,6.5,23.816C758.382,284.679,758.538,288.447,756.7,291.445Z" transform="translate(-727.604 -230.926)"/>
      <path id="Path_558" data-name="Path 558" d="M721.465,338.75c0-3.025,2.154-7.624,5.051-9a5.3,5.3,0,0,0-1.465.169c-3.262.885-5.76,6-5.78,9.278-.041,8.279,10.622,9.629,17.07,7.894C729.932,348.022,721.424,346.124,721.465,338.75Z" transform="translate(-719.27 -263.018)"/>
    </g>
    <g id="Group_103" data-name="Group 103" transform="translate(326.42 85.985)" opacity="0.5">
      <path id="Path_559" data-name="Path 559" d="M635.181,199.944s18.394-3.68,27.591,0c0,0,5.517-12.877,11.034-12.877s7.354,20.258,7.354,20.258l7.354,29.428s34.945,62.536,0,95.637-90.113-3.7-90.113-27.611,11.034-73.563,11.034-73.563,11.034-40.461,14.714-44.142S635.181,199.944,635.181,199.944Z" transform="translate(-598.4 -186.539)" fill="url(#linear-gradient-8)"/>
    </g>
    <path id="Path_560" data-name="Path 560" d="M636.78,203.981s17.678-3.538,26.517,0c0,0,5.3-12.378,10.608-12.378s7.07,19.447,7.07,19.447l7.07,28.287s33.594,60.1,0,91.936-86.636-3.538-86.636-26.517,10.608-70.72,10.608-70.72,10.608-38.895,14.147-42.433S636.78,203.981,636.78,203.981Z" transform="translate(-272.958 -102.032)" fill="#ffd180"/>
    <g id="Group_104" data-name="Group 104" transform="translate(330.518 89.059)" opacity="0.1">
      <path id="Path_561" data-name="Path 561" d="M742.051,295.59a139.844,139.844,0,0,0-12.371-33.04l1.114,4.47a139.784,139.784,0,0,1,11.257,28.57Z" transform="translate(-645.131 -214.298)" fill="#fff"/>
      <path id="Path_562" data-name="Path 562" d="M605.584,300c0-22.959,8.555-61.489,8.555-61.489s10.608-38.895,14.147-42.433,10.608,12.377,10.608,12.377,17.678-3.538,26.517,0c0,0,5.308-12.377,10.608-12.377,2.026,0,3.586,2.931,4.68,6.516-1.08-5.247-2.917-10.986-5.794-10.986-5.3,0-10.608,12.377-10.608,12.377-8.839-3.538-26.517,0-26.517,0s-7.07-15.909-10.608-12.377-14.147,42.433-14.147,42.433-8.556,38.49-8.556,61.489C604.463,297.606,605.584,300.658,605.584,300Z" transform="translate(-604.47 -191.092)" fill="#fff"/>
    </g>
    <circle id="Ellipse_161" data-name="Ellipse 161" cx="3.538" cy="3.538" r="3.538" transform="translate(394.762 129.35)" fill="#58555d"/>
    <circle id="Ellipse_162" data-name="Ellipse 162" cx="3.538" cy="3.538" r="3.538" transform="translate(354.098 129.35)" fill="#58555d"/>
    <ellipse id="Ellipse_163" data-name="Ellipse 163" cx="5.301" cy="3.538" rx="5.301" ry="3.538" transform="translate(373.553 132.888)" fill="#58555d"/>
    <rect id="Rectangle_931" data-name="Rectangle 931" width="16.301" height="1.769" transform="translate(408.717 131.994) rotate(-12.52)" fill="#ffd180"/>
    <rect id="Rectangle_932" data-name="Rectangle 932" width="18.029" height="1.769" transform="translate(408.742 139.06) rotate(-11.27)" fill="#ffd180"/>
    <rect id="Rectangle_933" data-name="Rectangle 933" width="1.769" height="19.042" transform="translate(327.246 124.864) rotate(-68.2)" fill="#ffd180"/>
    <rect id="Rectangle_934" data-name="Rectangle 934" width="1.769" height="23.256" transform="matrix(0.152, -0.988, 0.988, 0.152, 322.162, 133.779)" fill="#ffd180"/>
    <path id="Path_563" data-name="Path 563" d="M650.89,287.544a80.885,80.885,0,0,1-13.809-1.175,76.305,76.305,0,0,1-24.931-8.961l.615-2.856a83.9,83.9,0,0,0,24.984,8.778c12.729,2.181,34.62,1.526,56.87-10.75l1.486,2.7C679.953,284.208,662.95,287.544,650.89,287.544Z" transform="translate(-276.446 -128.496)" opacity="0.1"/>
    <path id="Path_564" data-name="Path 564" d="M694.129,271.61c-22.284,12.276-44.148,12.931-56.87,10.75a83.9,83.9,0,0,1-24.984-8.778l-1.634,2.606a85.265,85.265,0,0,0,25.95,9.19,80.887,80.887,0,0,0,13.816,1.182c12.06,0,29.036-3.329,45.242-12.242Zm-43.156,14.707a.338.338,0,1,0,0-.007Z" transform="translate(-275.955 -128.181)" fill="#f55f44"/>
    <path id="Path_565" data-name="Path 565" d="M665.3,298.827h0a3.417,3.417,0,0,0,3.417,3.417h0a3.417,3.417,0,0,0,3.417-3.417h0a3.417,3.417,0,0,0-3.417-3.417h0a3.417,3.417,0,0,0-3.417,3.417Zm3.417-1.708a.564.564,0,1,1,.007,0Z" transform="translate(-293.706 -135.91)" opacity="0.1" fill="url(#linear-gradient-9)"/>
    <path id="Path_566" data-name="Path 566" d="M665.81,298.989h0a3.079,3.079,0,0,0,3.079,3.079h0a3.079,3.079,0,0,0,3.079-3.079h0a3.079,3.079,0,0,0-3.079-3.079h0a3.079,3.079,0,0,0-3.079,3.079Zm3.079-1.54a.513.513,0,1,1,.513-.513A.513.513,0,0,1,668.889,297.45Z" transform="translate(-293.871 -136.072)" fill="#4d8af0"/>
    <path id="Path_567" data-name="Path 567" d="M691.9,273.13c-47.059,27.686-74.177,2.026-74.177,2.026Z" transform="translate(-278.254 -128.674)" fill="#ffd180"/>
    <path id="Path_568" data-name="Path 568" d="M719.89,339.673c-2.883-8.177-33.763,14.856-33.763,14.856l-7.138-.425-13.735-12.722,9.589-9.589-80.518-69.045a20.311,20.311,0,0,0-15.74-4.727l-66.938,8.346c-.29-3.835-2.654-8.393-6-13.046-6.867-11.263-21.325-23.978-26.659-28.5l-8.184-55.02,6.935-10.406a35.012,35.012,0,0,1-3.781-1.269l1.465-2.2-.54-.149.675-.8h-.081L492.753,135a7.576,7.576,0,0,0-.567-10.5L453.527,95.121a21.317,21.317,0,0,0,1.648-8.846c.3-5.834-2.309-11.756-11.067-16.139a85.426,85.426,0,0,0-16.935-5.983,55.574,55.574,0,0,0-29.279.432c-.155-.2-.324-.392-.5-.594-11.9-13.6-27.5,5.942-28.111,6.753l-60.989,67.836a12.391,12.391,0,0,0,3.052,16.517l32.284,24.208-.1.209,1.823,1.351c-1.35,2.7-3.234,4.524-5.7,4.8l4.943,2.471a5.685,5.685,0,0,1-2.633.993L364.6,200.448c0,11.763,1.215,65.615,20.339,92.051a48.882,48.882,0,0,0,6.948,8.981s1.627-.885,4.6-2.316L399.9,306a40,40,0,0,0,41.441,21.71l106.252-15.18-1.128,3.376.608-.088L512.633,419.137l5.686,1.9-.108.2.8.344-7.164,13.505L489.3,452.427s65.9,32.946,72.833,27.746-24.309-27.746-24.309-27.746l-1.735-6.935,7.583-16.01,6.354,2.12,51.063-102.126h0l1.735-3.471,34.56,43.216,9.744-9.737,1.053,1.067.088-.088,13.505,13.667,9.784,26.706S722.759,347.85,719.89,339.673ZM451.812,141.08l-.675-.783A64.768,64.768,0,0,1,431.609,155.9v-5.679l.385-.338v-2.471a37.477,37.477,0,0,0,10.6-38.051l22.432,17.226ZM375.677,77.045l-.54-.54.547.54Zm-17.928,36.113q-.223,2.7-.182,5.436a56.479,56.479,0,0,0,.439,7.921c1.155,9.177,4.443,16.679,11.216,20.258,5.9,3.106,9.784,2.937,12.256.817l.27.243a26.619,26.619,0,0,0,2.742,10.318,109.135,109.135,0,0,1-35.66-14.363s.04.459.088,1.283l-9.278-9.278Z" transform="translate(-177.151 -59.2)" fill="url(#linear-gradient-10)"/>
    <path id="Path_569" data-name="Path 569" d="M510.88,507.27l-15.16,28.638,23.58,10.1,15.16-32Z" transform="translate(-160.981 -164.734)" fill="#fda57d"/>
    <path id="Path_570" data-name="Path 570" d="M623.765,618.985l1.681,6.753s30.319,21.9,23.58,26.95-70.747-26.95-70.747-26.95l21.9-16.848Z" transform="translate(-265.447 -237.71)" fill="#333"/>
    <path id="Path_571" data-name="Path 571" d="M535.814,517.828l-23.857-7.948-7.1,13.4,23.58,10.109Z" transform="translate(-163.949 -165.582)" opacity="0.1"/>
    <path id="Path_572" data-name="Path 572" d="M677.69,417.984l22.77,23.053,16.713-19.468L691.188,397.51Z" transform="translate(-220.075 -129.091)" fill="#fda57d"/>
    <path id="Path_573" data-name="Path 573" d="M692.578,399.17l-13.5,20.481,8.63,8.731,17.509-17.509Z" transform="translate(-220.526 -129.63)" opacity="0.1"/>
    <path id="Path_574" data-name="Path 574" d="M843.126,484.774l6.935.412s29.981-22.358,32.784-14.417-46.924,59.423-46.924,59.423l-9.5-25.943Z" transform="translate(-346.028 -192.302)" fill="#333"/>
    <path id="Path_575" data-name="Path 575" d="M506.948,184.926l34.992-40.515a7.36,7.36,0,0,0-.554-10.2L465.244,76.5,456,90.924l59.011,45.425-25.052,27.469Z" transform="translate(-225.737 -64.82)" fill="#fda57d"/>
    <path id="Path_576" data-name="Path 576" d="M519.612,184.82,507.37,198.244l17.01,21.136,17.557-20.3a51.157,51.157,0,0,1-22.324-14.261Z" transform="translate(-242.419 -99.996)" opacity="0.1"/>
    <path id="Path_577" data-name="Path 577" d="M359.632,196.361,320.014,166.65a12.04,12.04,0,0,1-2.964-16.044L376.331,84.64l12.155,12.155-41.008,51.083,24.242,24.242Z" transform="translate(-180.013 -67.464)" fill="#fda57d"/>
    <path id="Path_578" data-name="Path 578" d="M368.59,224.593l6.482,4.862,12.155-24.242L371.966,190C372.29,195.159,373.2,215.207,368.59,224.593Z" transform="translate(-197.351 -101.679)" opacity="0.1"/>
    <path id="Path_579" data-name="Path 579" d="M533.2,359.311l-36.369,109.1L533.2,480.533l60.6-121.222L545.32,347.19Z" transform="translate(-161.342 -112.75)" fill="#4d8af0"/>
    <path id="Path_580" data-name="Path 580" d="M547.316,364.3l-1.816,5.456,38.186-5.456L598.6,382.952l9.325-18.651-48.49-12.121Z" transform="translate(-177.147 -114.37)" opacity="0.1"/>
    <path id="Path_581" data-name="Path 581" d="M405.61,79.358s15.531-20.028,27.328-6.55-18.529,15.16-18.529,15.16Z" transform="translate(-209.373 -62.107)" fill="#fda57d"/>
    <path id="Path_582" data-name="Path 582" d="M432.32,377.241l11.716,23.438a38.854,38.854,0,0,0,40.252,21.088l141.98-20.258,48.49,60.611,36.363-36.363-78.229-67.053a19.731,19.731,0,0,0-15.288-4.6Z" transform="translate(-218.047 -154.921)" fill="#4d8af0"/>
    <path id="Path_583" data-name="Path 583" d="M375.267,193.176s3.194,39.368-8.927,40.718l24.242,12.155s-1.35,71.382,24.242,96.974c0,0,47.14-25.592,96.974-24.242s-12.155-48.49-12.155-48.49l-8.184-55.182,6.753-10.129a50.644,50.644,0,0,1-23.58-15.16h0c-6.753,8.42-22.189,19.839-35.579,19.839h-5.794c-19.961,0-41.191-4.052-58.011-14.788Z" transform="translate(-196.621 -101.62)" opacity="0.1"/>
    <path id="Path_584" data-name="Path 584" d="M371.934,188.183s3.221,39.368-8.934,40.711l24.242,12.155s-1.351,71.381,24.242,96.974c0,0,47.14-25.592,96.974-24.242S496.3,265.29,496.3,265.29l-8.184-55.182,6.753-10.129a50.644,50.644,0,0,1-23.58-15.16h0c-6.753,8.42-22.189,19.839-35.579,19.839h-5.794c-19.961,0-41.191-5.719-58.011-16.476Z" transform="translate(-195.536 -99.996)" fill="#3ad29f"/>
    <path id="Path_585" data-name="Path 585" d="M423.52,173.36v13.505a25.861,25.861,0,0,0,7.574,18.284l28.8,28.8,9.582-19.171a24.04,24.04,0,0,0,2.539-10.75V173.36Z" transform="translate(-215.189 -96.275)" fill="#fda57d"/>
    <path id="Path_586" data-name="Path 586" d="M424.07,189.942c0,.5,0,.993.047,1.492a36.356,36.356,0,0,0,48.443-.041V176.41H424.07Z" transform="translate(-215.368 -97.265)" opacity="0.1"/>
    <circle id="Ellipse_164" data-name="Ellipse 164" cx="36.363" cy="36.363" r="36.363" transform="translate(196.21 28.608)" fill="#fda57d"/>
    <path id="Path_587" data-name="Path 587" d="M412.245,119.132h60.611s24.242-24.242,0-36.363a82.982,82.982,0,0,0-16.449-5.807c-36.862-9.346-71.915,21.142-67.175,58.876,1.121,8.913,4.315,16.206,10.892,19.657C425.71,168.945,412.245,119.132,412.245,119.132Z" transform="translate(-203.915 -64.418)" opacity="0.1"/>
    <path id="Path_588" data-name="Path 588" d="M412.245,116.642h60.611s24.242-24.242,0-36.363a82.982,82.982,0,0,0-16.449-5.807c-36.862-9.346-71.915,21.142-67.175,58.876,1.121,8.913,4.315,16.206,10.892,19.657C425.71,166.476,412.245,116.642,412.245,116.642Z" transform="translate(-203.915 -63.609)" fill="#333"/>
    <ellipse id="Ellipse_165" data-name="Ellipse 165" cx="3.37" cy="5.895" rx="3.37" ry="5.895" transform="translate(206.717 59.549)" fill="#fda57d"/>
    <path id="Path_589" data-name="Path 589" d="M283.68,205.5l1.688-5.058,5.051,3.37Z" transform="translate(-92.123 -65.094)" opacity="0.1"/>
    <path id="Path_590" data-name="Path 590" d="M549.3,304s-18.34,8.778-23.4,17.219" transform="translate(-248.437 -138.699)" opacity="0.1"/>
    <path id="Path_591" data-name="Path 591" d="M430.921,163.03l-1.681,5.051-3.37-5.051Z" transform="translate(-138.298 -52.945)" opacity="0.1"/>
    <path id="Path_592" data-name="Path 592" d="M412.245,116.642h60.611s24.242-24.242,0-36.363a82.982,82.982,0,0,0-16.449-5.807c-36.862-9.346-71.915,21.142-67.175,58.876,1.121,8.913,4.315,16.206,10.892,19.657C425.71,166.476,412.245,116.642,412.245,116.642Z" transform="translate(-203.915 -63.609)" fill="#333"/>
    <path id="Path_593" data-name="Path 593" d="M656.261,338.834s12.3,26.733-3.849,29.036-8.778-22.392-8.778-22.392-1.614-7.327-5.544-7.738" transform="translate(-284.869 -149.656)" opacity="0.1"/>
    <path id="Path_594" data-name="Path 594" d="M684.047,338.4s-14.619,25.538,1.256,29.239,10.73-21.52,10.73-21.52,2.255-7.151,6.212-7.219" transform="translate(-297.799 -149.87)" opacity="0.1"/>
    <path id="Path_595" data-name="Path 595" d="M654.158,337.714s12.3,26.733-3.849,29.036-8.778-22.392-8.778-22.392-1.614-7.347-5.53-7.759" transform="translate(-284.191 -149.286)" fill="#ffd180"/>
    <path id="Path_596" data-name="Path 596" d="M685.731,336.73s-14.646,25.545,1.256,29.218,10.73-21.52,10.73-21.52,2.255-7.151,6.212-7.219" transform="translate(-298.342 -149.328)" fill="#ffd180"/>
    <rect id="Rectangle_935" data-name="Rectangle 935" width="0.277" height="5.22" transform="translate(360.939 211.907)" fill="#58555d" opacity="0.5"/>
    <rect id="Rectangle_936" data-name="Rectangle 936" width="0.277" height="5.22" transform="translate(365.409 211.907)" fill="#58555d" opacity="0.5"/>
    <rect id="Rectangle_937" data-name="Rectangle 937" width="0.277" height="7.3" transform="translate(362.985 210.246)" fill="#58555d" opacity="0.5"/>
    <rect id="Rectangle_938" data-name="Rectangle 938" width="0.277" height="5.22" transform="translate(389.975 210.793)" fill="#58555d" opacity="0.5"/>
    <rect id="Rectangle_939" data-name="Rectangle 939" width="0.277" height="5.22" transform="translate(394.445 210.793)" fill="#58555d" opacity="0.5"/>
    <rect id="Rectangle_940" data-name="Rectangle 940" width="0.277" height="7.3" transform="translate(392.021 209.125)" fill="#58555d" opacity="0.5"/>
    <g id="Group_105" data-name="Group 105" transform="translate(330.284 446.173)" opacity="0.5">
      <circle id="Ellipse_166" data-name="Ellipse 166" cx="32.136" cy="32.136" r="32.136" transform="matrix(0.948, -0.318, 0.318, 0.948, 0, 20.436)" fill="url(#linear-gradient-11)"/>
    </g>
    <circle id="Ellipse_167" data-name="Ellipse 167" cx="30.083" cy="30.083" r="30.083" transform="matrix(0.948, -0.318, 0.318, 0.948, 332.883, 467.903)" fill="#f55f44"/>
    <g id="Group_106" data-name="Group 106" transform="translate(234.257 417.01)" opacity="0.5">
      <path id="Path_597" data-name="Path 597" d="M518.566,786.908c-4.322,1.452-9.7.419-11.709-3.727-1.155-2.4-.878-5.078-.608-7.671.3-2.843.547-5.294-1.053-6.881a7.286,7.286,0,0,0-2.85-1.492c-1.35-.452-2.809-.831-4.2-1.2a41.735,41.735,0,0,1-7.239-2.377c-4.592-2.154-7.529-5.794-7.853-9.737-.277-3.376,1.351-6.455,2.9-9.406s3.12-5.882,2.377-8.778c-1.006-3.91-5.7-5.767-9.832-7.428l-.675-.257c-5.051-2.026-10.466-6.3-9.116-11.783a11.636,11.636,0,0,1,2.85-4.727,14.353,14.353,0,0,0,2.026-2.9c1.823-3.842-.675-8.285-1.789-10.021a44.885,44.885,0,0,0-2.9-3.829,37.023,37.023,0,0,1-4.139-5.861l-.189-.351c-2.742-5.186-2.8-5.4-2.566-11.054v-.675l2.39.095v.675c-.2,5.125-.2,5.125,2.289,9.839l.189.351a34.7,34.7,0,0,0,3.883,5.476c1.033,1.276,2.1,2.6,3.039,4.011,2.9,4.382,3.606,8.886,1.952,12.364a16.342,16.342,0,0,1-2.377,3.376A10.088,10.088,0,0,0,471,716.742c-1.053,4.261,4.328,7.651,7.678,8.988l.641.257c4.436,1.756,9.96,3.944,11.27,9.028.972,3.775-.831,7.178-2.58,10.473-1.465,2.769-2.856,5.4-2.633,8.1.3,3.626,3.545,6.388,6.482,7.772a39.312,39.312,0,0,0,6.827,2.228c1.431.371,2.91.763,4.355,1.242a9.36,9.36,0,0,1,3.781,2.066c2.411,2.39,2.073,5.665,1.749,8.832-.243,2.363-.479,4.6.385,6.381,1.56,3.228,6.395,3.7,9.758,2.114,2.755-1.3,4.923-3.5,7.219-5.834.743-.756,1.513-1.533,2.3-2.276,4.281-4.052,8.61-5.821,12.526-5.139a17.668,17.668,0,0,1,3.613,1.168,17.853,17.853,0,0,0,2.789.959,8.6,8.6,0,0,0,9.825-6.293c.088-.4.148-.817.216-1.256a7.6,7.6,0,0,1,1.567-4.234,7.889,7.889,0,0,1,4.16-1.978l13.032-3.012.54,2.33-13.032,3.012a5.641,5.641,0,0,0-2.924,1.256,5.724,5.724,0,0,0-.966,2.978c-.068.459-.142.939-.243,1.411a10.986,10.986,0,0,1-12.681,8.1,19.91,19.91,0,0,1-3.167-1.08,15.638,15.638,0,0,0-3.126-1.026c-3.971-.675-7.88,2.073-10.466,4.517-.75.709-1.506,1.479-2.235,2.215-2.343,2.377-4.761,4.842-7.9,6.32A11.22,11.22,0,0,1,518.566,786.908Z" transform="translate(-461.914 -676.76)" fill="url(#linear-gradient-12)"/>
    </g>
    <path id="Path_598" data-name="Path 598" d="M519.046,785.148c-4.322,1.452-9.7.419-11.709-3.727-1.155-2.4-.878-5.078-.608-7.671.3-2.843.547-5.294-1.053-6.881a7.285,7.285,0,0,0-2.85-1.492c-1.351-.452-2.809-.831-4.2-1.2a41.735,41.735,0,0,1-7.239-2.377c-4.592-2.154-7.529-5.794-7.853-9.737-.277-3.376,1.351-6.455,2.9-9.406s3.12-5.882,2.377-8.778c-1.006-3.91-5.7-5.767-9.832-7.428l-.675-.257c-5.051-2.026-10.466-6.3-9.116-11.783a11.636,11.636,0,0,1,2.85-4.727,14.357,14.357,0,0,0,2.026-2.9c1.823-3.842-.675-8.285-1.789-10.021a44.885,44.885,0,0,0-2.9-3.829,37.016,37.016,0,0,1-4.139-5.861l-.189-.351c-2.742-5.186-2.8-5.4-2.566-11.054V675l2.39.095v.675c-.2,5.125-.2,5.125,2.289,9.839l.189.351a34.685,34.685,0,0,0,3.883,5.476c1.033,1.276,2.1,2.6,3.039,4.011,2.9,4.382,3.606,8.886,1.952,12.364a16.341,16.341,0,0,1-2.377,3.376,10.088,10.088,0,0,0-2.363,3.795c-1.053,4.261,4.328,7.651,7.678,8.988l.642.257c4.436,1.756,9.96,3.943,11.27,9.028.972,3.775-.831,7.178-2.579,10.473-1.465,2.769-2.856,5.4-2.634,8.1.3,3.626,3.545,6.388,6.482,7.772a39.324,39.324,0,0,0,6.827,2.228c1.432.371,2.91.763,4.355,1.242a9.359,9.359,0,0,1,3.781,2.066c2.411,2.39,2.073,5.665,1.749,8.832-.243,2.363-.479,4.6.385,6.381,1.56,3.228,6.395,3.7,9.757,2.114,2.755-1.3,4.923-3.5,7.219-5.834.743-.756,1.513-1.533,2.3-2.276,4.281-4.052,8.61-5.821,12.526-5.139a17.67,17.67,0,0,1,3.613,1.168,17.853,17.853,0,0,0,2.789.959,8.6,8.6,0,0,0,9.825-6.293c.088-.4.148-.817.216-1.256a7.6,7.6,0,0,1,1.567-4.234,7.888,7.888,0,0,1,4.16-1.979l13.032-3.012.54,2.33-13.032,3.012a5.64,5.64,0,0,0-2.924,1.256,5.724,5.724,0,0,0-.966,2.978c-.068.459-.142.939-.243,1.411a10.986,10.986,0,0,1-12.681,8.1,19.9,19.9,0,0,1-3.167-1.08,15.635,15.635,0,0,0-3.126-1.026c-3.97-.675-7.88,2.073-10.466,4.518-.75.709-1.506,1.479-2.235,2.215-2.343,2.377-4.761,4.842-7.9,6.32A11.239,11.239,0,0,1,519.046,785.148Z" transform="translate(-227.814 -259.178)" fill="#f55f44"/>
    <path id="Path_599" data-name="Path 599" d="M661.78,748.432s16.645-2.519,24.8,20.71" transform="translate(-292.563 -282.999)" fill="none" stroke="#000" stroke-miterlimit="10" stroke-width="1" opacity="0.2"/>
    <path id="Path_600" data-name="Path 600" d="M632.848,785.585s-12.357-17.489,9.663-36.775" transform="translate(-282.045 -283.148)" fill="none" stroke="#000" stroke-miterlimit="10" stroke-width="1" opacity="0.2"/>
    <path id="Path_601" data-name="Path 601" d="M640.766,785.441s-5.963-9.177.29-17.4" transform="translate(-284.905 -289.393)" fill="none" stroke="#000" stroke-miterlimit="10" stroke-width="1" opacity="0.2"/>
    <path id="Path_602" data-name="Path 602" d="M657.81,762.88s7.894,3.12,9,17.172" transform="translate(-291.273 -287.717)" fill="none" stroke="#000" stroke-miterlimit="10" stroke-width="1" opacity="0.2"/>
    <path id="Path_603" data-name="Path 603" d="M671.53,738.52s12.33,2.357,20.933,19.312" transform="translate(-295.729 -279.806)" fill="none" stroke="#000" stroke-miterlimit="10" stroke-width="1" opacity="0.2"/>
    <path id="Path_604" data-name="Path 604" d="M648,745.165s5.828-4.119,11.236-1.965" transform="translate(-288.088 -281.124)" fill="none" stroke="#000" stroke-miterlimit="10" stroke-width="1" opacity="0.2"/>
    <path id="Path_605" data-name="Path 605" d="M654.52,799.506s7.792,4.956,27.875-9.346" transform="translate(-290.205 -296.576)" fill="none" stroke="#000" stroke-miterlimit="10" stroke-width="1" opacity="0.2"/>
    <path id="Path_606" data-name="Path 606" d="M652.47,818.6s4.875,4.855,15.025.729" transform="translate(-289.539 -305.811)" fill="none" stroke="#000" stroke-miterlimit="10" stroke-width="1" opacity="0.2"/>
    <path id="Path_607" data-name="Path 607" d="M628.9,754.77a26.335,26.335,0,0,0-3.633,21.412" transform="translate(-280.423 -285.083)" fill="none" stroke="#000" stroke-miterlimit="10" stroke-width="1" opacity="0.2"/>
    <path id="Path_608" data-name="Path 608" d="M640.737,801.17s-.641,4.544,4.443,6.8" transform="translate(-285.721 -300.151)" fill="none" stroke="#000" stroke-miterlimit="10" stroke-width="1" opacity="0.2"/>
    <path id="Path_609" data-name="Path 609" d="M698.122,793.38s-.311,8.778-5.172,9.305" transform="translate(-302.685 -297.622)" fill="none" stroke="#000" stroke-miterlimit="10" stroke-width="1" opacity="0.2"/>
    <path id="Path_610" data-name="Path 610" d="M661.1,809.9a19.461,19.461,0,0,0,16.206-5.4" transform="translate(-292.342 -301.233)" fill="none" stroke="#000" stroke-miterlimit="10" stroke-width="1" opacity="0.2"/>
    <path id="Path_611" data-name="Path 611" d="M672.22,766.06a9.485,9.485,0,0,1,3.8,8.1" transform="translate(-295.953 -288.75)" fill="none" stroke="#000" stroke-miterlimit="10" stroke-width="1" opacity="0.2"/>
    <path id="Path_612" data-name="Path 612" d="M648.272,774.59s-1.175,6.165,1.857,9.832" transform="translate(-288.103 -291.52)" fill="none" stroke="#000" stroke-miterlimit="10" stroke-width="1" opacity="0.2"/>
    <path id="Path_613" data-name="Path 613" d="M653.66,772.82s4.335,5.4,3.153,9.4" transform="translate(-289.926 -290.945)" fill="none" stroke="#000" stroke-miterlimit="10" stroke-width="1" opacity="0.2"/>
  </g>
</svg>
