<svg xmlns="http://www.w3.org/2000/svg" xmlns:xlink="http://www.w3.org/1999/xlink" width="458.907" height="338.5" viewBox="0 0 458.907 338.5">
  <defs>
    <linearGradient id="linear-gradient" x1="0.5" y1="1" x2="0.5" gradientUnits="objectBoundingBox">
      <stop offset="0" stop-color="gray" stop-opacity="0.251"/>
      <stop offset="0.54" stop-color="gray" stop-opacity="0.122"/>
      <stop offset="1" stop-color="gray" stop-opacity="0.102"/>
    </linearGradient>
  </defs>
  <g id="Group_120" data-name="Group 120" transform="translate(0.009 -0.004)">
    <path id="Path_687" data-name="Path 687" d="M61.83,433.31c7.246,28.005,22.573,52.214,46.795,63.949,50.353,24.388,163.913,11.81,248.667-2.628,43.841-7.467,82.376-28.076,110.368-57.078Z" transform="translate(-56.896 -271.017)" fill="#6c63ff" opacity="0.1"/>
    <path id="Path_688" data-name="Path 688" d="M522.634,74.759h-46.5a3.654,3.654,0,1,1,0-7.271h8.043a3.654,3.654,0,1,1,0-7.271h-5.74a3.654,3.654,0,1,1,0-7.271h24.271a69.554,69.554,0,0,0-18.936-4.722c-66.185-7.689-89.814-2.6-98.149,2.624A97.836,97.836,0,0,1,351.6,64.338c-40.833,7.622-117.2,16.791-186.412-2.92-34.4-9.816-59.969,6.75-75.292,34.442H530.71a59.839,59.839,0,0,0-5.461-21.985,4.242,4.242,0,0,1-2.616.884Z" transform="translate(-73.256 -44.29)" fill="#6c63ff" opacity="0.1"/>
    <path id="Path_689" data-name="Path 689" d="M50.982,293.19a167.928,167.928,0,0,0,1.8,48.86l408.283,13.512a173.216,173.216,0,0,0,28.368-39.14Zm161.481,34.855h-8.039a3.654,3.654,0,1,1,0,7.271h-46.5a3.654,3.654,0,1,1,0-7.271h8.043a3.654,3.654,0,1,1,0-7.271H160.22a3.654,3.654,0,1,1,0-7.271h46.5a3.654,3.654,0,1,1,0,7.271h5.74a3.654,3.654,0,1,1,0,7.271Z" transform="translate(-49.99 -189.352)" fill="#6c63ff" opacity="0.1"/>
    <path id="Path_690" data-name="Path 690" d="M508.941,168.5,63.2,178.3A147.889,147.889,0,0,0,52.52,219.95H501.132a158.233,158.233,0,0,0,6.475-26.545A113.633,113.633,0,0,0,508.941,168.5ZM143.022,200.644h-8.039a3.656,3.656,0,1,1,0,7.276h-46.5a3.656,3.656,0,1,1,0-7.276h8.043a3.654,3.654,0,1,1,0-7.271H90.779a3.654,3.654,0,1,1,0-7.271h46.5a3.654,3.654,0,1,1,0,7.271h5.74a3.654,3.654,0,1,1,0,7.271Z" transform="translate(-51.47 -116.68)" fill="#6c63ff" opacity="0.1"/>
    <ellipse id="Ellipse_178" data-name="Ellipse 178" cx="186.47" cy="17.154" rx="186.47" ry="17.154" transform="translate(40.92 291.543)" fill="#6c63ff" opacity="0.1"/>
    <path id="Path_691" data-name="Path 691" d="M924.182,365.124a.636.636,0,0,1,0-.088v-.129h0a3.561,3.561,0,0,0-.53-1.339,10.55,10.55,0,0,0-3.863-3.654c-2.753-1.51-6.537-2.157-7.639-5.039a15.389,15.389,0,0,1-.513-2.8,8.465,8.465,0,0,0-5.586-6.354c-1.31-.438-2.724-.559-4-1.1-2.845-1.21-4.347-4.193-5.619-6.95q-2.47-5.34-4.939-10.684a4.154,4.154,0,0,1-4.042-.455,8.386,8.386,0,0,1-2.616-3.233c-1.7-3.3-2.428-7.029-4.422-10.167s-5.978-5.615-9.5-4.251a16.209,16.209,0,0,1-2.128.88c-3.016.705-6.354-2.741-8.936-1.068a2.921,2.921,0,0,0-1.014,1.11.5.5,0,0,1,0-.083,5.334,5.334,0,0,0-.551,2.178h0v.526c0,.6.038,1.21.046,1.819a8.1,8.1,0,0,1-.117,1.527v-.042a5.151,5.151,0,0,1-.217.834c-.672,1.8-2.532,2.983-3.4,4.677v-.083a4.413,4.413,0,0,0-.254.572,4.256,4.256,0,0,0-.238,1.381c-.075,3.183,3.3,6.178,3.692,9.6.279,2.42.834,3.2,2.891,4.564l.451.3c-.179,0-.363.025-.567.029a1.385,1.385,0,0,0-.238.025,2.545,2.545,0,0,0-2.144.375c-1.577,1.251-5.306.288-6.963,0s-7.33.488-8.122,3.634-2.153,9.637-2.153,9.637,0,4.118-.5,4.885a.246.246,0,0,0,0,.167c0,1.156.042,8.1-1.076,9.891a4.042,4.042,0,0,0-.05,2.474c-1.176,1.514-2.282,3.283-2.086,4.443.359,2.374,5.173,9.837,12.073,5.841,0,0,3.926-7.18-1.014-11l.213-.834c1.494,1.836,2.6,3.154,2.6,3.154s.058.154.15.417h-.15a19.607,19.607,0,0,1,1.16,5.457,6.677,6.677,0,0,1-.367,2.007h.129c-.038.142-.079.284-.129.417a3.637,3.637,0,0,1-1.3,1.756c-3.45,2.445-7.4,19.9-7.4,19.9s-7.826,28.222-9.391,29.828c-1.293,1.318,6.833,5.031,12.932,4.589a9.952,9.952,0,0,0,2.5-.476c.038.417.079.834.121,1.214.129,1.252.263,2.411.346,2.774.217.909.647,10.2.647,10.2a65.517,65.517,0,0,0-.667,10.229c0,.288.038.563.063.834l-.759.117c-1.151,2.586,3.592,24.167,4.239,25.982a17.277,17.277,0,0,1,.718,4.4,4.8,4.8,0,0,0-.071,2.374,5.77,5.77,0,0,1,.417,1.606,4.422,4.422,0,0,0,.146,2.3,4.358,4.358,0,0,1-.071,2.5s-.142,6.287-1.435,9.708a5.59,5.59,0,0,0,.9,5.54,3.418,3.418,0,0,0,.292.338s7.134.058,8.389,0h.163c.5-.071,1.8-5.728.647-8.452a10.282,10.282,0,0,1-.142-6.078V494.82s1.293-1.193,0-3.755-1.08-3.337-1.08-3.337,1.439-4.122-.071-5.448.288-6.358.288-6.358l.509-16.771a6.59,6.59,0,0,0-.813-.209c-.029-.275-.058-.559-.088-.859-.3-3.037-.551-7.167.108-8.344s.976-11.447,1.081-18.585l6.575.25c.138,3.337.284,6.383.375,6.771.217.909.651,10.2.651,10.2a65.292,65.292,0,0,0-.672,10.229c0,.288.038.563.063.834l-.759.117c-1.151,2.586,3.592,24.167,4.239,25.982a17.374,17.374,0,0,1,.722,4.4,4.835,4.835,0,0,0-.075,2.374,5.774,5.774,0,0,1,.417,1.606,4.422,4.422,0,0,0,.146,2.3,4.358,4.358,0,0,1-.071,2.5s-.142,6.287-1.435,9.708a5.59,5.59,0,0,0,.926,5.532,3.41,3.41,0,0,0,.292.338s7.134.058,8.389,0h.163c.5-.071,1.8-5.728.647-8.452a10.282,10.282,0,0,1-.142-6.078V494.82s1.293-1.193,0-3.755-1.081-3.337-1.081-3.337,1.439-4.122-.071-5.448.288-6.358.288-6.358l.517-16.771a6.41,6.41,0,0,0-.834-.209c-.029-.275-.058-.559-.088-.859-.3-3.037-.551-7.167.108-8.344.53-.964.834-7.171.972-13.233,0-.417,0-.834.033-1.252a64.707,64.707,0,0,0,9-1.01s-3.517-12.436-2.441-14.459c.463-.872-.2-5.515-1.118-10.517a7.309,7.309,0,0,0,4.5,1.627c1.573,3.025,6.358,9.983,9.053,11.055,3.162,1.252.789-9.845-.718-11.452a13.51,13.51,0,0,1-1.786-2.866c.042-.05.088-.092.129-.138s.075-11.806-.647-11.593-1.581-1.748-1.581-1.748L895.576,374.6l-.935-8.185h0c.78.576,1.706.943,2.5,1.514,2.169,1.589,2.878,4.38,3.83,6.85a11.252,11.252,0,0,0,3.692,5.323,5.58,5.58,0,0,0,6.258.321c1.669-1.214,2.161-3.4,2.528-5.4,3.029,1.064,6.7-1.781,6.312-4.889-.1-.768-.38-1.606.021-2.278.8-1.327,3.337-.555,4.172-1.865a1.394,1.394,0,0,0,.209-.755A.52.52,0,0,0,924.182,365.124Zm-40.512,10.755c-.046.747.98,6.746,1.815,11.493a14.568,14.568,0,0,0-4.76-8.281,3.745,3.745,0,0,0-.033-.417h.033s-.113-1.193-.129-2.891a31.839,31.839,0,0,1,.334-4.5v-.038h-.054a2.376,2.376,0,0,1,.054-.38,13.559,13.559,0,0,1,1.014-3.646,10.106,10.106,0,0,1,.772-1.31c.446,4.034,1,9.211.955,9.966Zm2.244,13.9c.367,2.048.63,3.488.63,3.488l2.215,15.21v.071c-1.193-6.42-2.716-13.187-2.716-13.187a26.276,26.276,0,0,0-.129-5.582Z" transform="translate(-506.743 -198.117)" fill="url(#linear-gradient)"/>
    <path id="Path_692" data-name="Path 692" d="M888.831,334.83c-.417-3.855-4.589-7.18-3.337-10.847.68-2,2.808-3.221,3.525-5.206a12.161,12.161,0,0,0,.267-4.143c0-1.393.33-2.949,1.489-3.721,2.5-1.669,5.724,1.765,8.644,1.064a15.291,15.291,0,0,0,2.057-.876c3.408-1.356,7.263,1.114,9.178,4.234s2.632,6.842,4.276,10.121a8.3,8.3,0,0,0,2.528,3.216,3.93,3.93,0,0,0,3.913.455l4.777,10.638c1.252,2.741,2.687,5.711,5.423,6.917,1.226.538,2.595.659,3.863,1.1a8.343,8.343,0,0,1,5.423,6.32,15.576,15.576,0,0,0,.5,2.791c1.064,2.87,4.722,3.513,7.388,5.006a10.334,10.334,0,0,1,3.755,3.634,2.407,2.407,0,0,1,.33,2.378c-.805,1.3-3.254.534-4.03,1.856a3.465,3.465,0,0,0,0,2.269,4.824,4.824,0,0,1-6.107,4.864c-.355,1.99-.834,4.172-2.445,5.377a5.255,5.255,0,0,1-6.045-.317,11.181,11.181,0,0,1-3.567-5.3c-.922-2.461-1.61-5.24-3.709-6.821-.759-.567-1.669-.934-2.411-1.506-1.669-1.277-2.5-3.383-3.1-5.423a56.749,56.749,0,0,0-2.5-7.563,11.384,11.384,0,0,0-5.311-5.736c-2.274-1.022-4.893-.955-7.242-1.785C902.315,346.4,899.323,343,895.3,341.4a17.894,17.894,0,0,1-3.629-2.053C889.649,338.013,889.1,337.241,888.831,334.83Z" transform="translate(-536.81 -199.412)" fill="#3f3d56"/>
    <g id="Group_119" data-name="Group 119" transform="translate(348.48 112.515)" opacity="0.1">
      <path id="Path_693" data-name="Path 693" d="M894.72,320.022a4.215,4.215,0,0,0,.225-.5,12.267,12.267,0,0,0,.267-4.143,7.437,7.437,0,0,1,.129-1.385,5.841,5.841,0,0,0-.546,2.637A19.193,19.193,0,0,1,894.72,320.022Z" transform="translate(-890.803 -313.99)"/>
      <path id="Path_694" data-name="Path 694" d="M940.677,398.969a5.255,5.255,0,0,1-6.045-.321,11,11,0,0,1-3.55-5.3c-.922-2.461-1.606-5.24-3.709-6.821-.755-.567-1.669-.939-2.407-1.506-1.669-1.277-2.5-3.383-3.1-5.4a56.147,56.147,0,0,0-2.5-7.563,11.384,11.384,0,0,0-5.311-5.736c-2.269-1.022-4.889-.955-7.238-1.786-4.047-1.427-7.038-4.827-11.055-6.429a18.126,18.126,0,0,1-3.634-2.052c-1.977-1.364-2.5-2.136-2.8-4.543-.417-3.613-4.088-6.762-3.517-10.167a5.3,5.3,0,0,0-.246.567c-1.251,3.671,2.92,7,3.337,10.847.271,2.407.834,3.179,2.8,4.543a18.128,18.128,0,0,0,3.634,2.053c4.017,1.6,7.009,5.006,11.055,6.429,2.349.834,4.969.763,7.238,1.786a11.472,11.472,0,0,1,5.311,5.736,51.147,51.147,0,0,1,2.5,7.563c.613,2.019,1.418,4.126,3.1,5.4.755.567,1.669.939,2.407,1.506,2.086,1.581,2.787,4.359,3.709,6.821a11.177,11.177,0,0,0,3.571,5.294,5.262,5.262,0,0,0,6.045.321,6.161,6.161,0,0,0,2.04-3.471A5.122,5.122,0,0,1,940.677,398.969Z" transform="translate(-885.331 -329.93)"/>
      <path id="Path_695" data-name="Path 695" d="M1038.261,447.275a1.757,1.757,0,0,0-.2.976c.943-.93,3.07-.384,3.813-1.581a1.521,1.521,0,0,0,.192-.98C1041.1,446.608,1038.971,446.061,1038.261,447.275Z" transform="translate(-974.342 -390.748)"/>
      <path id="Path_696" data-name="Path 696" d="M1023.5,463.041c-.079.417-.159.864-.259,1.3a4.9,4.9,0,0,0,5.92-3.838A4.852,4.852,0,0,1,1023.5,463.041Z" transform="translate(-965.707 -399.379)"/>
    </g>
    <path id="Path_697" data-name="Path 697" d="M901.1,370.356s1.389,2.8-2.712,2.862,2.641,18.206,2.641,18.206l6.817,8.677,8.481-4.589.488-12.657.626-7.647s-7.926-2.574-6.466-5.978S901.1,370.356,901.1,370.356Z" transform="translate(-543.692 -232.931)" fill="#fbbebe"/>
    <path id="Path_698" data-name="Path 698" d="M965.75,542.16s5.006,4.927,10.847-1.61l-4.485-4.76h-5.674Z" transform="translate(-583.721 -330.745)" fill="#575a89"/>
    <path id="Path_699" data-name="Path 699" d="M966.088,535.79l-.688,6.37s5.006,4.927,10.847-1.61" transform="translate(-583.517 -330.745)" opacity="0.1"/>
    <path id="Path_700" data-name="Path 700" d="M979.471,537.87s2.015,5.286,3.475,6.883,3.755,12.653.7,11.4-8.9-10.567-9.249-12.165a54.085,54.085,0,0,1-.484-6.12Z" transform="translate(-588.477 -331.957)" fill="#fbbebe"/>
    <path id="Path_701" data-name="Path 701" d="M832.42,543.718l26.975,1.043-3.129-11.406-13.587-.275Z" transform="translate(-485.159 -310.689)" fill="#575a89"/>
    <path id="Path_702" data-name="Path 702" d="M841.41,543.718l26.979,1.043-3.129-11.406-13.592-.275Z" transform="translate(-490.398 -310.689)" opacity="0.1"/>
    <path id="Path_703" data-name="Path 703" d="M885.893,612.471c-.638,1.189-.392,5.3-.1,8.344.184,1.936.384,3.425.384,3.425s-10.083,3.129-11.61.417a8.247,8.247,0,0,1-.647-3.308,66.719,66.719,0,0,1,.647-10.183s-.417-9.245-.626-10.15c-.083-.363-.213-1.514-.338-2.762-.184-1.852-.359-3.913-.359-3.913l13.767-7.3s0,1.368-.025,3.475C886.907,597.132,886.686,611.011,885.893,612.471Z" transform="translate(-529.804 -360.615)" fill="#fbbebe"/>
    <path id="Path_704" data-name="Path 704" d="M887.117,671.09s-10.083,3.129-11.61.417a8.248,8.248,0,0,1-.647-3.308c2.086-.317,8.435-1.193,11.873-.534C886.916,669.6,887.117,671.09,887.117,671.09Z" transform="translate(-530.748 -407.465)" opacity="0.1"/>
    <path id="Path_705" data-name="Path 705" d="M886.276,724.82h-.158c-1.214.046-8.114,0-8.114,0a3.771,3.771,0,0,1-.284-.334,5.69,5.69,0,0,1-.9-5.507c1.252-3.408,1.389-9.666,1.389-9.666a4.48,4.48,0,0,0,.071-2.5,4.518,4.518,0,0,1-.142-2.294,5.944,5.944,0,0,0-.417-1.6,4.767,4.767,0,0,1,.071-2.365,17.709,17.709,0,0,0-.7-4.38c-.626-1.806-5.215-23.291-4.1-25.865,0,0,9.733-1.669,13.421-.417l-.488,16.687s-1.74,5.006-.279,6.329.071,5.423.071,5.423-.209.763,1.043,3.337,0,3.755,0,3.755v4.935a10.555,10.555,0,0,0,.138,6.049C888.012,719.117,886.764,724.732,886.276,724.82Z" transform="translate(-529.562 -408.63)" fill="#3f3d56"/>
    <path id="Path_706" data-name="Path 706" d="M933.183,609.5c-.638,1.189-.392,5.3-.1,8.344.184,1.936.384,3.425.384,3.425s-10.083,3.129-11.61.417a8.247,8.247,0,0,1-.647-3.308,66.714,66.714,0,0,1,.647-10.183s-.417-9.245-.626-10.15c-.113-.488-.309-5.144-.463-9.32-.129-3.563-.234-6.783-.234-6.783l13.767,2.128s0,6.053-.171,12.273C933.976,602.373,933.7,608.556,933.183,609.5Z" transform="translate(-557.366 -357.642)" fill="#fbbebe"/>
    <path id="Path_707" data-name="Path 707" d="M934.407,671.09s-10.083,3.129-11.61.417a8.248,8.248,0,0,1-.647-3.308c2.086-.317,8.435-1.193,11.873-.534C934.206,669.6,934.407,671.09,934.407,671.09Z" transform="translate(-558.31 -407.465)" opacity="0.1"/>
    <path id="Path_708" data-name="Path 708" d="M933.549,724.8h-.159c-1.214.046-8.114,0-8.114,0a3.753,3.753,0,0,1-.284-.334,5.69,5.69,0,0,1-.9-5.507c1.252-3.425,1.377-9.683,1.377-9.683a4.479,4.479,0,0,0,.071-2.5,4.518,4.518,0,0,1-.142-2.294,5.946,5.946,0,0,0-.417-1.6,4.767,4.767,0,0,1,.071-2.365,17.7,17.7,0,0,0-.7-4.38c-.626-1.806-5.215-23.291-4.1-25.865,0,0,9.733-1.669,13.421-.417l-.488,16.687s-1.74,5.006-.28,6.328.071,5.423.071,5.423-.209.763,1.043,3.337,0,3.755,0,3.755v4.935a10.554,10.554,0,0,0,.138,6.049C935.272,719.077,934.037,724.709,933.549,724.8Z" transform="translate(-557.106 -408.607)" fill="#3f3d56"/>
    <circle id="Ellipse_179" data-name="Ellipse 179" cx="9.804" cy="9.804" r="9.804" transform="translate(353.031 121.097)" opacity="0.1"/>
    <circle id="Ellipse_180" data-name="Ellipse 180" cx="9.804" cy="9.804" r="9.804" transform="translate(353.031 120.679)" fill="#fbbebe"/>
    <path id="Path_709" data-name="Path 709" d="M873.24,594.341l13.767-7.3s0,1.368-.025,3.475c-2.011,1.2-5.044,3.008-7.96,4.714-1.585.93-3.133,1.831-4.46,2.586a5.93,5.93,0,0,1-.964.417C873.415,596.4,873.24,594.341,873.24,594.341Z" transform="translate(-529.804 -360.615)" opacity="0.1"/>
    <path id="Path_710" data-name="Path 710" d="M934.32,584.028s0,6.053-.171,12.273h-.05a23.158,23.158,0,0,1-3.083-.1c-1.8-.192-3.237-.667-3.755-1.61-1.047-1.836-3.98-4.172-6.458-5.911-.129-3.563-.234-6.783-.234-6.783Z" transform="translate(-557.389 -357.619)" opacity="0.1"/>
    <path id="Path_711" data-name="Path 711" d="M883.485,412.69a39.708,39.708,0,0,0-.2,8.189c6.324,5.215,5.144,16.2,5.144,16.2s4.868,22.252,3.826,24.267,2.361,14.393,2.361,14.393a60.7,60.7,0,0,1-8.79,1.01,23.153,23.153,0,0,1-3.083-.1c-1.8-.192-3.237-.668-3.755-1.61-1.944-3.4-10.359-8.481-10.359-8.481s-5.332,3.2-10.3,6.1c-1.585.93-3.133,1.831-4.46,2.586a8.276,8.276,0,0,1-3.483.955c-5.9.438-13.767-3.258-12.515-4.568,1.531-1.6,9.111-29.691,9.111-29.691s3.821-17.384,7.159-19.816a3.609,3.609,0,0,0,1.252-1.748c1.143-3.175-.768-8.264-.768-8.264s-10.776-13.279-10.292-14.046.488-4.864.488-4.864,1.322-6.466,2.086-9.6,6.258-3.9,7.855-3.617,5.211,1.252,6.737,0,4.105.488,4.105.488l6.333,1.744,5.695-3.337s5.707.292,6.2,1.055,8,2.228,8,2.228c3.821,2.57,3.684,14.81,3.684,14.81s-9.178,7.993-11.055,12.1A13.794,13.794,0,0,0,883.485,412.69Z" transform="translate(-509.115 -239.3)" fill="#575a89"/>
    <path id="Path_712" data-name="Path 712" d="M958.995,418.2l2.086,1.669,2.157,19.4,2.153,19.47s.834,1.948,1.531,1.74.626,11.539.626,11.539-7.985-4.91-10.847,1.61L954.473,457.9s-2.854-16.061-2.783-17.313-1.46-14.81-1.46-14.81Z" transform="translate(-574.675 -262.211)" fill="#575a89"/>
    <path id="Path_713" data-name="Path 713" d="M853.368,420.37l-1.531,1.877s.142,8.064-1.043,10.012,3.271,13.35,4.939,12.653,5.423-18.493,5.423-18.7S853.368,420.37,853.368,420.37Z" transform="translate(-516.607 -263.475)" fill="#575a89"/>
    <path id="Path_714" data-name="Path 714" d="M850.568,447.87s-4.868,4.935-4.522,7.3,5.006,9.8,11.681,5.8C857.726,460.974,863.917,449.33,850.568,447.87Z" transform="translate(-513.944 -279.503)" fill="#575a89"/>
    <path id="Path_715" data-name="Path 715" d="M892.958,800.714c-1.214.046-8.114,0-8.114,0a3.742,3.742,0,0,1-.284-.334C886.325,799.78,890.138,798.878,892.958,800.714Z" transform="translate(-536.402 -484.512)" opacity="0.1"/>
    <path id="Path_716" data-name="Path 716" d="M940.268,800.714c-1.214.046-8.114,0-8.114,0a3.762,3.762,0,0,1-.284-.334C933.626,799.78,937.439,798.878,940.268,800.714Z" transform="translate(-563.975 -484.512)" opacity="0.1"/>
    <path id="Path_717" data-name="Path 717" d="M876.464,509.11c-1.064,10.2-.713,30.454-.492,39.448-1.585.93-3.133,1.831-4.46,2.586a8.276,8.276,0,0,1-3.483.955C867.586,549.38,873.71,521.442,876.464,509.11Z" transform="translate(-526.753 -315.195)" opacity="0.1"/>
    <path id="Path_718" data-name="Path 718" d="M889.582,495.23c-.029.146-.534,2.365-1.3,5.79C888.58,498.1,889,496,889.582,495.23Z" transform="translate(-538.57 -307.106)" opacity="0.1"/>
    <path id="Path_719" data-name="Path 719" d="M915.8,492.59s5.911,37.129-11.593,41.718C904.206,534.291,916.321,532.451,915.8,492.59Z" transform="translate(-547.854 -305.567)" opacity="0.1"/>
    <path id="Path_720" data-name="Path 720" d="M942.1,542.4a23.147,23.147,0,0,1-3.083-.1L934.29,491.54C937.3,493.509,940.906,529.536,942.1,542.4Z" transform="translate(-565.385 -304.955)" opacity="0.1"/>
    <path id="Path_721" data-name="Path 721" d="M899.169,334.635a2.582,2.582,0,0,1,.93.1,4.059,4.059,0,0,1,1.176.884,4.193,4.193,0,0,0,3.98.772,5.249,5.249,0,0,1,1.5-.417,2.386,2.386,0,0,1,1.9,1.252c.413.667.626,1.46.98,2.173a2.732,2.732,0,0,0,1.7,1.564,2.978,2.978,0,0,1,1.085.25,1.535,1.535,0,0,1,.467.647c.651,1.406,1.168,3.066,2.557,3.755a3.825,3.825,0,0,0,1.631.355,3.408,3.408,0,0,0,1.669-.3,3.2,3.2,0,0,0,1.226-1.222,7.623,7.623,0,0,0,.763-4.877,13.416,13.416,0,0,0-2.182-5.866,12.244,12.244,0,0,0-11.2-5.169,15.617,15.617,0,0,0-2.232.417,12.194,12.194,0,0,0-6.867,4.259,14.448,14.448,0,0,1-1.281,1.577C897.7,334.714,898.434,334.652,899.169,334.635Z" transform="translate(-543.634 -209.917)" opacity="0.1"/>
    <path id="Path_722" data-name="Path 722" d="M899.169,333.635a2.582,2.582,0,0,1,.93.1,4.059,4.059,0,0,1,1.176.884,4.192,4.192,0,0,0,3.98.772,5.251,5.251,0,0,1,1.5-.417,2.386,2.386,0,0,1,1.9,1.252c.413.667.626,1.46.98,2.173a2.732,2.732,0,0,0,1.7,1.564,2.978,2.978,0,0,1,1.085.25,1.535,1.535,0,0,1,.467.647c.651,1.406,1.168,3.066,2.557,3.755a3.826,3.826,0,0,0,1.631.355,3.409,3.409,0,0,0,1.669-.3,3.2,3.2,0,0,0,1.227-1.222,7.623,7.623,0,0,0,.763-4.877,13.416,13.416,0,0,0-2.182-5.866,12.244,12.244,0,0,0-11.2-5.169,15.6,15.6,0,0,0-2.232.417,12.194,12.194,0,0,0-6.867,4.259,14.448,14.448,0,0,1-1.281,1.577C897.7,333.714,898.434,333.652,899.169,333.635Z" transform="translate(-543.634 -209.335)" fill="#3f3d56"/>
    <path id="Path_723" data-name="Path 723" d="M874.358,398.2s.488,3.9-1.181,4.868S874.358,398.2,874.358,398.2Z" transform="translate(-529.462 -250.554)" opacity="0.1"/>
    <path id="Path_724" data-name="Path 724" d="M961.57,464.293s3.963-5.84,4.522-4.172S961.57,464.293,961.57,464.293Z" transform="translate(-581.285 -286.469)" opacity="0.1"/>
    <path id="Path_725" data-name="Path 725" d="M962.24,470.512s3.909-4.8,4.284-2.92S962.24,470.512,962.24,470.512Z" transform="translate(-581.675 -290.743)" opacity="0.1"/>
    <path id="Path_726" data-name="Path 726" d="M901.8,459.208a6.346,6.346,0,0,1-3.93-1.293h-.342a6.174,6.174,0,0,1-4.293,1.615,6.091,6.091,0,0,1-4.451-1.786h-.455a6.554,6.554,0,0,1-8.46-.154l-1.631-.029s1.911,5.09.768,8.264l27.88.5a39.7,39.7,0,0,1,.2-8.189v-.038l-1.531-.029a6.417,6.417,0,0,1-3.755,1.143Z" transform="translate(-532.718 -285.151)" opacity="0.1"/>
    <path id="Path_727" data-name="Path 727" d="M901.8,461.208a6.345,6.345,0,0,1-3.93-1.293h-.342a6.174,6.174,0,0,1-4.293,1.614,6.091,6.091,0,0,1-4.451-1.786h-.455a6.554,6.554,0,0,1-8.46-.154l-1.631-.029s1.911,5.09.768,8.264l27.88.5a39.7,39.7,0,0,1,.2-8.189v-.038l-1.531-.029A6.416,6.416,0,0,1,901.8,461.208Z" transform="translate(-532.718 -286.316)" opacity="0.1"/>
    <path id="Path_728" data-name="Path 728" d="M901.8,460.208a6.345,6.345,0,0,1-3.93-1.293h-.342a6.174,6.174,0,0,1-4.293,1.614,6.091,6.091,0,0,1-4.451-1.786h-.455a6.554,6.554,0,0,1-8.46-.154l-1.631-.029s1.911,5.09.768,8.264l27.88.5a39.7,39.7,0,0,1,.2-8.189v-.038l-1.531-.029A6.416,6.416,0,0,1,901.8,460.208Z" transform="translate(-532.718 -285.733)" fill="#3f3d56"/>
    <path id="Path_729" data-name="Path 729" d="M931.75,395.83s5.87.375,5.907,1.21S931.75,395.83,931.75,395.83Z" transform="translate(-563.905 -249.173)" opacity="0.1"/>
    <path id="Path_730" data-name="Path 730" d="M889.317,387.3s-5.87.375-5.907,1.21S889.317,387.3,889.317,387.3Z" transform="translate(-535.731 -244.202)" opacity="0.1"/>
    <path id="Path_731" data-name="Path 731" d="M941.4,428.033c-.058-.042-.117-.075-.175-.113,1.5,1.352,1.252,4.305-.592,6.742s-4.643,3.45-6.345,2.357c.054.046.1.1.159.142,1.669,1.277,4.589.275,6.516-2.244S943.08,429.313,941.4,428.033Z" transform="translate(-565.385 -267.876)" opacity="0.1"/>
    <path id="Path_732" data-name="Path 732" d="M872.143,433.888c-1.485-2.678-1.293-5.636.388-6.758-.063.029-.129.054-.192.088-1.844,1.026-2.086,4.1-.559,6.871s4.28,4.172,6.124,3.162a1.6,1.6,0,0,0,.175-.117C876.239,437.968,873.628,436.567,872.143,433.888Z" transform="translate(-528.369 -267.415)" opacity="0.1"/>
    <path id="Path_733" data-name="Path 733" d="M876.141,387.785h0l-.538.834-1.372-.73.722-1.11A3.024,3.024,0,0,1,876.141,387.785Z" transform="translate(-530.381 -243.898)" opacity="0.1"/>
    <path id="Path_734" data-name="Path 734" d="M856.012,436.968s1.222-5.749-.417-7.576-1.114-11.406,1.389-11.2,6.258,7.785,5.632,9.386-2.991,9.8-2.991,9.8Z" transform="translate(-518.971 -262.206)" fill="#fbbebe"/>
    <path id="Path_735" data-name="Path 735" d="M919.945,350.055a3.2,3.2,0,0,1-1.226,1.222,3.409,3.409,0,0,1-1.669.3,3.826,3.826,0,0,1-1.631-.355c-1.389-.693-1.906-2.353-2.557-3.755a1.535,1.535,0,0,0-.426-.659,2.98,2.98,0,0,0-1.072-.263,2.753,2.753,0,0,1-1.7-1.564c-.359-.709-.572-1.493-.98-2.174a2.3,2.3,0,0,0-1.9-1.252,5.128,5.128,0,0,0-1.5.438,4.205,4.205,0,0,1-3.98-.776,4.059,4.059,0,0,0-1.177-.884,2.582,2.582,0,0,0-.93-.1c-.48,0-.955.046-1.435.083a10.47,10.47,0,0,1-.763.893c.73-.063,1.464-.125,2.2-.142a2.583,2.583,0,0,1,.93.1,4.059,4.059,0,0,1,1.176.884,4.205,4.205,0,0,0,3.98.776,5.128,5.128,0,0,1,1.5-.438,2.386,2.386,0,0,1,1.9,1.252c.413.668.626,1.46.98,2.173a2.731,2.731,0,0,0,1.7,1.564,2.979,2.979,0,0,1,1.072.263,1.535,1.535,0,0,1,.467.647c.651,1.406,1.168,3.066,2.557,3.755a3.826,3.826,0,0,0,1.631.355,3.409,3.409,0,0,0,1.669-.3,3.2,3.2,0,0,0,1.227-1.222,6.921,6.921,0,0,0,.834-3.863A6.374,6.374,0,0,1,919.945,350.055Z" transform="translate(-543.652 -216.768)" opacity="0.1"/>
    <ellipse id="Ellipse_181" data-name="Ellipse 181" cx="3.755" cy="2.545" rx="3.755" ry="2.545" transform="translate(335.134 174.232)" fill="#575a89"/>
    <circle id="Ellipse_182" data-name="Ellipse 182" cx="128.699" cy="128.699" r="128.699" transform="translate(87.806 61.031)" fill="#6c63ff"/>
    <path id="Path_736" data-name="Path 736" d="M542.167,576.851c0,20.317-31.939,1.735-66.181,1.735s-68.876,17.813-68.876-2.5c0-11.585,11.038-27.7,26.875-39.4h0c11.931-8.819,26.583-15.135,41.3-15.135,15.135,0,29.962,6.838,41.789,16.224C532,549.609,542.167,565.512,542.167,576.851Z" transform="translate(-258.133 -322.445)" fill="#444053"/>
    <path id="Path_737" data-name="Path 737" d="M554.615,537.754c-18.2-2.741-51.121-6.082-83.085-1.089,11.931-8.819,26.583-15.135,41.3-15.135C527.962,521.53,542.788,528.368,554.615,537.754Z" transform="translate(-295.678 -322.434)" fill="#f6f8fb"/>
    <path id="Path_738" data-name="Path 738" d="M353.389,281.31s-38.768,24.785-38.451,63.553S353.389,281.31,353.389,281.31Z" transform="translate(-204.411 -182.428)" opacity="0.05"/>
    <path id="Path_739" data-name="Path 739" d="M833.6,113.456s-35.126-2.115-30.984,22.5c0,0-.834,4.347,3.12,6.324,0,0,.063-1.823,3.6-1.206a16.27,16.27,0,0,0,3.817.184,7.926,7.926,0,0,0,4.664-1.927h0s9.875-4.076,13.717-20.216c0,0,2.841-3.521,2.728-4.422l-5.928,2.528s2.023,4.276.417,7.83c0,0-.192-7.672-1.331-7.509-.229.038-3.079,1.481-3.079,1.481s3.483,7.451.834,12.862c0,0,1-9.178-1.944-12.323L819.061,122s4.072,7.693,1.31,13.971c0,0,.709-9.628-2.186-13.379l-3.784,2.949s3.826,7.584,1.494,12.791c0,0-.3-11.21-2.311-12.056,0,0-3.308,2.92-3.813,4.118,0,0,2.62,5.5,1,8.406,0,0-1-7.467-1.815-7.509,0,0-3.3,4.948-3.642,8.344a18.036,18.036,0,0,1,2.841-8.815,9.9,9.9,0,0,0-5.044,2.616s.513-3.5,5.84-3.8c0,0,2.724-3.755,3.454-3.98,0,0-5.319-.446-8.544.985,0,0,2.837-3.3,9.516-1.8l3.755-3.045s-7-.96-9.971.1c0,0,3.417-2.92,10.976-.793l4.068-2.432s-5.97-1.285-9.528-.834c0,0,3.755-2.023,10.717.171l2.92-1.306s-4.376-.859-5.657-.993-1.348-.492-1.348-.492a15.164,15.164,0,0,1,8.231.955S833.7,113.844,833.6,113.456Z" transform="translate(-488.444 -84.573)" fill="#6c63ff"/>
    <path id="Path_740" data-name="Path 740" d="M771.23,87.261s-15.853-.96-14,10.162a2.713,2.713,0,0,0,1.41,2.858s.025-.834,1.627-.542a7.534,7.534,0,0,0,1.723.083,3.625,3.625,0,0,0,2.111-.872h0s4.46-1.844,6.2-9.136c0,0,1.285-1.589,1.252-2l-2.678,1.143a4.791,4.791,0,0,1,.2,3.538s-.088-3.467-.6-3.383c-.1,0-1.393.667-1.393.667s1.577,3.367.388,5.811c0,0,.451-4.147-.876-5.569l-1.886,1.1s1.84,3.479.592,6.316c0,0,.317-4.351-.989-6.045l-1.71,1.331s1.727,3.425.676,5.778c0,0-.138-5.065-1.047-5.448a10.46,10.46,0,0,0-1.723,1.861s1.185,2.5.451,3.8c0,0-.451-3.375-.834-3.387a11.186,11.186,0,0,0-1.644,3.755,8.127,8.127,0,0,1,1.281-3.984,4.468,4.468,0,0,0-2.278,1.181s.229-1.581,2.645-1.719a10.407,10.407,0,0,1,1.56-1.8,9.782,9.782,0,0,0-3.859.446s1.281-1.493,4.3-.834L763.788,91s-3.162-.417-4.505.042c0,0,1.544-1.318,4.96-.355l1.836-1.1a16.693,16.693,0,0,0-4.305-.371s1.7-.914,4.843.079l1.314-.592s-1.977-.388-2.553-.446-.613-.221-.613-.221a6.837,6.837,0,0,1,3.713.417A16.8,16.8,0,0,0,771.23,87.261Z" transform="translate(-462.103 -69.32)" fill="#6c63ff"/>
    <ellipse id="Ellipse_183" data-name="Ellipse 183" cx="11.235" cy="1.898" rx="11.235" ry="1.898" transform="translate(436.429 300.75)" fill="#6c63ff" opacity="0.1"/>
    <ellipse id="Ellipse_184" data-name="Ellipse 184" cx="11.235" cy="1.898" rx="11.235" ry="1.898" transform="translate(8.272 332.326)" fill="#6c63ff" opacity="0.1"/>
    <ellipse id="Ellipse_185" data-name="Ellipse 185" cx="11.235" cy="1.898" rx="11.235" ry="1.898" transform="translate(73.489 334.708)" fill="#6c63ff" opacity="0.1"/>
    <ellipse id="Ellipse_186" data-name="Ellipse 186" cx="16.775" cy="2.837" rx="16.775" ry="2.837" transform="translate(406.3 320.153)" fill="#6c63ff"/>
    <path id="Path_741" data-name="Path 741" d="M1059.088,796.6a4.893,4.893,0,0,0,1.6-2.415,2.152,2.152,0,0,0-1.118-2.457c-1.026-.392-2.123.321-2.954,1.039s-1.786,1.535-2.874,1.385a4.368,4.368,0,0,0,1.352-4.093,1.718,1.718,0,0,0-.375-.834c-.572-.609-1.6-.35-2.286.129-2.169,1.527-2.774,4.472-2.787,7.125a13.385,13.385,0,0,1-.038-2.92,3.017,3.017,0,0,0-1.1-2.6,3.338,3.338,0,0,0-1.669-.392,3.472,3.472,0,0,0-2.728.772,2.683,2.683,0,0,0,.109,3.337,10.823,10.823,0,0,0,2.82,2.261,6.259,6.259,0,0,1,2.019,1.923,2.019,2.019,0,0,1,.15.346h6.112a17.007,17.007,0,0,0,3.767-2.607Z" transform="translate(-629.08 -478.243)" fill="#6c63ff"/>
    <path id="Path_742" data-name="Path 742" d="M100.51,723.55s2.29,3-1.06,7.509-6.112,8.344-5.006,11.164c0,0,5.052-8.4,9.178-8.523S105.032,728.6,100.51,723.55Z" transform="translate(-75.76 -440.176)" fill="#6c63ff"/>
    <path id="Path_743" data-name="Path 743" d="M100.7,723.55a3.754,3.754,0,0,1,.467.939c4.013,4.714,6.149,9.115,2.294,9.224-3.6.1-7.926,6.529-8.94,8.152a3.874,3.874,0,0,0,.125.371s5.052-8.4,9.178-8.523S105.221,728.6,100.7,723.55Z" transform="translate(-75.948 -440.176)" opacity="0.1"/>
    <path id="Path_744" data-name="Path 744" d="M118.8,731.745c0,1.055-.121,1.911-.267,1.911s-.263-.834-.263-1.911.146-.559.3-.559S118.8,730.69,118.8,731.745Z" transform="translate(-89.79 -444.554)" fill="#ffd037"/>
    <path id="Path_745" data-name="Path 745" d="M120.475,734.712c-.926.5-1.731.809-1.8.68s.626-.638,1.552-1.143.559-.138.63,0S121.418,734.208,120.475,734.712Z" transform="translate(-90.022 -446.261)" fill="#ffd037"/>
    <path id="Path_746" data-name="Path 746" d="M73.117,723.55s-2.29,3,1.055,7.509,6.112,8.344,5.006,11.164c0,0-5.056-8.4-9.178-8.523S68.591,728.6,73.117,723.55Z" transform="translate(-60.474 -440.176)" fill="#6c63ff"/>
    <path id="Path_747" data-name="Path 747" d="M73.109,723.55a3.6,3.6,0,0,0-.467.939c-4.013,4.714-6.153,9.115-2.294,9.224,3.592.1,7.926,6.529,8.936,8.152a3.854,3.854,0,0,1-.121.371s-5.056-8.4-9.178-8.523S68.583,728.6,73.109,723.55Z" transform="translate(-60.465 -440.176)" opacity="0.1"/>
    <path id="Path_748" data-name="Path 748" d="M70.1,731.745c0,1.055.117,1.911.263,1.911s.263-.834.263-1.911-.146-.559-.292-.559S70.1,730.69,70.1,731.745Z" transform="translate(-61.716 -444.554)" fill="#ffd037"/>
    <path id="Path_749" data-name="Path 749" d="M65.806,734.712c.926.5,1.735.809,1.806.68s-.626-.638-1.552-1.143-.563-.138-.63,0S64.88,734.208,65.806,734.712Z" transform="translate(-58.886 -446.261)" fill="#ffd037"/>
    <path id="Path_750" data-name="Path 750" d="M71.85,762.554s6.408-.2,8.344-1.573,9.858-3.016,10.338-.834,9.628,10.972,2.395,11.03-16.808-1.13-18.735-2.3S71.85,762.554,71.85,762.554Z" transform="translate(-62.736 -460.886)" fill="#a8a8a8"/>
    <path id="Path_751" data-name="Path 751" d="M93.047,775.265c-7.234.058-16.808-1.13-18.735-2.3-1.468-.893-2.053-4.1-2.249-5.582H71.85s.417,5.169,2.332,6.341,11.5,2.361,18.735,2.3c2.086,0,2.808-.763,2.77-1.861C95.4,774.835,94.6,775.252,93.047,775.265Z" transform="translate(-62.736 -465.721)" opacity="0.2"/>
    <path id="Path_752" data-name="Path 752" d="M417.255,447.4c2.449-.138,13.975-1.005,21.3-5.181a8.3,8.3,0,0,1,3.867-1.139c2.328-.067,5.006.905,3.292,6.345-2.778,8.9-18.911,18.911-28.923,18.356-9.628-.534-21.051-4.414-28.593-18.055a8.344,8.344,0,0,1-1.03-4.293c.088-2.753,1.089-6.2,6.258-2.357,6.984,5.194,20.233,6.178,22.891,6.324a8.8,8.8,0,0,0,.943,0Z" transform="translate(-246.505 -274.546)" fill="#444053"/>
    <path id="Path_753" data-name="Path 753" d="M639.255,447.4c2.449-.138,13.975-1.005,21.3-5.181a8.3,8.3,0,0,1,3.867-1.139c2.328-.067,5.006.905,3.292,6.345-2.778,8.9-18.911,18.911-28.923,18.356-9.628-.534-21.051-4.414-28.593-18.055a8.343,8.343,0,0,1-1.03-4.293c.088-2.753,1.089-6.2,6.258-2.357,6.984,5.194,20.233,6.178,22.891,6.324a8.8,8.8,0,0,0,.943,0Z" transform="translate(-375.892 -274.546)" fill="#444053"/>
  </g>
</svg>
