<svg id="Group_110" data-name="Group 110" xmlns="http://www.w3.org/2000/svg" width="374.368" height="241.464" viewBox="0 0 374.368 241.464">
  <path id="Path_615" data-name="Path 615" d="M917.2,585.25l-36.316-62.92a1.156,1.156,0,0,0-2.007,0l-36.327,62.92A1.156,1.156,0,0,0,843.559,587H854.4a1.163,1.163,0,0,1,1.159,1.159V601.6a1.156,1.156,0,0,0,1.152,1.159h14.139a1.159,1.159,0,0,0,1.159-1.159v-6.5a1.156,1.156,0,0,1,1.156-1.156H886.6a1.159,1.159,0,0,1,1.159,1.156v6.49a1.159,1.159,0,0,0,1.159,1.159h14.136a1.17,1.17,0,0,0,1.163-1.159V588.146a1.159,1.159,0,0,1,1.159-1.159h10.836a1.159,1.159,0,0,0,.988-1.737Zm-50.634,6.963a1.17,1.17,0,0,1-.823.35h-5.1a1.159,1.159,0,0,1,0-2.319h5.1a1.156,1.156,0,0,1,1.159,1.159A1.169,1.169,0,0,1,866.569,592.213Zm33.367,0a1.152,1.152,0,0,1-.82.35h-5.1a1.159,1.159,0,1,1,0-2.319h5.1a1.156,1.156,0,0,1,.82,1.979Z" transform="translate(-570.328 -375.885)" fill="#f2f2f2"/>
  <path id="Path_616" data-name="Path 616" d="M285.611,586.844l-36.323-62.917a1.163,1.163,0,0,0-2.01,0L215.9,578.27a96.037,96.037,0,0,0,13.144,13.558h5.1a1.159,1.159,0,0,1,.82,1.979,1.138,1.138,0,0,1-.82.35H231.99a56.138,56.138,0,0,0,8.406,5.229v-2.679a1.163,1.163,0,0,1,1.163-1.159H255a1.159,1.159,0,0,1,1.159,1.159v6.486a1.079,1.079,0,0,0,.109.487,1.149,1.149,0,0,0,1.051.672h14.139a1.145,1.145,0,0,0,.921-.466,1.111,1.111,0,0,0,.231-.7V589.744a1.159,1.159,0,0,1,1.159-1.159H284.6a1.156,1.156,0,0,0,1.009-1.741ZM261.6,592.167a1.166,1.166,0,0,1,.823-.35h5.1a1.159,1.159,0,1,1,0,2.319h-5.1a1.156,1.156,0,0,1-1.159-1.159,1.17,1.17,0,0,1,.336-.809Zm-22.814-23.284a1.156,1.156,0,0,1-1.159-1.159v-8.8a1.156,1.156,0,0,1,1.159-1.159h19a1.159,1.159,0,0,1,1.159,1.159v8.8a1.159,1.159,0,0,1-1.159,1.159Z" transform="translate(-163.259 -376.926)" fill="#f2f2f2"/>
  <path id="Path_617" data-name="Path 617" d="M562.25,337.671H517.294v-9.723a2.322,2.322,0,0,0-2.326-2.326h-13.2V315.284a1.464,1.464,0,0,0-1.464-1.464h-17a1.464,1.464,0,0,0-1.464,1.464v10.357H466.31a2.326,2.326,0,0,0-2.326,2.326v9.7H421.129a.473.473,0,0,0-.469.473V467.213a.473.473,0,0,0,.469.473h28.488a.473.473,0,0,0,.473-.473V449.849a.48.48,0,0,1,.476-.473H462.6a.476.476,0,0,1,.473.473v17.365a.476.476,0,0,0,.469.473h56.3a.476.476,0,0,0,.473-.473V449.849a.476.476,0,0,1,.469-.473h12.034a.476.476,0,0,1,.476.473v17.365a.476.476,0,0,0,.469.473H562.25a.473.473,0,0,0,.469-.473V338.144a.473.473,0,0,0-.469-.473ZM444.987,443.345a.469.469,0,0,1-.466.469h-17.6a.473.473,0,0,1-.476-.469v-6.01a.476.476,0,0,1,.476-.473h17.6a.473.473,0,0,1,.466.473Zm0-15.53a.469.469,0,0,1-.466.473h-17.6a.473.473,0,0,1-.476-.473v-6.007a.473.473,0,0,1,.476-.473h17.6a.469.469,0,0,1,.466.473Zm0-15.526a.473.473,0,0,1-.466.473h-17.6a.476.476,0,0,1-.476-.473v-6.01a.476.476,0,0,1,.476-.473h17.6a.473.473,0,0,1,.466.473Zm0-15.53a.469.469,0,0,1-.466.473h-17.6a.473.473,0,0,1-.476-.473v-6.007a.473.473,0,0,1,.476-.473h17.6a.469.469,0,0,1,.466.473Zm0-15.526a.473.473,0,0,1-.466.473h-17.6a.476.476,0,0,1-.476-.473v-6.01a.473.473,0,0,1,.476-.469h17.6a.469.469,0,0,1,.466.469Zm0-15.526a.469.469,0,0,1-.466.469h-17.6a.473.473,0,0,1-.476-.469V359.7a.476.476,0,0,1,.476-.473h17.6a.473.473,0,0,1,.466.473Zm0-15.53a.469.469,0,0,1-.466.473h-17.6a.473.473,0,0,1-.476-.473v-6.007a.473.473,0,0,1,.476-.473h17.6a.469.469,0,0,1,.466.473Zm41.72,93.163a.473.473,0,0,1-.476.469h-17.6a.469.469,0,0,1-.469-.469v-6.007a.473.473,0,0,1,.469-.473h17.6a.476.476,0,0,1,.476.473Zm0-15.53a.473.473,0,0,1-.476.473h-17.6a.469.469,0,0,1-.469-.473v-6a.469.469,0,0,1,.469-.473h17.6a.473.473,0,0,1,.476.473Zm0-15.526a.476.476,0,0,1-.476.473h-17.6a.473.473,0,0,1-.469-.459v-6.021a.473.473,0,0,1,.469-.473h17.6a.476.476,0,0,1,.476.473Zm0-15.53a.473.473,0,0,1-.476.473h-17.6a.469.469,0,0,1-.469-.473v-6a.469.469,0,0,1,.469-.473h17.6a.473.473,0,0,1,.476.473Zm0-15.526a.476.476,0,0,1-.476.473h-17.6a.473.473,0,0,1-.469-.473v-6.006a.469.469,0,0,1,.469-.469h17.6a.473.473,0,0,1,.476.469Zm0-15.526a.473.473,0,0,1-.476.469h-17.6a.469.469,0,0,1-.469-.455V359.7a.473.473,0,0,1,.469-.473h17.6a.476.476,0,0,1,.476.473Zm0-15.53a.473.473,0,0,1-.476.473h-17.6a.469.469,0,0,1-.469-.473v-6a.469.469,0,0,1,.469-.473h17.6a.473.473,0,0,1,.476.473Zm28.5,93.163a.469.469,0,0,1-.473.469H497.131a.476.476,0,0,1-.476-.469v-6a.48.48,0,0,1,.476-.473h17.592a.473.473,0,0,1,.473.473Zm0-15.53a.469.469,0,0,1-.473.473H497.131a.476.476,0,0,1-.476-.473v-6a.476.476,0,0,1,.476-.473h17.592a.469.469,0,0,1,.473.473Zm0-15.526a.473.473,0,0,1-.473.473H497.131a.48.48,0,0,1-.476-.473v-6a.48.48,0,0,1,.476-.473h17.592a.473.473,0,0,1,.473.473Zm0-15.53a.469.469,0,0,1-.473.473H497.131a.476.476,0,0,1-.476-.473v-6a.476.476,0,0,1,.476-.473h17.592a.469.469,0,0,1,.473.473Zm0-15.526a.473.473,0,0,1-.473.473H497.131a.48.48,0,0,1-.476-.473v-6a.476.476,0,0,1,.476-.469h17.592a.469.469,0,0,1,.473.469Zm0-15.526a.469.469,0,0,1-.473.469H497.131a.476.476,0,0,1-.476-.469v-6a.48.48,0,0,1,.476-.473h17.592a.473.473,0,0,1,.473.473Zm0-15.53a.469.469,0,0,1-.473.473H497.131a.476.476,0,0,1-.476-.473v-6a.476.476,0,0,1,.476-.473h17.592a.469.469,0,0,1,.473.473Zm41.72,93.163a.476.476,0,0,1-.476.469h-17.6a.466.466,0,0,1-.469-.469v-6a.469.469,0,0,1,.469-.473h17.6a.48.48,0,0,1,.476.473Zm0-15.529a.476.476,0,0,1-.476.473h-17.6a.469.469,0,0,1-.469-.473v-6a.469.469,0,0,1,.469-.473h17.6a.476.476,0,0,1,.476.473Zm0-15.526a.48.48,0,0,1-.476.473h-17.6a.469.469,0,0,1-.469-.452v-6.021a.469.469,0,0,1,.469-.473h17.6a.48.48,0,0,1,.476.473Zm0-15.53a.476.476,0,0,1-.476.473h-17.6a.469.469,0,0,1-.469-.473v-6a.469.469,0,0,1,.469-.473h17.6a.476.476,0,0,1,.476.473Zm0-15.526a.48.48,0,0,1-.476.473h-17.6a.469.469,0,0,1-.469-.473v-6a.466.466,0,0,1,.469-.469h17.6a.476.476,0,0,1,.476.469Zm0-15.526a.476.476,0,0,1-.476.469h-17.6a.466.466,0,0,1-.469-.448V359.7a.469.469,0,0,1,.469-.473h17.6a.48.48,0,0,1,.476.473Zm0-15.53a.476.476,0,0,1-.476.473h-17.6a.469.469,0,0,1-.469-.473v-6a.469.469,0,0,1,.469-.473h17.6a.476.476,0,0,1,.476.473Z" transform="translate(-296.305 -240.782)" fill="#f2f2f2"/>
  <path id="Path_618" data-name="Path 618" d="M167.194,307.886a26.066,26.066,0,0,0,2.021-2.97l-14.244-2.34,15.41.116a25.977,25.977,0,0,0,.5-20.569l-20.664,10.717,19.056-14.009a25.963,25.963,0,1,0-42.88,29.07,25.879,25.879,0,0,0-2.959,4.735l18.471,9.59L122.2,315.608a25.984,25.984,0,0,0,4.2,24.38,25.788,25.788,0,0,0-4.655,9.264,258.641,258.641,0,0,0,12.223,29.36,25.7,25.7,0,0,0,8.055,2.945,9,9,0,0,0-.511,3.016,8.563,8.563,0,0,0,1.093,4.336,8.406,8.406,0,0,0-1.107,3.7h0a159.68,159.68,0,0,0,10.542,15.761,7.968,7.968,0,0,0-.855-2.1,8.9,8.9,0,0,0,0-8.672,8.9,8.9,0,0,0,0-8.672,8.564,8.564,0,0,0,1.128-4.336,8.892,8.892,0,0,0-.525-3.058A25.963,25.963,0,0,0,167.2,340a25.956,25.956,0,0,0,0-32.1Z" transform="translate(-101.489 -209.665)" fill="#f2f2f2"/>
  <path id="Path_619" data-name="Path 619" d="M1068.981,380.16l-1.051-.172h1.03a44.452,44.452,0,0,0-2.13-11.666l-3.663,1.9,3.446-2.543a44.7,44.7,0,0,0-17.074-22.391,26.058,26.058,0,0,0-10.2,40.015,25.962,25.962,0,0,0-2.959,4.746l18.493,9.632-19.708-6.63a26.086,26.086,0,0,0,4.2,24.433,26.061,26.061,0,0,0,11.523,40.547c1.4-3.324,2.763-6.8,4.038-10.371,1.128-3.152,2.2-6.364,3.215-9.607a295.253,295.253,0,0,0,7.411-28.916c2.241-11.109,3.5-20.818,3.5-26.968C1069.027,381.494,1069.009,380.829,1068.981,380.16Z" transform="translate(-694.693 -261.23)" fill="#f2f2f2"/>
  <ellipse id="Ellipse_168" data-name="Ellipse 168" cx="186.326" cy="8.756" rx="186.326" ry="8.756" transform="translate(0 223.952)" fill="#3f3d56"/>
  <path id="Path_620" data-name="Path 620" d="M500.421,420.7c-3.481-6.031-17.862-4.255-32.085,3.965a68.358,68.358,0,0,0-7.138,4.732,61.869,61.869,0,0,0-123.452,1.555,66.368,66.368,0,0,0-9.106-6.3c-14.2-8.2-28.579-9.978-32.057-3.947s5.254,17.582,19.477,25.8c9.215,5.32,18.479,7.936,24.814,7.492a61.939,61.939,0,0,0,18.85,27.669c-12.475,1.751-21.648,7.586-21.648,14.528,0,8.315,13.172,15.06,29.42,15.06s29.42-6.746,29.42-15.06v-.067q1.31.056,2.63.06t2.63-.06v.067c0,8.315,13.172,15.06,29.42,15.06s29.42-6.746,29.42-15.06c0-6.942-9.173-12.78-21.648-14.528A61.929,61.929,0,0,0,458.2,454.042c6.2-.161,14.5-2.756,22.765-7.53C495.2,438.278,503.924,426.724,500.421,420.7Z" transform="translate(-215.188 -278.871)" fill="#6c63ff"/>
  <path id="Path_621" data-name="Path 621" d="M296.584,506.736c3.481-6.031,17.862-4.255,32.085,3.965a66.279,66.279,0,0,1,8.97,6.178,19.94,19.94,0,0,0,.13-3.047,66.4,66.4,0,0,0-9.106-6.283c-14.216-8.22-28.6-10-32.078-3.965a6.633,6.633,0,0,0-.592,4.693A5.6,5.6,0,0,1,296.584,506.736Z" transform="translate(-215.189 -361.759)" opacity="0.1"/>
  <path id="Path_622" data-name="Path 622" d="M807.056,506.736c-3.481-6.031-17.862-4.255-32.089,3.965a42.548,42.548,0,0,0-7.215,4.777,19.067,19.067,0,0,1-.13-3.047,42.629,42.629,0,0,1,7.355-4.882c14.241-8.22,28.607-10,32.089-3.965a6.633,6.633,0,0,1,.592,4.693A5.606,5.606,0,0,0,807.056,506.736Z" transform="translate(-521.746 -361.758)" opacity="0.1"/>
  <ellipse id="Ellipse_169" data-name="Ellipse 169" cx="6.416" cy="8.402" rx="6.416" ry="8.402" transform="translate(161.358 135.034)" fill="#444053"/>
  <ellipse id="Ellipse_170" data-name="Ellipse 170" cx="6.416" cy="8.402" rx="6.416" ry="8.402" transform="translate(194.508 135.034)" fill="#444053"/>
  <path id="Path_623" data-name="Path 623" d="M557.011,578.979c0,12.062-20.149,32.383-40.48,32.383s-39.72-20.78-39.72-32.831,18.979-1.051,39.293-1.051S557.011,566.914,557.011,578.979Z" transform="translate(-332.789 -409.114)" fill="#3f3d56"/>
  <path id="Path_624" data-name="Path 624" d="M491.47,596.16s36.547,8.136,67.246.231c0,0,3.758,0,1.191,4.343a6.938,6.938,0,0,1-2.8,2.634c-5.919,3.023-27.826,11.961-62.857.564a6.893,6.893,0,0,1-4.567-4.676C489.281,597.782,489.46,596.367,491.47,596.16Z" transform="translate(-341.04 -424.236)" fill="#f6f8fb"/>
  <path id="Path_625" data-name="Path 625" d="M476.643,380.359a61.865,61.865,0,0,1,61.754,58.2q.175-2.307.175-4.665a61.868,61.868,0,1,0-123.737,0c0,1.236.044,2.452.114,3.681A61.873,61.873,0,0,1,476.643,380.359Z" transform="translate(-292.52 -278.598)" opacity="0.1"/>
  <path id="Path_626" data-name="Path 626" d="M581.819,152.7a7.929,7.929,0,0,1-15.859,0v-.382a7.929,7.929,0,0,1,15.838,0A2.789,2.789,0,0,1,581.819,152.7Z" transform="translate(-390.715 -130.956)" fill="#3f3d56"/>
  <path id="Path_627" data-name="Path 627" d="M581.819,161.414a7.929,7.929,0,0,1-15.859,0v-.382a12.517,12.517,0,0,1,15.838,0A2.789,2.789,0,0,1,581.819,161.414Z" transform="translate(-390.715 -139.671)" opacity="0.1"/>
  <circle id="Ellipse_171" data-name="Ellipse 171" cx="12.521" cy="12.521" r="12.521" transform="translate(170.653 19.239)" fill="#3f3d56"/>
  <path id="Path_628" data-name="Path 628" d="M563.1,147.649a7.933,7.933,0,0,1,6.879-7.859,7.929,7.929,0,1,0,0,15.719A7.933,7.933,0,0,1,563.1,147.649Z" transform="translate(-387.491 -127.657)" fill="#3f3d56"/>
  <path id="Path_629" data-name="Path 629" d="M540.733,191.25a7.929,7.929,0,0,1-1.334-10.36,7.929,7.929,0,1,0,11.134,11.246,7.617,7.617,0,0,0,.644-.837A7.926,7.926,0,0,1,540.733,191.25Z" transform="translate(-371.685 -154.409)" fill="#3f3d56"/>
  <path id="Path_630" data-name="Path 630" d="M564.822,232.413a6.856,6.856,0,0,0-1.853.634c-1.051.725-1.005,2.263-.7,3.5a9.663,9.663,0,0,0,5.1,6.654,12.393,12.393,0,0,0,5.141.746c1.9-.021,4.042-.263,5.219-1.751a6.875,6.875,0,0,0,1.068-2.613,20.814,20.814,0,0,0,.956-6.945,4.589,4.589,0,0,1-3.334-.557c-.883-.725-1.114-2.1-1.506-3.254a.82.82,0,0,0-.294-.462.9.9,0,0,0-.525-.081,20.75,20.75,0,0,1-3.6-.179c-.746-.1-2.581-.876-3.152-.221-.41.48-.151,1.926-.462,2.6A3.628,3.628,0,0,1,564.822,232.413Z" transform="translate(-388.194 -184.777)" fill="#ffc1c7"/>
  <path id="Path_631" data-name="Path 631" d="M564.822,232.413a6.856,6.856,0,0,0-1.853.634c-1.051.725-1.005,2.263-.7,3.5a9.663,9.663,0,0,0,5.1,6.654,12.393,12.393,0,0,0,5.141.746c1.9-.021,4.042-.263,5.219-1.751a6.875,6.875,0,0,0,1.068-2.613,20.814,20.814,0,0,0,.956-6.945,4.589,4.589,0,0,1-3.334-.557c-.883-.725-1.114-2.1-1.506-3.254a.82.82,0,0,0-.294-.462.9.9,0,0,0-.525-.081,20.75,20.75,0,0,1-3.6-.179c-.746-.1-2.581-.876-3.152-.221-.41.48-.151,1.926-.462,2.6A3.628,3.628,0,0,1,564.822,232.413Z" transform="translate(-388.194 -184.777)" opacity="0.05"/>
  <path id="Path_632" data-name="Path 632" d="M364.637,472.212a44.315,44.315,0,0,0-8.406.581,2.154,2.154,0,0,0-1.359.7,1.963,1.963,0,0,0,.144,2,6.2,6.2,0,0,0,3.544,2.945,19,19,0,0,0,5.208.385,17.421,17.421,0,0,1,6.872,1.653,2.777,2.777,0,0,0,1.545.41c.774-.119,1.257-.893,1.545-1.622a19.792,19.792,0,0,0,.774-2.686c.406-1.727.462-5.138-1.909-5.6-1.086-.21-2.364.539-3.408.757A25.361,25.361,0,0,1,364.637,472.212Z" transform="translate(-253.416 -342.869)" fill="#444053"/>
  <path id="Path_633" data-name="Path 633" d="M782.108,441.085a3.229,3.229,0,0,0,1.636-1.254c1.051-1.531,1.051-3.359,1.608-5.036.7-2.182,2.252-3.982,3.226-6.059a12.528,12.528,0,0,0,1.17-5.954,1.051,1.051,0,0,0-1.229-.981,5.93,5.93,0,0,0-3.359,2.3c-1.082,1.4-1.79,3.068-2.9,4.452a44.47,44.47,0,0,1-3.989,3.765c-1.657,1.6-2.956,3.334-1.478,5.408C777.993,439.432,779.653,441.891,782.108,441.085Z" transform="translate(-527.286 -310.934)" fill="#444053"/>
  <path id="Path_634" data-name="Path 634" d="M453.814,343.223a112.528,112.528,0,0,1-32.222,28.429c-3.814,2.238-7.793,4.269-11.183,7.11a59.085,59.085,0,0,0-6.921,7.3,1.751,1.751,0,0,0-.49.9,1.719,1.719,0,0,0,.13.721c.7,2.066,1.513,4.308,3.383,5.436,4.847-7,14.479-8.815,21.865-13.053a97.756,97.756,0,0,0,9.726-6.781q6.865-5.138,14.034-9.845a39.129,39.129,0,0,1,10.069-5.208c7.705-2.3,16.111,0,23.228,3.783s13.383,8.952,20.356,12.976c9.477,5.464,20.051,8.686,30.52,11.863.375-2.515.6-4.98,1.135-7.467a31.288,31.288,0,0,1-7.52-2.413,44.592,44.592,0,0,1-7.9-3.933c-1.615-1.093-3.082-2.4-4.679-3.5-3.481-2.452-7.516-3.993-11.043-6.371-4.6-3.1-8.15-7.478-12.353-11.089-1.832-1.573-3.779-3-5.73-4.42a22.062,22.062,0,0,0-15.123-5.4C466.471,341.762,460.086,341.111,453.814,343.223Z" transform="translate(-284.828 -258.935)" fill="#575a89"/>
  <circle id="Ellipse_172" data-name="Ellipse 172" cx="8.756" cy="8.756" r="8.756" transform="translate(174.243 29.045)" fill="#ffc1c7"/>
  <path id="Path_635" data-name="Path 635" d="M555.7,247.93a10.507,10.507,0,0,1-4.42-1.611,6.437,6.437,0,0,1-2.693-3.762c-.284-1.236-.126-2.571-.623-3.734a33.428,33.428,0,0,1-4.9,1.989,7.912,7.912,0,0,0-2.711,1.2c-1.657,1.348-1.751,3.8-1.706,5.933a3.944,3.944,0,0,0,.158,1.25,3.153,3.153,0,0,0,.683,1.03c1.8,1.926,4.6,2.725,6.3,4.746a6.756,6.756,0,0,0-1.65,3.558,12.568,12.568,0,0,1-.224,1.583,9.781,9.781,0,0,1-.515,1.257c-1.107,2.522-1.068,5.373-1.236,8.118s-.644,5.67-2.5,7.705a4.142,4.142,0,0,0,2.84,1.152c1.089.1,2.217-.042,3.327,0,2.928.084,5.691,1.282,8.514,2.063s6.028,1.1,8.525-.431c.876-.536,1.618-1.275,2.5-1.8a12.3,12.3,0,0,1,3.5-1.24l.438-14.626a24.854,24.854,0,0,1,.221-3.065c.634-4,3.187-7.386,5.66-10.591a9.691,9.691,0,0,0-4.444-7.215,19.04,19.04,0,0,0-3.5-1.625l-2.879-1.107a1.6,1.6,0,0,0-.82-.154c-.623.112-.862.872-.9,1.5-.056.995.091,1.993.056,2.988a4.045,4.045,0,0,1-.988,2.749,4.749,4.749,0,0,1-1.751.995C558.493,247.346,557.253,248.162,555.7,247.93Z" transform="translate(-372.962 -191.872)" fill="#ff6584"/>
  <path id="Path_636" data-name="Path 636" d="M543.539,349.013a25.706,25.706,0,0,1-.1,5.849,8.735,8.735,0,0,1-2.6,5.127c-1.131,1-2.721,1.751-3,3.247a1.752,1.752,0,0,0,.077.981,1.864,1.864,0,0,0,2.017.942,4.7,4.7,0,0,0,2.1-1.1,46.427,46.427,0,0,0,3.481-3.152,8.31,8.31,0,0,0,2.4-3.25,8.02,8.02,0,0,0,.284-1.9c.228-3.5.287-7,.35-10.507a19.549,19.549,0,0,0-.869-7.551c.14.35-3.271.683-3.53.7-1.471.13-1.191.736-1.107,2.122Q543.291,344.782,543.539,349.013Z" transform="translate(-372.421 -256.298)" fill="#ffc1c7"/>
  <path id="Path_637" data-name="Path 637" d="M617.672,349.013a25.706,25.706,0,0,0,.1,5.849,8.734,8.734,0,0,0,2.6,5.127c1.131,1,2.721,1.751,3,3.247a1.751,1.751,0,0,1-.077.981,1.864,1.864,0,0,1-2.017.942,4.7,4.7,0,0,1-2.1-1.1,46.44,46.44,0,0,1-3.481-3.152,8.31,8.31,0,0,1-2.4-3.25,8.024,8.024,0,0,1-.284-1.9c-.228-3.5-.287-7-.35-10.507a19.547,19.547,0,0,1,.869-7.551c-.14.35,3.271.683,3.53.7,1.471.13,1.191.736,1.107,2.122Q617.935,344.782,617.672,349.013Z" transform="translate(-421.049 -256.298)" fill="#ffc1c7"/>
  <path id="Path_638" data-name="Path 638" d="M540.309,261.7c-1.236,3.649-.735,7.705.529,11.337a5.909,5.909,0,0,1,.525,2.76,8.682,8.682,0,0,1-.434,1.4,6.634,6.634,0,0,0-.189,3.4,2.129,2.129,0,0,0,.389.939,4.358,4.358,0,0,1,.35.406c.48.75-.462,1.678-.35,2.564.084.736.83,1.17,1.352,1.7,1.475,1.5,1.191,3.93.806,6,1.79-.158,3.334-1.622,5.128-1.5a3.068,3.068,0,0,1,2.641,2.035c-.067-1.734.55-3.212.7-4.942.2-2.252-1.257-4.269-1.961-6.413-1.026-3.124-.448-6.518-.7-9.807a32.759,32.759,0,0,0-.532-3.639c-.319-1.646-.785-3.446-2.178-4.381C544.585,262.358,541.882,263.206,540.309,261.7Z" transform="translate(-373.586 -206.916)" opacity="0.1"/>
  <path id="Path_639" data-name="Path 639" d="M539.309,259.7c-1.236,3.649-.736,7.705.529,11.337a5.909,5.909,0,0,1,.525,2.76,8.675,8.675,0,0,1-.434,1.4,6.634,6.634,0,0,0-.189,3.4,2.128,2.128,0,0,0,.389.939,4.363,4.363,0,0,1,.35.406c.48.749-.462,1.678-.35,2.564.084.736.83,1.17,1.352,1.7,1.474,1.5,1.191,3.93.806,6,1.79-.158,3.334-1.622,5.128-1.5a3.068,3.068,0,0,1,2.641,2.035c-.067-1.734.55-3.212.7-4.942.2-2.252-1.257-4.269-1.961-6.413-1.026-3.124-.448-6.518-.7-9.807a32.773,32.773,0,0,0-.532-3.639c-.319-1.646-.784-3.446-2.178-4.381C543.585,260.358,540.881,261.206,539.309,259.7Z" transform="translate(-372.936 -205.616)" fill="#ff6584"/>
  <path id="Path_640" data-name="Path 640" d="M618.311,261.7c1.236,3.649.735,7.705-.529,11.337a5.909,5.909,0,0,0-.525,2.76,8.682,8.682,0,0,0,.434,1.4,6.634,6.634,0,0,1,.189,3.4,2.129,2.129,0,0,1-.389.939,4.363,4.363,0,0,0-.35.406c-.48.75.462,1.678.35,2.564-.084.736-.83,1.17-1.352,1.7-1.474,1.5-1.191,3.93-.806,6-1.79-.158-3.334-1.622-5.127-1.5a3.068,3.068,0,0,0-2.641,2.035c.067-1.734-.55-3.212-.7-4.942-.2-2.252,1.257-4.269,1.961-6.413,1.026-3.124.448-6.518.7-9.807a32.775,32.775,0,0,1,.525-3.621c.319-1.646.785-3.446,2.178-4.381C614.035,262.358,616.739,263.206,618.311,261.7Z" transform="translate(-417.282 -206.916)" opacity="0.1"/>
  <path id="Path_641" data-name="Path 641" d="M619.311,259.7c1.236,3.649.735,7.705-.529,11.337a5.908,5.908,0,0,0-.525,2.76,8.675,8.675,0,0,0,.434,1.4,6.633,6.633,0,0,1,.189,3.4,2.129,2.129,0,0,1-.389.939,4.367,4.367,0,0,0-.35.406c-.48.749.462,1.678.35,2.564-.084.736-.83,1.17-1.352,1.7-1.475,1.5-1.191,3.93-.806,6-1.79-.158-3.334-1.622-5.128-1.5a3.068,3.068,0,0,0-2.641,2.035c.067-1.734-.55-3.212-.7-4.942-.2-2.252,1.257-4.269,1.961-6.413,1.026-3.124.448-6.518.7-9.807a32.759,32.759,0,0,1,.525-3.621c.319-1.646.785-3.446,2.178-4.381C615.035,260.358,617.739,261.206,619.311,259.7Z" transform="translate(-417.932 -205.616)" fill="#ff6584"/>
  <ellipse id="Ellipse_173" data-name="Ellipse 173" cx="10.507" cy="7.005" rx="10.507" ry="7.005" transform="translate(172.317 22.566)" fill="#3f3d56"/>
  <path id="Path_642" data-name="Path 642" d="M561.3,286.623a4.9,4.9,0,0,1,4.553-4.9h-.35a4.9,4.9,0,0,0,0,9.807,2.323,2.323,0,0,0,.35-.018A4.9,4.9,0,0,1,561.3,286.623Z" transform="translate(-387.233 -219.924)" opacity="0.05"/>
  <ellipse id="Ellipse_174" data-name="Ellipse 174" cx="3.853" cy="4.903" rx="3.853" ry="4.903" transform="translate(174.068 61.792)" fill="#ff6584"/>
  <path id="Path_643" data-name="Path 643" d="M611.153,286.623a4.9,4.9,0,0,0-4.553-4.9h.35a4.9,4.9,0,0,1,0,9.807,2.369,2.369,0,0,1-.35-.018A4.9,4.9,0,0,0,611.153,286.623Z" transform="translate(-417.122 -219.924)" opacity="0.05"/>
  <ellipse id="Ellipse_175" data-name="Ellipse 175" cx="3.853" cy="4.903" rx="3.853" ry="4.903" transform="translate(186.326 61.792)" fill="#ff6584"/>
  <path id="Path_644" data-name="Path 644" d="M568.107,195.375c-5.625,0-10.22-2.949-10.507-6.655v.35c0,3.853,4.707,7,10.507,7s10.507-3.152,10.507-7v-.35C578.331,192.426,573.735,195.375,568.107,195.375Z" transform="translate(-385.283 -159.496)" opacity="0.1"/>
  <path id="Path_645" data-name="Path 645" d="M335.276,117.234l-5.436,3.45,3.3-6a5.376,5.376,0,0,0-3.285-1.173h-.088a6.337,6.337,0,0,1-1.128-.081l-1.842,1.166.788-1.436a6.556,6.556,0,0,1-3.222-2.452l-3.3,2.1,2.094-3.793a9.652,9.652,0,0,0-7.387-3.734c-3.429,0-6.483,2.042-8.455,5.219a6.3,6.3,0,0,1-5.6,3.012h-.182c-3.786,0-6.854,4.294-6.854,9.586s3.068,9.586,6.854,9.586a5.152,5.152,0,0,0,2.385-.6,9.893,9.893,0,0,1,8.3-.165,8.654,8.654,0,0,0,7.054,0,9.9,9.9,0,0,1,8.22.158,5.156,5.156,0,0,0,2.364.585c3.786,0,6.854-4.29,6.854-9.586A12.178,12.178,0,0,0,335.276,117.234Z" transform="translate(-214.448 -105.28)" fill="#f2f2f2"/>
  <path id="Path_646" data-name="Path 646" d="M325.032,154.444a10.122,10.122,0,0,0-5.874.641,8.647,8.647,0,0,1-7.05,0,9.894,9.894,0,0,0-8.3.161,5.113,5.113,0,0,1-2.385.6c-3.366,0-6.161-3.387-6.746-7.856a6.455,6.455,0,0,0,1.681-1.814c1.972-3.177,5.026-5.215,8.455-5.215s6.448,2.014,8.406,5.159a6.486,6.486,0,0,0,5.586,3.068h.088C321.585,149.17,323.9,151.317,325.032,154.444Z" transform="translate(-214.448 -128.464)" opacity="0.03"/>
  <path id="Path_647" data-name="Path 647" d="M903,299.954l-2.711,1.72,1.646-2.991a2.676,2.676,0,0,0-1.643-.585h-.042a3.371,3.371,0,0,1-.564-.042l-.918.581.392-.7a3.292,3.292,0,0,1-1.608-1.222l-1.643,1.051,1.051-1.888a4.816,4.816,0,0,0-3.7-1.877,5.016,5.016,0,0,0-4.2,2.6,3.152,3.152,0,0,1-2.8,1.5h-.091c-1.888,0-3.418,2.14-3.418,4.781s1.531,4.774,3.418,4.774a2.564,2.564,0,0,0,1.191-.3,4.938,4.938,0,0,1,4.14-.081,4.311,4.311,0,0,0,3.5,0,4.931,4.931,0,0,1,4.1.081,2.553,2.553,0,0,0,1.177.291c1.888,0,3.418-2.14,3.418-4.781A6.1,6.1,0,0,0,903,299.954Z" transform="translate(-596.554 -227.903)" fill="#f2f2f2"/>
  <path id="Path_648" data-name="Path 648" d="M897.937,318.505a5.058,5.058,0,0,0-2.931.319,4.3,4.3,0,0,1-1.751.371,4.346,4.346,0,0,1-1.751-.378,4.9,4.9,0,0,0-4.136.081,2.574,2.574,0,0,1-1.191.3c-1.678,0-3.075-1.692-3.366-3.919a3.239,3.239,0,0,0,.841-.9,4.707,4.707,0,0,1,8.406-.028,3.236,3.236,0,0,0,2.8,1.531h.046A3.524,3.524,0,0,1,897.937,318.505Z" transform="translate(-596.593 -239.45)" opacity="0.03"/>
  <path id="Path_649" data-name="Path 649" d="M779.586,179.177l4.357,2.763-2.644-4.809a4.3,4.3,0,0,1,2.634-.942H784a5.184,5.184,0,0,0,.9-.07l1.474.939-.63-1.152a5.254,5.254,0,0,0,2.581-1.982l2.641,1.674-1.667-3.033a7.725,7.725,0,0,1,5.919-2.995A8.114,8.114,0,0,1,802,173.752a5.064,5.064,0,0,0,4.476,2.413h.151c3.033,0,5.488,3.439,5.488,7.681s-2.452,7.681-5.488,7.681a4.136,4.136,0,0,1-1.916-.476,7.919,7.919,0,0,0-6.655-.133,6.931,6.931,0,0,1-5.653,0,7.922,7.922,0,0,0-6.588.13,4.126,4.126,0,0,1-1.891.466c-3.033,0-5.492-3.439-5.492-7.681A9.751,9.751,0,0,1,779.586,179.177Z" transform="translate(-528.77 -147.053)" fill="#f2f2f2"/>
  <path id="Path_650" data-name="Path 650" d="M805.17,208.935a8.094,8.094,0,0,1,4.7.511,6.931,6.931,0,0,0,5.653,0,7.933,7.933,0,0,1,6.655.13,4.118,4.118,0,0,0,1.916.48c2.693,0,4.935-2.714,5.4-6.3a5.232,5.232,0,0,1-1.345-1.453,7.576,7.576,0,0,0-13.519-.046,5.2,5.2,0,0,1-4.476,2.452h-.07C807.93,204.732,806.074,206.442,805.17,208.935Z" transform="translate(-546.145 -165.604)" opacity="0.03"/>
  <path id="Path_651" data-name="Path 651" d="M283.282,649.893c-1.447-2.676.193-5.954,2.077-8.339s4.185-4.872,4.136-7.912c-.07-4.371-4.711-6.952-8.406-9.267a40.977,40.977,0,0,1-7.551-6.063,11.028,11.028,0,0,1-2.322-3.107,12.666,12.666,0,0,1-.7-5.527q.242-9.351.925-18.689" transform="translate(-198.735 -420.876)" fill="none" stroke="#3f3d56" stroke-miterlimit="10" stroke-width="4"/>
  <path id="Path_652" data-name="Path 652" d="M253.067,577.932a6.8,6.8,0,0,1,3.4-5.6l1.524,3.016-.053-3.639a6.725,6.725,0,0,1,2.245-.27,6.816,6.816,0,1,1-7.12,6.5Z" transform="translate(-187.404 -408.165)" fill="#57b894"/>
  <path id="Path_653" data-name="Path 653" d="M286.387,703.261a6.816,6.816,0,1,0-.329-5.488l4.255,3.464-4.683-1.086A6.714,6.714,0,0,0,286.387,703.261Z" transform="translate(-208.567 -487.371)" fill="#57b894"/>
  <path id="Path_654" data-name="Path 654" d="M285.337,658.614a6.816,6.816,0,0,0,2.161-13.372l.035,2.8-1.545-3.058h-.017a6.818,6.818,0,1,0-.634,13.622Z" transform="translate(-204.152 -455.956)" fill="#57b894"/>
  <path id="Path_655" data-name="Path 655" d="M238.1,627.194a6.816,6.816,0,1,0-3.016-12.756l1.2,3.3-2.476-2.382a6.787,6.787,0,0,0-2.2,4.707,6.654,6.654,0,0,0,.172,1.877A6.812,6.812,0,0,0,238.1,627.194Z" transform="translate(-173.464 -435.548)" fill="#57b894"/>
  <path id="Path_656" data-name="Path 656" d="M254.271,586.661c1.573.175,3.1.662,4.683.76a5.085,5.085,0,0,0,4.308-1.506,21.567,21.567,0,0,0,1.264-2.217,4.84,4.84,0,0,1,1.716-1.618A6.816,6.816,0,1,1,253.5,586.6,6.936,6.936,0,0,1,254.271,586.661Z" transform="translate(-187.69 -415.087)" opacity="0.1"/>
  <path id="Path_657" data-name="Path 657" d="M238.412,634.432a6.819,6.819,0,0,0,6.483-9.723,5.022,5.022,0,0,0-1.373,1.373,21.74,21.74,0,0,1-1.348,2.252,5.557,5.557,0,0,1-4.522,1.58c-1.646-.077-3.233-.539-4.872-.7-.224-.021-.455-.035-.7-.042A6.812,6.812,0,0,0,238.412,634.432Z" transform="translate(-173.773 -442.786)" opacity="0.1"/>
  <path id="Path_658" data-name="Path 658" d="M285.9,666.106a6.816,6.816,0,0,0,6.539-9.6,5.489,5.489,0,0,0-1.443,1.4,22.888,22.888,0,0,1-1.478,2.3,6.237,6.237,0,0,1-4.826,1.692c-1.688-.035-3.313-.452-4.991-.578A6.823,6.823,0,0,0,285.9,666.106Z" transform="translate(-204.714 -463.449)" opacity="0.1"/>
  <path id="Path_659" data-name="Path 659" d="M287.79,711.372a6.816,6.816,0,0,0,12.423-5.562,6.854,6.854,0,0,0-1.5,1.334,26.7,26.7,0,0,1-1.825,2.42,8.547,8.547,0,0,1-5.646,1.986A29.743,29.743,0,0,1,287.79,711.372Z" transform="translate(-209.971 -495.482)" opacity="0.1"/>
  <path id="Path_660" data-name="Path 660" d="M865.963,670.894c-1.051-1.975.144-4.4,1.538-6.161s3.089-3.6,3.051-5.842c-.049-3.229-3.478-5.134-6.213-6.847a30.222,30.222,0,0,1-5.583-4.49,8.248,8.248,0,0,1-1.716-2.3,9.363,9.363,0,0,1-.515-4.08q.179-6.907.7-13.806" transform="translate(-579.504 -444.515)" fill="none" stroke="#3f3d56" stroke-miterlimit="10" stroke-width="4"/>
  <path id="Path_661" data-name="Path 661" d="M843.64,617.755a5.043,5.043,0,0,1,2.515-4.126l1.128,2.231-.035-2.7a5.111,5.111,0,0,1,1.66-.2,5.036,5.036,0,1,1-5.253,4.795Z" transform="translate(-571.142 -435.149)" fill="#57b894"/>
  <path id="Path_662" data-name="Path 662" d="M868.26,710.387a5.033,5.033,0,1,0-.245-4.052l3.152,2.56-3.457-.8A4.976,4.976,0,0,0,868.26,710.387Z" transform="translate(-586.781 -493.689)" fill="#57b894"/>
  <path id="Path_663" data-name="Path 663" d="M867.468,677.309a5.036,5.036,0,0,0,5.254-4.795,4.97,4.97,0,0,0-.434-2.291,5.047,5.047,0,0,0-3.233-2.8l.025,2.077-1.138-2.259h0a5.04,5.04,0,0,0-.473,10.069Z" transform="translate(-583.503 -470.417)" fill="#57b894"/>
  <path id="Path_664" data-name="Path 664" d="M832.578,654.144a5.036,5.036,0,1,0-2.224-9.421l.89,2.452-1.832-1.751a5,5,0,0,0-1.625,3.474,4.9,4.9,0,0,0,.126,1.4A5.033,5.033,0,0,0,832.578,654.144Z" transform="translate(-560.836 -455.37)" fill="#57b894"/>
  <path id="Path_665" data-name="Path 665" d="M844.553,624.213c1.159.13,2.291.49,3.457.564a3.757,3.757,0,0,0,3.184-1.114,15.081,15.081,0,0,0,.932-1.639,3.6,3.6,0,0,1,1.268-1.194A5.028,5.028,0,1,1,844,624.171C844.172,624.178,844.35,624.192,844.553,624.213Z" transform="translate(-571.375 -440.265)" opacity="0.1"/>
  <path id="Path_666" data-name="Path 666" d="M832.825,659.5a5.04,5.04,0,0,0,4.791-7.18,3.776,3.776,0,0,0-1.016,1.012,15.017,15.017,0,0,1-.995,1.664,4.122,4.122,0,0,1-3.341,1.17c-1.215-.056-2.385-.4-3.6-.511-.168-.018-.35-.028-.508-.031A5.033,5.033,0,0,0,832.825,659.5Z" transform="translate(-561.083 -460.726)" opacity="0.1"/>
  <path id="Path_667" data-name="Path 667" d="M867.894,682.855a5.036,5.036,0,0,0,5.254-4.795,4.97,4.97,0,0,0-.434-2.291,4.057,4.057,0,0,0-1.051,1.023,17.239,17.239,0,0,1-1.093,1.7,4.659,4.659,0,0,1-3.565,1.25c-1.289-.031-2.452-.333-3.685-.427a5.03,5.03,0,0,0,4.574,3.544Z" transform="translate(-583.929 -475.963)" opacity="0.1"/>
  <path id="Path_668" data-name="Path 668" d="M869.28,716.385a14.349,14.349,0,1,1,8.073-3.121,20.46,20.46,0,0,1-1.348,1.79,6.312,6.312,0,0,1-4.168,1.464A21.337,21.337,0,0,1,869.28,716.385Z" transform="translate(-587.802 -499.686)" opacity="0.1"/>
  <path id="Path_669" data-name="Path 669" d="M993.641,656.9c1.446-2.676-.193-5.954-2.077-8.339s-4.2-4.872-4.136-7.912c.07-4.371,4.711-6.952,8.406-9.267a40.976,40.976,0,0,0,7.555-6.063,11.03,11.03,0,0,0,2.322-3.107,12.668,12.668,0,0,0,.7-5.527q-.221-9.365-.921-18.685" transform="translate(-664.568 -425.431)" fill="none" stroke="#3f3d56" stroke-miterlimit="10" stroke-width="4"/>
  <path id="Path_670" data-name="Path 670" d="M1033.853,584.912a6.809,6.809,0,0,0-3.4-5.6l-1.527,3.019.049-3.653a6.735,6.735,0,0,0-2.245-.27,6.816,6.816,0,1,0,7.127,6.507Z" transform="translate(-685.882 -412.694)" fill="#57b894"/>
  <path id="Path_671" data-name="Path 671" d="M1000.531,710.261a6.816,6.816,0,1,1,.329-5.488l-4.255,3.464,4.683-1.086A6.713,6.713,0,0,1,1000.531,710.261Z" transform="translate(-664.717 -491.92)" fill="#57b894"/>
  <path id="Path_672" data-name="Path 672" d="M1001.557,665.614a6.816,6.816,0,0,1-2.161-13.372l-.035,2.8,1.562-3.058h0a6.818,6.818,0,1,1,.634,13.622Z" transform="translate(-669.109 -460.504)" fill="#57b894"/>
  <path id="Path_673" data-name="Path 673" d="M1048.823,634.194a6.816,6.816,0,1,1,3.016-12.756l-1.2,3.3,2.476-2.382a6.816,6.816,0,0,1-4.287,11.834Z" transform="translate(-699.83 -440.097)" fill="#57b894"/>
  <path id="Path_674" data-name="Path 674" d="M1032.939,593.661c-1.573.175-3.1.662-4.683.76a5.085,5.085,0,0,1-4.308-1.506,21.566,21.566,0,0,1-1.264-2.217,4.841,4.841,0,0,0-1.716-1.618,6.816,6.816,0,1,0,12.742,4.525A7.274,7.274,0,0,0,1032.939,593.661Z" transform="translate(-685.886 -419.635)" opacity="0.1"/>
  <path id="Path_675" data-name="Path 675" d="M1048.813,641.432a6.819,6.819,0,0,1-6.483-9.723,5.024,5.024,0,0,1,1.373,1.373,21.727,21.727,0,0,0,1.348,2.252,5.557,5.557,0,0,0,4.522,1.58c1.646-.077,3.233-.539,4.872-.7.224-.021.455-.035.7-.042a6.812,6.812,0,0,1-6.332,5.261Z" transform="translate(-699.819 -447.335)" opacity="0.1"/>
  <path id="Path_676" data-name="Path 676" d="M1001.572,673.106a6.816,6.816,0,0,1-6.539-9.6,5.489,5.489,0,0,1,1.443,1.4,22.882,22.882,0,0,0,1.478,2.3,6.237,6.237,0,0,0,4.826,1.692c1.688-.035,3.313-.452,4.991-.578A6.823,6.823,0,0,1,1001.572,673.106Z" transform="translate(-669.124 -467.997)" opacity="0.1"/>
  <path id="Path_677" data-name="Path 677" d="M1000.642,718.372a6.816,6.816,0,0,1-12.405-5.562,6.854,6.854,0,0,1,1.5,1.334,26.675,26.675,0,0,0,1.825,2.42,8.547,8.547,0,0,0,5.646,1.986A29.753,29.753,0,0,0,1000.642,718.372Z" transform="translate(-664.828 -500.03)" opacity="0.1"/>
  <path id="Path_678" data-name="Path 678" d="M276.83,747.979s5.376-.168,7-1.32,8.276-2.532,8.679-.7,8.083,9.208,2.01,9.257-14.111-.946-15.729-1.93S276.83,747.979,276.83,747.979Z" transform="translate(-202.849 -520.99)" fill="#656380"/>
  <path id="Path_679" data-name="Path 679" d="M294.626,759.976c-6.073.049-14.111-.946-15.729-1.93-1.233-.75-1.723-3.443-1.888-4.686h-.179s.35,4.336,1.958,5.324,9.656,1.979,15.729,1.93c1.751,0,2.357-.637,2.326-1.559C296.6,759.619,295.932,759.965,294.626,759.976Z" transform="translate(-202.849 -526.378)" opacity="0.2"/>
  <path id="Path_680" data-name="Path 680" d="M865,748.333s3.152-.095,4.087-.771,4.83-1.478,5.064-.4,4.718,5.373,1.173,5.4-8.238-.55-9.183-1.128S865,748.333,865,748.333Z" transform="translate(-585.021 -522.01)" fill="#656380"/>
  <path id="Path_681" data-name="Path 681" d="M875.374,755.333c-3.544.028-8.238-.553-9.183-1.128-.7-.438-1.005-2.01-1.1-2.735H865s.2,2.532,1.142,3.107,5.639,1.159,9.183,1.128c1.023,0,1.376-.371,1.355-.911C876.526,755.123,876.134,755.326,875.374,755.333Z" transform="translate(-585.021 -525.15)" opacity="0.2"/>
  <path id="Path_682" data-name="Path 682" d="M975.83,751.979s5.376-.168,7-1.32,8.276-2.532,8.679-.7,8.083,9.208,2.01,9.257-14.111-.946-15.729-1.93S975.83,751.979,975.83,751.979Z" transform="translate(-657.034 -523.589)" fill="#656380"/>
  <path id="Path_683" data-name="Path 683" d="M993.626,763.976c-6.073.049-14.111-.946-15.729-1.93-1.233-.75-1.723-3.443-1.888-4.686h-.179s.35,4.336,1.958,5.324,9.656,1.979,15.729,1.93c1.751,0,2.357-.637,2.326-1.559C995.6,763.619,994.932,763.965,993.626,763.976Z" transform="translate(-657.034 -528.977)" opacity="0.2"/>
</svg>
