<svg xmlns="http://www.w3.org/2000/svg" width="59.755" height="97.258" viewBox="0 0 59.755 97.258">
  <g id="beuty" transform="translate(-418 -807.799)">
    <g id="Group_76" data-name="Group 76" transform="translate(4 -34)">
      <path id="Path_397" data-name="Path 397" d="M155.649,17.238l-12.557-3.147a4.29,4.29,0,0,0-5.333,4.162V52.029H158.9V21.4a4.29,4.29,0,0,0-3.247-4.162Z" transform="translate(283.657 830.49)" fill="#da4a54"/>
      <path id="Path_398" data-name="Path 398" d="M146.5,14.94a4.268,4.268,0,0,0-1.56,3.308V43.435h-7.179V18.248a4.29,4.29,0,0,1,5.332-4.162Z" transform="translate(283.657 830.494)" fill="#c32430"/>
      <path id="Path_399" data-name="Path 399" d="M145.933,169.146H122.762a2.262,2.262,0,0,0-2.262,2.262v14.919h27.694V171.408a2.262,2.262,0,0,0-2.262-2.262Z" transform="translate(297.638 704.783)" fill="#e9ccdb"/>
      <path id="Path_400" data-name="Path 400" d="M130.059,169.146h-7.3a2.262,2.262,0,0,0-2.262,2.262v14.919h9.559Z" transform="translate(297.638 704.783)" fill="#caa4bc"/>
      <path id="Path_401" data-name="Path 401" d="M139.406,233.947v43.792a9.025,9.025,0,0,1-9.026,9.026H115.353a9.025,9.025,0,0,1-9.026-9.026V233.947Z" transform="translate(309.119 652.291)" fill="#6c63ff"/>
      <path id="Path_402" data-name="Path 402" d="M106.328,233.947h33.079v2.861H106.328Z" transform="translate(309.118 652.291)" fill="#65617d"/>
      <path id="Path_403" data-name="Path 403" d="M125.61,286.761H115.352a9.025,9.025,0,0,1-9.026-9.026V233.943h10.258v43.792A9.025,9.025,0,0,0,125.61,286.761Z" transform="translate(309.12 652.295)" fill="#65617d"/>
      <path id="Path_404" data-name="Path 404" d="M343.344,294.691H328.727v37.161a4.118,4.118,0,0,0,4.118,4.118h6.38a4.118,4.118,0,0,0,4.118-4.118V294.691Z" transform="translate(128.965 603.086)" fill="#818181"/>
      <path id="Path_405" data-name="Path 405" d="M337.818,335.963h-4.972a4.117,4.117,0,0,1-4.118-4.118V294.683H333.7v37.162A4.118,4.118,0,0,0,337.818,335.963Z" transform="translate(128.964 603.093)" fill="#454545"/>
      <path id="Path_406" data-name="Path 406" d="M361.035,57.424a1.446,1.446,0,0,1-1.446-1.446V1.446a1.446,1.446,0,0,1,2.892,0V55.979a1.446,1.446,0,0,1-1.446,1.446Z" transform="translate(103.966 841.799)" fill="#454545"/>
      <g id="Group_68" data-name="Group 68" transform="translate(456.759 844.532)">
        <path id="Path_407" data-name="Path 407" d="M338.853,17.284H325.262a1.446,1.446,0,1,1,0-2.892h13.591a1.446,1.446,0,1,1,0,2.892Z" transform="translate(-323.816 -14.392)" fill="#818181"/>
        <path id="Path_408" data-name="Path 408" d="M338.853,213.025H325.262a1.446,1.446,0,1,1,0-2.892h13.591a1.446,1.446,0,0,1,0,2.892Z" transform="translate(-323.816 -172.951)" fill="#818181"/>
        <path id="Path_409" data-name="Path 409" d="M338.853,180.4H325.262a1.446,1.446,0,1,1,0-2.892h13.591a1.446,1.446,0,1,1,0,2.892Z" transform="translate(-323.816 -146.525)" fill="#818181"/>
        <path id="Path_410" data-name="Path 410" d="M338.853,147.779H325.262a1.446,1.446,0,1,1,0-2.892h13.591a1.446,1.446,0,1,1,0,2.892Z" transform="translate(-323.816 -120.099)" fill="#818181"/>
        <path id="Path_411" data-name="Path 411" d="M338.853,115.155H325.262a1.446,1.446,0,1,1,0-2.892h13.591a1.446,1.446,0,1,1,0,2.892Z" transform="translate(-323.816 -93.672)" fill="#818181"/>
        <path id="Path_412" data-name="Path 412" d="M338.853,82.531H325.262a1.446,1.446,0,1,1,0-2.892h13.591a1.446,1.446,0,0,1,0,2.892Z" transform="translate(-323.816 -67.245)" fill="#818181"/>
        <path id="Path_413" data-name="Path 413" d="M338.853,49.908H325.262a1.446,1.446,0,1,1,0-2.892h13.591a1.446,1.446,0,1,1,0,2.892Z" transform="translate(-323.816 -40.819)" fill="#818181"/>
      </g>
      <path id="Path_414" data-name="Path 414" d="M133.239,229.225H100.16a1.446,1.446,0,1,1,0-2.892h33.08a1.446,1.446,0,1,1,0,2.892Z" transform="translate(315.286 658.459)" fill="#f9f6f9"/>
      <path id="Path_415" data-name="Path 415" d="M111.842,229.225H100.16a1.446,1.446,0,1,1,0-2.892h11.683a1.446,1.446,0,1,0,0,2.892Z" transform="translate(315.286 658.459)" fill="#dfeaef"/>
      <path id="Path_416" data-name="Path 416" d="M337.179,289.963H322.563a1.446,1.446,0,0,1,0-2.892h14.617a1.446,1.446,0,0,1,0,2.892Z" transform="translate(135.13 609.259)" fill="#f9f6f9"/>
      <path id="Path_417" data-name="Path 417" d="M327.838,289.963h-5.276a1.446,1.446,0,0,1,0-2.892h5.276a1.446,1.446,0,0,0,0,2.892Z" transform="translate(135.13 609.259)" fill="#dfeaef"/>
    </g>
  </g>
</svg>
