<svg xmlns="http://www.w3.org/2000/svg" width="86.744" height="97.258" viewBox="0 0 86.744 97.258">
  <g id="else" transform="translate(-1670 -807.799)">
    <g id="Group_81" data-name="Group 81" transform="translate(4 -34)">
      <path id="Path_418" data-name="Path 418" d="M171.311,30.683h-41.5a3.975,3.975,0,0,1-3.975-3.975V13.014A13.029,13.029,0,0,1,138.847,0h23.424a13.029,13.029,0,0,1,13.014,13.014V26.709A3.975,3.975,0,0,1,171.311,30.683Zm-37.528-7.949h33.554v-9.72a5.071,5.071,0,0,0-5.065-5.065H138.847a5.071,5.071,0,0,0-5.065,5.065Z" transform="translate(1558.813 841.799)" fill="#f1d333"/>
      <g id="Group_69" data-name="Group 69" transform="translate(1684.646 841.799)">
        <path id="Path_419" data-name="Path 419" d="M321.357,41.848h-3.7a5.071,5.071,0,0,1,5.065,5.065v9.72h3.7v-9.72A5.071,5.071,0,0,0,321.357,41.848Z" transform="translate(-281.218 -33.899)" fill="#e7a52e"/>
        <path id="Path_420" data-name="Path 420" d="M129.534,26.709V13.014A13.029,13.029,0,0,1,142.548,0h-3.7a13.029,13.029,0,0,0-13.014,13.014V26.709a3.975,3.975,0,0,0,3.975,3.975h3.7A3.975,3.975,0,0,1,129.534,26.709Z" transform="translate(-125.833)" fill="#e7a52e"/>
      </g>
      <path id="Path_421" data-name="Path 421" d="M127.627,235.648v31.3a11.712,11.712,0,0,1-11.713,11.711H60.685a11.71,11.71,0,0,1-11.711-11.711v-31.3a11.71,11.71,0,0,1,11.711-11.711h55.228A11.712,11.712,0,0,1,127.627,235.648Z" transform="translate(1621.072 660.4)" fill="#6c63ff"/>
      <path id="Path_422" data-name="Path 422" d="M70.464,278.657h-9.78a11.71,11.71,0,0,1-11.711-11.711v-31.3a11.71,11.71,0,0,1,11.711-11.711h9.78a11.712,11.712,0,0,0-11.711,11.711v31.3A11.712,11.712,0,0,0,70.464,278.657Z" transform="translate(1621.073 660.4)" fill="#65617d"/>
      <path id="Path_423" data-name="Path 423" d="M127.626,235.648V256.8a12.254,12.254,0,0,1-8.255,3.184H57.226a12.251,12.251,0,0,1-8.253-3.182V235.648a11.71,11.71,0,0,1,11.711-11.711h55.228A11.712,11.712,0,0,1,127.626,235.648Z" transform="translate(1621.073 660.4)" fill="#65617d"/>
      <path id="Path_424" data-name="Path 424" d="M102.12,101.639H39.974a12.3,12.3,0,0,0-12.3,12.3V144.06a12.3,12.3,0,0,0,12.3,12.3H102.12a12.3,12.3,0,0,0,12.3-12.3V113.938A12.3,12.3,0,0,0,102.12,101.639Z" transform="translate(1638.325 759.467)" fill="#6c63ff"/>
      <path id="Path_425" data-name="Path 425" d="M47.376,156.356h-7.4a12.3,12.3,0,0,1-12.3-12.3V113.934a12.3,12.3,0,0,1,12.3-12.3h7.4a12.3,12.3,0,0,0-12.3,12.3v30.122a12.3,12.3,0,0,0,12.3,12.3Z" transform="translate(1638.325 759.471)" fill="#65617d"/>
      <path id="Path_426" data-name="Path 426" d="M213.856,309.972H204.58a6.333,6.333,0,0,1-6.333-6.333V287.491a6.333,6.333,0,0,1,6.333-6.333h9.276a6.333,6.333,0,0,1,6.333,6.333V303.64A6.333,6.333,0,0,1,213.856,309.972Z" transform="translate(1500.155 614.049)" fill="#f1d333"/>
      <path id="Path_427" data-name="Path 427" d="M207.753,309.967H204.58a6.332,6.332,0,0,1-6.332-6.332V287.486a6.334,6.334,0,0,1,6.332-6.334h3.174a6.334,6.334,0,0,0-6.334,6.334v16.149A6.332,6.332,0,0,0,207.753,309.967Z" transform="translate(1500.154 614.053)" fill="#e7a52e"/>
      <path id="Path_428" data-name="Path 428" d="M230,329.436a.371.371,0,0,1-.37-.37V312.916a.371.371,0,0,1,.37-.37h9.276a.371.371,0,0,1,.37.37v16.149a.371.371,0,0,1-.37.37Z" transform="translate(1474.73 588.623)" fill="#65617d"/>
    </g>
  </g>
</svg>
