<svg xmlns="http://www.w3.org/2000/svg" width="97.258" height="87.935" viewBox="0 0 97.258 87.935">
  <g id="house" transform="translate(-1410 -812.849)">
    <g id="Group_80" data-name="Group 80" transform="translate(4 -34)">
      <path id="Path_370" data-name="Path 370" d="M40.312,429.44V436.6a3.863,3.863,0,0,1-3.863,3.863h-7.5a3.864,3.864,0,0,1-3.863-3.863V429.44Z" transform="translate(1385.68 494.323)" fill="#818181"/>
      <path id="Path_371" data-name="Path 371" d="M33.631,440.461H28.946a3.864,3.864,0,0,1-3.863-3.863V429.44h4.685V436.6A3.864,3.864,0,0,0,33.631,440.461Z" transform="translate(1385.682 494.323)" fill="#454545"/>
      <path id="Path_372" data-name="Path 372" d="M421.983,429.44V436.6a3.863,3.863,0,0,1-3.863,3.863h-7.5a3.864,3.864,0,0,1-3.863-3.863V429.44Z" transform="translate(1076.51 494.323)" fill="#818181"/>
      <g id="Group_66" data-name="Group 66" transform="translate(1410.765 923.762)">
        <path id="Path_373" data-name="Path 373" d="M415.3,440.459h-4.685a3.864,3.864,0,0,1-3.863-3.863v-7.158h4.685V436.6A3.864,3.864,0,0,0,415.3,440.459Z" transform="translate(-334.252 -429.438)" fill="#454545"/>
        <path id="Path_374" data-name="Path 374" d="M25.085,429.44H40.312v4.3H25.085Z" transform="translate(-25.085 -429.44)" fill="#454545"/>
        <path id="Path_375" data-name="Path 375" d="M406.757,429.44h15.227v4.3H406.757Z" transform="translate(-334.256 -429.44)" fill="#454545"/>
      </g>
      <path id="Path_376" data-name="Path 376" d="M99.415,24.546H37.2A12.907,12.907,0,0,0,24.292,37.453V70.705h88.029V37.453A12.907,12.907,0,0,0,99.415,24.546Z" transform="translate(1386.323 822.304)" fill="#6c63ff"/>
      <path id="Path_377" data-name="Path 377" d="M41.233,24.54A12.907,12.907,0,0,0,28.327,37.448V70.7H24.292V37.448A12.907,12.907,0,0,1,37.2,24.54Z" transform="translate(1386.323 822.309)" fill="#65617d"/>
      <path id="Path_378" data-name="Path 378" d="M111.254,81.69A56.434,56.434,0,0,1,87.1,105.848,56.414,56.414,0,0,1,62.938,81.69,56.261,56.261,0,0,1,84.472,59q1.286-.76,2.624-1.466A56.455,56.455,0,0,1,111.254,81.69Z" transform="translate(1355.018 795.584)" fill="#e4f6ff"/>
      <path id="Path_379" data-name="Path 379" d="M87.1,112.1A56.414,56.414,0,0,1,62.939,87.94,56.26,56.26,0,0,1,84.473,65.248C78.193,71.43,69.682,95.813,87.1,112.1Z" transform="translate(1355.017 789.334)" fill="#d3effb"/>
      <path id="Path_380" data-name="Path 380" d="M243.083,81.685a56.553,56.553,0,0,0-24.219-24.151,56.427,56.427,0,0,0-24.158,24.158,56.427,56.427,0,0,0,24.158,24.158A56.582,56.582,0,0,0,243.083,81.685Z" transform="translate(1248.28 795.583)" fill="#e4f6ff"/>
      <path id="Path_381" data-name="Path 381" d="M218.864,112.1a56.414,56.414,0,0,1-24.158-24.158A56.26,56.26,0,0,1,216.24,65.249C209.96,71.431,201.449,95.814,218.864,112.1Z" transform="translate(1248.28 789.333)" fill="#d3effb"/>
      <path id="Path_382" data-name="Path 382" d="M108.009,235.083H28.6a4.313,4.313,0,0,0-4.313,4.313v21.06a4.313,4.313,0,0,0,4.313,4.313h79.4a4.313,4.313,0,0,0,4.313-4.313V239.4A4.313,4.313,0,0,0,108.009,235.083Z" transform="translate(1386.323 651.76)" fill="#f9f6f9"/>
      <path id="Path_383" data-name="Path 383" d="M38.237,264.77H28.6a4.314,4.314,0,0,1-4.313-4.313V239.4a4.314,4.314,0,0,1,4.313-4.313h9.632a4.312,4.312,0,0,0-4.313,4.313v21.06a4.312,4.312,0,0,0,4.313,4.313Z" transform="translate(1386.323 651.759)" fill="#dfeaef"/>
      <path id="Path_384" data-name="Path 384" d="M92.493,267.524H4.765A4.765,4.765,0,0,0,0,272.289v23.268a4.765,4.765,0,0,0,4.765,4.765H92.493a4.765,4.765,0,0,0,4.765-4.765V272.289A4.765,4.765,0,0,0,92.493,267.524Z" transform="translate(1406 625.482)" fill="#6c63ff"/>
      <path id="Path_385" data-name="Path 385" d="M10.622,300.325H4.765A4.765,4.765,0,0,1,0,295.56V272.292a4.765,4.765,0,0,1,4.765-4.765h5.857a4.765,4.765,0,0,0-4.765,4.765V295.56A4.765,4.765,0,0,0,10.622,300.325Z" transform="translate(1406 625.479)" fill="#65617d"/>
    </g>
  </g>
</svg>
