<svg xmlns="http://www.w3.org/2000/svg" width="188" height="283" viewBox="0 0 188 283">
  <g id="Group_173" data-name="Group 173" transform="translate(-215 -88)">
    <g id="Group_172" data-name="Group 172">
      <g id="Rectangle_980" data-name="Rectangle 980" transform="translate(215 88)" fill="#f8f8f8" stroke="#707070" stroke-width="0.1">
        <rect width="188" height="283" rx="15" stroke="none"/>
        <rect x="0.05" y="0.05" width="187.9" height="282.9" rx="14.95" fill="none"/>
      </g>
      <ellipse id="Ellipse_139" data-name="Ellipse 139" cx="45.347" cy="8.84" rx="45.347" ry="8.84" transform="translate(242.037 285.32)" fill="#3f3d56"/>
      <path id="Path_494" data-name="Path 494" d="M183.457,662.374s-8.408-2.261-9.994-2.094,2.4-7.753,5.06-6.787,6.2,3.507,8.225-.082,3.161-5.52,5.628-5.327,5.884-1.544,8.349,0,4.2,3.448,7.6,3.366,6.633-7.807,9.285-4.716,5.833,5.918,8.326,4.89,5.339.517,7.616,2.256,6.263.966,7.781-.386a6.71,6.71,0,0,1,5.884-2.128c3.225.19,13.475,2.511,17.271,5.4s-4.934,6.568-9.11,6.568-4.934,1.159-8.541,2.9-9.5-.966-13.665,1.932-9.5-1.545-16.7,0-5.694,3.669-9.87,2.128-2.657-2.128-8.73-2.511-12.715.966-13.285-1.545-4.361-3.091-6.64-3.864S183.457,662.374,183.457,662.374Z" transform="translate(67.628 -370.342)" fill="#3f3d56"/>
      <path id="Path_496" data-name="Path 496" d="M688.169,462.05l-.5-.314c-.049-.029-.1-.061-.144-.092a4.795,4.795,0,0,0,.491-9.341l.025,1.976-1.085-2.149h-.013a4.8,4.8,0,0,0-5.013,4.567v.272a5.731,5.731,0,0,1-.948-1.4,8.2,8.2,0,0,1-.432-3.6c.072-2.8.193-5.614.35-8.421a4.792,4.792,0,0,0,4.256-4.536v-.544c-.01-.139-.023-.277-.044-.413a.139.139,0,0,0-.011-.067c-.02-.115-.044-.228-.072-.341-.01-.043-.02-.083-.031-.126-.034-.123-.07-.242-.115-.362-.013-.039-.029-.077-.046-.116-.034-.088-.07-.174-.11-.259-.021-.046-.041-.09-.062-.134a.376.376,0,0,1-.016-.034h0A4.792,4.792,0,0,0,680.594,434a4.847,4.847,0,0,0-1.578.19l.031,2.572-1.072-2.128a4.765,4.765,0,0,0-2.292,5.167h0a.476.476,0,0,0,.026.1c.015.064.031.126.047.188s.049.164.075.237.039.118.062.175c.031.085.069.164.106.25.021.049.041.1.064.146.061.123.126.244.2.362.025.043.052.082.079.121a2.407,2.407,0,0,0,.164.236c.034.047.072.092.108.138s.106.133.164.2l.121.133q.088.093.182.182l.126.116c.07.062.144.123.219.18.038.029.074.061.113.09.113.083.229.164.35.236.023.015.047.026.07.039a3.489,3.489,0,0,0,.309.164l.139.062c.087.039.174.077.264.11.052.021.1.039.164.057.088.029.179.057.268.082l.164.043c.1.023.2.043.3.061h.02q-.1,1.778-.177,3.556a4.792,4.792,0,0,0-6.655-2.079l.848,2.321-1.743-1.673a4.769,4.769,0,0,0-1.549,3.31,4.706,4.706,0,0,0,.121,1.321,4.792,4.792,0,0,0,8.816,1.31c0,.121,0,.242-.011.362a9.527,9.527,0,0,0,.548,4.178,8.413,8.413,0,0,0,1.766,2.38q.655.668,1.349,1.29a4.8,4.8,0,0,0,1.73,1.441q1.146.876,2.361,1.637l.508.314c.455.283.923.575,1.382.876-.08,0-.164-.016-.242-.02a4.793,4.793,0,0,0-4.72,3.12l2.994,2.438-3.3-.763a4.8,4.8,0,0,0,6.876,4.319c-.075.092-.149.183-.223.277-.147.183-.295.365-.437.545-1.95,2.47-2.492,4.813-1.527,6.6l1.175-.634c-.94-1.74.473-3.967,1.4-5.139.139-.178.283-.357.429-.537,1.246-1.547,2.657-3.3,2.619-5.453C693.848,465.569,690.7,463.623,688.169,462.05Z" transform="translate(-348.18 -193.037)" fill="#dbd9f9"/>
      <path id="Path_497" data-name="Path 497" d="M595.441,701.184s-5.666-1.5-6.733-1.39,1.619-5.131,3.408-4.492,4.178,2.321,5.542-.054,2.128-3.654,3.793-3.526,3.963-1.023,5.625,0S609.9,694,612.2,693.949s4.468-5.168,6.257-3.124,3.929,3.919,5.609,3.238,3.6.342,5.132,1.493a4.808,4.808,0,0,0,5.239-.255A4.554,4.554,0,0,1,638.4,693.9c2.174.128,9.078,1.662,11.635,3.58s-3.325,4.346-6.137,4.346-3.325.768-5.754,1.919-6.393-.64-9.205,1.279-6.393-1.023-11.252,0-3.836,2.429-6.65,1.406-1.789-1.406-5.88-1.662-8.567.638-8.952-1.023-2.947-2.046-4.474-2.557S595.441,701.184,595.441,701.184Z" transform="translate(-279.738 -407.423)" fill="#3f3d56"/>
      <path id="Path_498" data-name="Path 498" d="M526.1,510.081,523.91,516.8l-.095.293-3.672,11.256-6.286,4.248L483.33,519.766l2.893-11.7.154-.615,1.549-6.262,0-.015,9.4-1.175Z" transform="translate(-163.475 -233.998)" fill="#f8ce6d"/>
      <path id="Path_499" data-name="Path 499" d="M549.578,510.081l-5.961,18.273-6.286,4.248,5.771-19.941L511.4,501.19l0-.015L520.8,500Z" transform="translate(-186.95 -233.998)" opacity="0.1"/>
      <path id="Path_500" data-name="Path 500" d="M550.656,510.64l-.506-.308,5.072-.532,21.727,7.681-.612.321L554.9,510.244Z" transform="translate(-219.356 -242.194)" opacity="0.1"/>
      <path id="Path_501" data-name="Path 501" d="M538.687,554.873l-6.345,2.984L501.154,545.52l-.154.616,31.216,12.16,6.376-3.13" transform="translate(-178.252 -272.066)" opacity="0.1"/>
      <ellipse id="Ellipse_140" data-name="Ellipse 140" cx="1.092" cy="1.179" rx="1.092" ry="1.179" transform="translate(324.093 271.953) rotate(-72.75)" fill="#3f3d56"/>
      <ellipse id="Ellipse_143" data-name="Ellipse 143" cx="1.092" cy="1.179" rx="1.092" ry="1.179" transform="translate(320.73 284.724) rotate(-72.75)" fill="#3f3d56"/>
      <path id="Path_502" data-name="Path 502" d="M695.023,592.789c-.065.213-.591,0-1.259-.21s-1.188-.439-1.123-.655.694-.327,1.362-.12S695.091,592.576,695.023,592.789Z" transform="translate(-366.856 -324.924)" fill="#3f3d56"/>
      <ellipse id="Ellipse_144" data-name="Ellipse 144" cx="0.403" cy="1.149" rx="0.403" ry="1.149" transform="translate(329.216 266.801) rotate(-72.75)" fill="#3f3d56"/>
      <path id="Path_503" data-name="Path 503" d="M781.156,624.651c-.066.213-.722.016-1.359-.182s-1.133-.419-1.067-.632.67-.327,1.31-.136S781.225,624.435,781.156,624.651Z" transform="translate(-438.851 -351.61)" fill="#3f3d56"/>
      <ellipse id="Ellipse_145" data-name="Ellipse 145" cx="0.403" cy="0.992" rx="0.403" ry="0.992" transform="translate(333.942 266.703) rotate(-72.75)" fill="#3f3d56"/>
      <path id="Path_508" data-name="Path 508" d="M756.9,647.629a1.035,1.035,0,0,0-.475-1.2,1.053,1.053,0,0,0,.215-.381,5.171,5.171,0,0,1-1.744-2.55,2.7,2.7,0,0,1-2.231.225,1.034,1.034,0,0,0-.661.675.3.3,0,0,1-.016.066l-.036.018a1.035,1.035,0,1,0-1,1.757.925.925,0,0,0,.164.036l.013.38,4.954,2.025-.033-.327A1.038,1.038,0,0,0,756.9,647.629Z" transform="translate(-415.013 -368.162)" opacity="0.1"/>
      <path id="Path_509" data-name="Path 509" d="M749.4,672.209a1.036,1.036,0,0,1-1.179.539,1.011,1.011,0,0,1-.11.422,1.035,1.035,0,0,1-1.39.46,1.052,1.052,0,0,1-.381-.327,1.035,1.035,0,0,1-1.932-.67,1.049,1.049,0,0,1-.327-.1,1.035,1.035,0,0,1-.46-1.388l.033-.061-.013-.038a1.025,1.025,0,0,1-.431-.11,1.04,1.04,0,0,1,.94-1.855,1.086,1.086,0,0,1,.139.084l.272-.264,4.983,1.992-.25.213A1.035,1.035,0,0,1,749.4,672.209Z" transform="translate(-408.672 -389.49)" opacity="0.1"/>
      <path id="Path_510" data-name="Path 510" d="M758.933,651.473l-1.2,3.9a1.172,1.172,0,0,0,.709,1.446h0a1.171,1.171,0,0,0,1.526-.75l1.2-3.9a1.169,1.169,0,0,0-.832-1.473h0A1.169,1.169,0,0,0,758.933,651.473Z" transform="translate(-421.248 -374.234)" opacity="0.1"/>
      <path id="Path_511" data-name="Path 511" d="M759.848,653.317l-1.092,3.5a1.048,1.048,0,0,0,.637,1.295h0a1.049,1.049,0,0,0,1.367-.673l1.085-3.5a1.051,1.051,0,0,0-.746-1.329h0A1.051,1.051,0,0,0,759.848,653.317Z" transform="translate(-422.111 -375.841)" fill="#3f3d56"/>
      <path id="Path_512" data-name="Path 512" d="M643.081,712.118s-5.666-1.5-6.733-1.388,1.619-5.132,3.408-4.492,4.178,2.32,5.542-.056,2.128-3.652,3.793-3.525,3.963-1.023,5.625,0,2.827,2.28,5.122,2.226,4.468-5.168,6.259-3.122,3.929,3.917,5.609,3.238,3.6.342,5.131,1.493a4.81,4.81,0,0,0,5.239-.255,4.554,4.554,0,0,1,3.963-1.408c2.174.128,9.078,1.663,11.635,3.58s-3.323,4.348-6.137,4.348-3.323.766-5.753,1.917-6.394-.638-9.207,1.279-6.393-1.021-11.252,0-3.836,2.429-6.648,1.408-1.791-1.408-5.882-1.663-8.567.64-8.95-1.023-2.939-2.045-4.474-2.557S643.081,712.118,643.081,712.118Z" transform="translate(-319.579 -416.569)" fill="#3f3d56"/>
      <g id="Group_155" data-name="Group 155" transform="translate(-24 -1)">
        <path id="Path_524" data-name="Path 524" d="M364.406,237.405a1.215,1.215,0,0,1,.084-.577c.218-.388.79-.283,1.221-.172,1.735.437,3.562.04,5.346.143s3.8.994,4.155,2.746a13,13,0,0,0,3.3-3.387,4.061,4.061,0,0,0,.86-2.479c-.1-1.283-1.172-2.242-2.169-3.056l-2.964-2.425a4.449,4.449,0,0,0-1.331-.846,6.624,6.624,0,0,0-2.156-.124c-2.156,0-4.465-.981-6.389,0a6.8,6.8,0,0,0-1.989,1.808l-2.651,3.139a1.651,1.651,0,0,0-.423.719,3.222,3.222,0,0,0,.189,1.145c.127.7-.178,1.447.057,2.121.385,1.118,1.741,1.277,2.571,1.916.31.24.795,1.048,1.161,1.04C363.929,239.108,364.387,237.92,364.406,237.405Z" transform="translate(-68.382 -81.749)" fill="#3f3d56"/>
        <path id="Path_525" data-name="Path 525" d="M370.681,283.041a4.722,4.722,0,0,1-1.029,2.374,7.113,7.113,0,0,1-2.382,2.506,22.888,22.888,0,0,0,16.916,1.784c.908-.269,1.98-.83,1.927-1.776A9.661,9.661,0,0,1,383,286.681a6.787,6.787,0,0,1-2.282-3.233,36.324,36.324,0,0,1-1.029-3.888.733.733,0,0,0-.167-.361.744.744,0,0,0-.512-.135L375.424,279a10.69,10.69,0,0,0-4.443.59C369.277,280.371,370.73,281.591,370.681,283.041Z" transform="translate(-74.221 -119.889)" fill="#ffc0c6"/>
        <path id="Path_526" data-name="Path 526" d="M370.681,283.041a4.722,4.722,0,0,1-1.029,2.374,7.113,7.113,0,0,1-2.382,2.506,22.888,22.888,0,0,0,16.916,1.784c.908-.269,1.98-.83,1.927-1.776A9.661,9.661,0,0,1,383,286.681a6.787,6.787,0,0,1-2.282-3.233,36.324,36.324,0,0,1-1.029-3.888.733.733,0,0,0-.167-.361.744.744,0,0,0-.512-.135L375.424,279a10.69,10.69,0,0,0-4.443.59C369.277,280.371,370.73,281.591,370.681,283.041Z" transform="translate(-74.221 -119.889)" opacity="0.1"/>
        <path id="Path_527" data-name="Path 527" d="M355.307,740.074c-.884,1.347-2.04,2.487-3.01,3.772a7.612,7.612,0,0,0-1.792,4.392.7.7,0,0,0,.186.566.727.727,0,0,0,.369.116l3.745.48a6.278,6.278,0,0,0,1.725.059,6.119,6.119,0,0,0,1.768-.644,2.439,2.439,0,0,0,1.062-.808c.181-.3.229-.66.4-.962.52-.913,1.83-.873,2.87-.714.3-2.778-.469-5.548-1.231-8.237a.843.843,0,0,0-.7-.722c-.9-.294-3.066-1.444-3.821-.905C356.331,736.864,355.754,739.36,355.307,740.074Z" transform="translate(-61.97 -453.985)" fill="#575a88"/>
        <path id="Path_528" data-name="Path 528" d="M427.632,744.561a3.656,3.656,0,0,1,2.263-.593c1.094.245,1.582,1.539,2.511,2.156a4.474,4.474,0,0,0,1.959.587,45.624,45.624,0,0,0,6.332.375c.676,0,1.528-.162,1.692-.808s-.458-1.161-1.01-1.5a29.642,29.642,0,0,0-3.74-1.943,7.5,7.5,0,0,1-1.784-.948,6.689,6.689,0,0,1-1.786-3.029c-.331-.895-.636-2.827-1.315-3.5-.744-.73-1.743-.245-2.676-.04-1.45.318-3.147.539-4.08,1.84C424.635,739.061,423.587,746.433,427.632,744.561Z" transform="translate(-116.236 -452.994)" fill="#575a88"/>
        <path id="Path_529" data-name="Path 529" d="M350.373,449.046a27.468,27.468,0,0,0-2.01,9.576,54.476,54.476,0,0,0,.466,7.343q.639,5.928,1.283,11.856a33.448,33.448,0,0,0,.773,4.88c.466,1.792,1.223,3.5,1.765,5.265,1.676,5.492,1.2,11.414.092,17.048a8.516,8.516,0,0,0-.232,1.886,13.167,13.167,0,0,0,.636,2.778c1.45,5.618-1.886,11.856.291,17.245a.855.855,0,0,0,.342.472.868.868,0,0,0,.679-.03,9.187,9.187,0,0,0,1.776-.841,10.835,10.835,0,0,0,4.4,3.188c1.277-.315,1.517-1.867,1.935-3.115a21.282,21.282,0,0,0,.776-2.713,21.593,21.593,0,0,0,.283-3.417l1.1-38.9-.081,11.87a14.015,14.015,0,0,0,.181,2.872c.162.789.458,1.547.628,2.336a15.9,15.9,0,0,1,.2,3.454,101.53,101.53,0,0,0,1.873,20.43,21.079,21.079,0,0,0,2.051,6.383.7.7,0,0,0,.4.393c.234.051.45-.135.628-.3a6.868,6.868,0,0,1,7.887-.857c-.237-1.143.851-2.471.073-3.339a7.951,7.951,0,0,0-.808-.59,2.631,2.631,0,0,1-.684-1.784,41.316,41.316,0,0,1,0-8.7c.38-3.613,1.234-7.256.6-10.832-.458-2.595-1.692-5.12-1.447-7.731a22.825,22.825,0,0,1,1.536-5.033c2.447-7.291,0-15.418,1.77-22.9.407-1.719,1.021-3.578.283-5.182l1.124-.342-2.333-5.327a10.011,10.011,0,0,0-1.886-3.174c-1.466-1.458-3.656-1.848-5.7-2.156l-16.636-2.595C352.92,448.233,350.931,447.678,350.373,449.046Z" transform="translate(-60.402 -243.466)" fill="#3c354c"/>
        <circle id="Ellipse_146" data-name="Ellipse 146" cx="7.122" cy="7.122" r="7.122" transform="translate(293.324 148.871)" fill="#ffc0c6"/>
        <path id="Path_530" data-name="Path 530" d="M361.289,296.472a1.655,1.655,0,0,0-1.148-.2,1.961,1.961,0,0,0-.539.294l-3.368,2.36a5.209,5.209,0,0,0-1.275,1.116,4.154,4.154,0,0,0-.593,2.8c.167,2.188,1.051,4.252,1.53,6.392s.48,4.581-.9,6.294a3.335,3.335,0,0,0-.587.833,2.426,2.426,0,0,0-.11.808,22.05,22.05,0,0,0,.065,3.072c.151,1.318.539,2.6.749,3.9.369,2.226.269,4.508.555,6.736a1.078,1.078,0,0,0,1.078,1.169,31.733,31.733,0,0,0,5.031.331c1.948,0,3.894-.108,5.839-.21l8.854-.466a.873.873,0,0,0,.984-.9c.776-3.724,1.557-7.515,1.191-11.3a41.136,41.136,0,0,0-1.617-7.173,12.524,12.524,0,0,1-.652-5.869c.269-1.285.924-2.474,1.094-3.772a4.449,4.449,0,0,0-1.218-3.745c-.992-.951-2.439-1.312-3.427-2.266a7.793,7.793,0,0,0-.884-.857,1.1,1.1,0,0,0-1.161-.135,1.5,1.5,0,0,0-.442.493c-.862,1.31-2.156,3.468-3.974,3.128C364.4,298.951,363.021,297.307,361.289,296.472Z" transform="translate(-64.726 -131.999)" fill="#6c63ff"/>
        <path id="Path_531" data-name="Path 531" d="M443.919,471.222a1.863,1.863,0,0,0-.808,2.04,4.114,4.114,0,0,0,2.522-.35c.5-.245,1.132-.59,1.568-.234a1.329,1.329,0,0,1,.321.485A16.39,16.39,0,0,0,449.23,476a2.894,2.894,0,0,0,1.272-.919,2.66,2.66,0,0,0,.331-.984,26.135,26.135,0,0,0,.375-2.622,2.327,2.327,0,0,0-.369-1.821C448.966,467.633,445.474,470.061,443.919,471.222Z" transform="translate(-129.561 -258.603)" fill="#ffc0c6"/>
        <path id="Path_532" data-name="Path 532" d="M362.756,227.5a1.207,1.207,0,0,1,.084-.574c.218-.388.789-.269,1.221-.175,1.735.439,3.562.043,5.346.146s3.8.994,4.155,2.746a13.043,13.043,0,0,0,3.3-3.387,4.06,4.06,0,0,0,.86-2.479c-.1-1.283-1.172-2.242-2.169-3.056l-2.964-2.425a4.441,4.441,0,0,0-1.331-.843,6.623,6.623,0,0,0-2.156-.124c-2.156,0-4.465-.981-6.389,0a6.891,6.891,0,0,0-1.991,1.811l-2.649,3.139a1.673,1.673,0,0,0-.426.717,3.157,3.157,0,0,0,.191,1.145c.124.7-.178,1.45.054,2.123.385,1.118,1.743,1.275,2.573,1.916.31.24.792,1.048,1.161,1.037C362.279,229.206,362.737,228.017,362.756,227.5Z" transform="translate(-67.177 -74.517)" fill="#3f3d56"/>
        <path id="Path_533" data-name="Path 533" d="M441.679,309.469a5.524,5.524,0,0,1,4.376.808c2.037,1.4,2.875,3.945,3.584,6.311l1.587,5.306a24.411,24.411,0,0,1,1.1,13.686c-.418,3.026.566,6.343.579,9.4,0,3.5-.022,7.219-1.805,10.239a1.709,1.709,0,0,0-1.078-1.151,5.028,5.028,0,0,0-1.6-.269l-4.742-.3a14.623,14.623,0,0,0,1.04-2.137c1.819-4.672,1.121-9.894.4-14.852a10.226,10.226,0,0,0-.269-1.4,13.359,13.359,0,0,1-.321-5.43,12.662,12.662,0,0,0,.084-2.474,2.764,2.764,0,0,0-.218-1.013,3.185,3.185,0,0,0-.523-.722l-.959-1.078a74.963,74.963,0,0,0-1.1-9.768A21.938,21.938,0,0,1,441.679,309.469Z" transform="translate(-128.512 -142.04)" fill="#6c63ff"/>
        <path id="Path_534" data-name="Path 534" d="M365.25,314.922a22.888,22.888,0,0,1-8.579-14.532c-.156-1.021-.563-2.355-1.6-2.32a2.034,2.034,0,0,0-.878.307l-3.74,2a1.409,1.409,0,0,0-.652.539c-.245.48.1,1.032.4,1.479,2.013,3.045,2.156,6.912,2.236,10.56a6.188,6.188,0,0,1-.488,3.155c-.423.763-1.159,1.323-1.547,2.107a5.547,5.547,0,0,0-.391,2.409c-.075,5.863-.151,11.735.156,17.593a5.249,5.249,0,0,0,.587,2.56,5.339,5.339,0,0,0,1.865,1.563l5.672,3.428a10.063,10.063,0,0,0,3.446,1.53,3.421,3.421,0,0,0,3.39-1.188c.348-.507.5-1.124.835-1.638a1.38,1.38,0,0,1,1.541-.7,1.75,1.75,0,0,1,.808.975,7.384,7.384,0,0,0,1.328,2.1,2.585,2.585,0,0,0,2.255.808,3.79,3.79,0,0,0,1.751-1.191,27.672,27.672,0,0,0,4.276-5.031,1.213,1.213,0,0,0,.243-.763,1.536,1.536,0,0,0-.418-.7,6.92,6.92,0,0,1-1.213-3.145c-2.131-11.209.878-22.861-.779-34.151a5.345,5.345,0,0,0-1.574-3.357,12.891,12.891,0,0,0-3.366-1.978,1.617,1.617,0,0,0-1.237-.2c-.66.269-.663,1.178-.614,1.886a24.713,24.713,0,0,1-.216,4.346l-.579,5.333a10.3,10.3,0,0,1-.453,2.4A9.657,9.657,0,0,1,365.25,314.922Z" transform="translate(-61.402 -133.097)" fill="#575a88"/>
        <path id="Path_535" data-name="Path 535" d="M233.726,119.084s-2.056,1.671-4.484-2.711-14.152-14.912-14.152-14.912-1.517-1.388,4.247-3.7S232.972,87,232.972,87s13.133,11.676,14.419,17.458-1.528,6.763-6.356,9.835S233.726,119.084,233.726,119.084Z" transform="translate(37.084 20.375)" fill="#3f3d56"/>
        <path id="Path_536" data-name="Path 536" d="M334.573,249l-33.143-59.73,2.813-.978,32.583,59.472a1.291,1.291,0,0,1-.539,1.762h0A1.285,1.285,0,0,1,334.573,249Z" transform="translate(-26.122 -53.622)" fill="#656380"/>
        <path id="Path_537" data-name="Path 537" d="M367.883,321.335c.868-1.857-.022-4-.614-5.96a20.14,20.14,0,0,1-.838-4.8,3.5,3.5,0,0,1,.167-1.517,1.347,1.347,0,0,1,1.153-.881,5.532,5.532,0,0,1,.865,3.939,13.269,13.269,0,0,1,1.525-.3,2.853,2.853,0,0,1,3.1,1.97c.854,2.738,1.145,5.659-.046,8.218a15.634,15.634,0,0,1-1.318,2.169l-2.6,3.794a1.137,1.137,0,0,1-.709.585c-.313.046-.639-.237-.868-.5-.789-.892-2.191-2.191-2.037-3.419S367.366,322.426,367.883,321.335Z" transform="translate(-73.043 -141.207)" fill="#ffc0c6"/>
        <path id="Path_538" data-name="Path 538" d="M327.083,314.355c-2.638-.3-5.659.415-7.038,2.695a8.967,8.967,0,0,0-.986,3.867c-.17,1.873-.269,3.751-.364,5.626l-.509,9.873c-.062,1.18-.121,2.363-.143,3.543a7.985,7.985,0,0,0,.294,2.738,8.53,8.53,0,0,0,1.617,2.552c.644.787,1.45,1.6,2.4,1.369a2.6,2.6,0,0,0,1.027-.633l2.156-1.865A23.578,23.578,0,0,0,329.594,340c.539-.76.981-1.582,1.525-2.336,1.6-2.22,4.063-3.9,4.907-6.507-.808-.043-1.983-.31-2.355-1.027-.2-.38-.224-.833-.442-1.2-.331-.555-1.078-.857-1.188-1.493a36.3,36.3,0,0,0-5.583,5.812l.687-2.67a1.7,1.7,0,0,1,.3-.693,3.055,3.055,0,0,1,.808-.509,3.506,3.506,0,0,0,1.326-2.519A17.631,17.631,0,0,0,327.083,314.355Z" transform="translate(-38.245 -145.671)" fill="#6c63ff"/>
      </g>
      <path id="Path_495" data-name="Path 495" d="M856.617,522.994l.327-.21.1-.062a3.2,3.2,0,0,1-.327-6.237l-.016,1.32.725-1.436h0a3.2,3.2,0,0,1,3.348,3.05v.182a3.814,3.814,0,0,0,.632-.933,5.483,5.483,0,0,0,.29-2.4c-.049-1.866-.129-3.747-.234-5.623a3.2,3.2,0,0,1-2.844-3.03,2.832,2.832,0,0,1,0-.29v-.072a1.739,1.739,0,0,1,.029-.277.41.41,0,0,1,0-.044c.011-.077.028-.152.046-.228a.392.392,0,0,1,.021-.083c.023-.082.047-.164.077-.242.01-.026.02-.051.031-.077.023-.059.047-.116.074-.174.013-.029.026-.061.041-.09l.012-.023h0a3.2,3.2,0,0,1,3.765-1.624l-.021,1.717.717-1.418a3.2,3.2,0,0,1,1.6,2.619,3.138,3.138,0,0,1-.07.827h0a.337.337,0,0,1-.018.067c0,.023-.021.085-.033.126s-.031.106-.049.164-.026.079-.041.118-.047.111-.072.164c-.015.031-.028.064-.043.1-.041.082-.085.164-.133.242-.016.028-.036.054-.052.08l-.106.164a.643.643,0,0,1-.072.092c-.025.029-.07.088-.108.131s-.054.059-.082.088-.079.082-.121.121l-.083.079-.146.121-.075.059c-.077.056-.154.108-.236.164l-.046.026a2.271,2.271,0,0,1-.208.113l-.092.041c-.057.026-.116.052-.177.074l-.1.038c-.059.021-.118.039-.178.056l-.108.028c-.065.016-.133.029-.2.041h-.013q.065,1.189.118,2.375a3.2,3.2,0,0,1,4.443-1.39l-.565,1.552,1.164-1.118a3.191,3.191,0,0,1,1.035,2.21,3.146,3.146,0,0,1-.082.882,3.2,3.2,0,0,1-5.893.873v.241a6.316,6.316,0,0,1-.367,2.783,5.655,5.655,0,0,1-1.179,1.591c-.292.3-.593.583-.9.861a3.219,3.219,0,0,1-1.157.961q-.761.586-1.575,1.1l-.283.206c-.3.19-.617.383-.923.585l.164-.013a3.2,3.2,0,0,1,3.151,2.084l-2,1.637,2.2-.511a3.207,3.207,0,0,1-4.584,2.885c.051.061.1.123.149.185l.291.363c1.31,1.65,1.665,3.215,1.02,4.409l-.784-.424c.627-1.162-.316-2.649-.935-3.438-.093-.12-.19-.239-.287-.359a5.938,5.938,0,0,1-1.752-3.642C852.824,525.343,854.928,524.04,856.617,522.994Z" transform="translate(-500.806 -251.8)" fill="#dbd9f9"/>
      <ellipse id="Ellipse_141" data-name="Ellipse 141" cx="1.092" cy="1.179" rx="1.092" ry="1.179" transform="translate(351.581 282.596) rotate(-72.75)" fill="#3f3d56"/>
      <ellipse id="Ellipse_142" data-name="Ellipse 142" cx="1.092" cy="1.179" rx="1.092" ry="1.179" transform="translate(347.237 295.814) rotate(-72.75)" fill="#3f3d56"/>
      <path id="Path_504" data-name="Path 504" d="M863.35,653.948c-.074.239-.771.031-1.447-.178s-1.2-.45-1.128-.689.72-.385,1.4-.175S863.425,653.709,863.35,653.948Z" transform="translate(-507.463 -376.029)" fill="#3f3d56"/>
      <path id="Path_505" data-name="Path 505" d="M887.608,650.448c-.075.239-.771.031-1.447-.178s-1.2-.45-1.128-.689.72-.385,1.4-.175S887.682,650.209,887.608,650.448Z" transform="translate(-527.75 -373.103)" fill="#3f3d56"/>
      <path id="Path_506" data-name="Path 506" d="M901.878,643.853c-.075.239-.655.069-1.208-.1s-.982-.383-.915-.622.625-.416,1.184-.242S901.951,643.614,901.878,643.853Z" transform="translate(-540.061 -367.675)" fill="#3f3d56"/>
      <path id="Path_507" data-name="Path 507" d="M821.483,615.119c-.059.19-.655.015-1.221-.164s-1.02-.378-.959-.568.6-.3,1.174-.123S821.54,614.927,821.483,615.119Z" transform="translate(-472.781 -343.724)" fill="#3f3d56"/>
      <path id="Path_513" data-name="Path 513" d="M961.784,639.7c.491-.9-.065-2.009-.7-2.812a4.552,4.552,0,0,1-1.395-2.667c.025-1.473,1.588-2.343,2.837-3.125a13.756,13.756,0,0,0,2.547-2.048,3.7,3.7,0,0,0,.782-1.048,4.248,4.248,0,0,0,.236-1.861q-.08-3.153-.313-6.3" transform="translate(-590.189 -348.462)" fill="none" stroke="#3f3d56" stroke-miterlimit="10" stroke-width="4"/>
      <path id="Path_514" data-name="Path 514" d="M988,607.947a2.292,2.292,0,0,0-1.146-1.883l-.514,1.018.016-1.233a2.321,2.321,0,0,0-.758-.092,2.292,2.292,0,1,0,2.4,2.189Z" transform="translate(-610.039 -336.684)" fill="#57b793"/>
      <path id="Path_515" data-name="Path 515" d="M964.257,697.053a2.292,2.292,0,1,1,.111-1.85l-1.436,1.174,1.58-.365A2.29,2.29,0,0,1,964.257,697.053Z" transform="translate(-590.39 -410.239)" fill="#57b793"/>
      <path id="Path_516" data-name="Path 516" d="M966.917,663.415a2.292,2.292,0,0,1-.727-4.507l-.011.946.519-1.03h0a2.292,2.292,0,0,1,2.406,2.187,2.267,2.267,0,0,1-.1.784A2.292,2.292,0,0,1,966.917,663.415Z" transform="translate(-594.185 -381.062)" fill="#57b793"/>
      <path id="Path_517" data-name="Path 517" d="M1001.371,640.8a2.292,2.292,0,1,1,1.017-4.3l-.406,1.113.835-.8a2.292,2.292,0,0,1,.742,1.586,2.257,2.257,0,0,1-.057.634A2.292,2.292,0,0,1,1001.371,640.8Z" transform="translate(-623.062 -362.16)" fill="#57b793"/>
      <path id="Path_518" data-name="Path 518" d="M987.749,614.985c-.531.057-1.046.223-1.578.255a1.711,1.711,0,0,1-1.452-.508,6.842,6.842,0,0,1-.426-.748,1.637,1.637,0,0,0-.579-.545,2.292,2.292,0,1,0,4.3,1.526Q987.88,614.971,987.749,614.985Z" transform="translate(-610.094 -343.109)" opacity="0.1"/>
      <path id="Path_519" data-name="Path 519" d="M1001.234,647.484a2.3,2.3,0,0,1-2.185-3.274,1.7,1.7,0,0,1,.465.457,7.265,7.265,0,0,0,.457.76,1.877,1.877,0,0,0,1.522.534c.555-.025,1.09-.183,1.637-.234.077,0,.164-.011.232-.013A2.292,2.292,0,0,1,1001.234,647.484Z" transform="translate(-622.925 -368.842)" opacity="0.1"/>
      <path id="Path_520" data-name="Path 520" d="M967.157,670.355a2.292,2.292,0,0,1-2.2-3.235,1.852,1.852,0,0,1,.491.467c.178.252.29.543.491.776a2.134,2.134,0,0,0,1.627.57c.588-.013,1.116-.152,1.681-.2A2.292,2.292,0,0,1,967.157,670.355Z" transform="translate(-594.425 -388.002)" opacity="0.1"/>
      <path id="Path_521" data-name="Path 521" d="M963.952,704.554a6.483,6.483,0,1,0-3.685-1.424,9.975,9.975,0,0,0,.616.819,2.862,2.862,0,0,0,1.9.67,9.825,9.825,0,0,0,1.166-.064Z" transform="translate(-590.085 -417.74)" opacity="0.1"/>
      <path id="Path_522" data-name="Path 522" d="M951.32,729.815a6.644,6.644,0,0,0,2.361-.445c.547-.39,2.783-.853,2.925-.229s2.724,3.11.678,3.12a17.371,17.371,0,0,1-5.3-.655C951.436,731.269,951.32,729.815,951.32,729.815Z" transform="translate(-583.191 -439.614)" fill="#656380"/>
      <path id="Path_523" data-name="Path 523" d="M957.35,737.025a17.467,17.467,0,0,1-5.3-.655c-.416-.254-.581-1.161-.637-1.58h-.061s.115,1.464.655,1.8a17.288,17.288,0,0,0,5.3.655c.591,0,.794-.215.784-.526C958,736.9,957.785,737.02,957.35,737.025Z" transform="translate(-583.216 -444.594)" opacity="0.2"/>
      <text id="browse_tasks" data-name="browse tasks" transform="translate(305 356)" fill="#4c45b2" font-size="20" font-family="HelveticaNeue, Helvetica Neue"><tspan x="-59.26" y="0">browse tasks</tspan></text>
      <text id="make_money_of_your_skills" data-name="make money of your skills" transform="translate(305 333)" fill="#4c45b2" font-size="10" font-family="HelveticaNeue, Helvetica Neue"><tspan x="-57.98" y="0">make money of your skills</tspan></text>
    </g>
  </g>
</svg>
