<svg xmlns="http://www.w3.org/2000/svg" xmlns:xlink="http://www.w3.org/1999/xlink" width="188" height="283" viewBox="0 0 188 283">
  <defs>
    <linearGradient id="linear-gradient" x1="0.5" y1="1" x2="0.5" gradientUnits="objectBoundingBox">
      <stop offset="0" stop-color="gray" stop-opacity="0.251"/>
      <stop offset="0.54" stop-color="gray" stop-opacity="0.122"/>
      <stop offset="1" stop-color="gray" stop-opacity="0.102"/>
    </linearGradient>
    <linearGradient id="linear-gradient-2" x1="0.5" y1="1" x2="0.5" y2="0" xlink:href="#linear-gradient"/>
    <linearGradient id="linear-gradient-3" x1="-0.001" y1="0.5" x2="1" y2="0.5" xlink:href="#linear-gradient"/>
  </defs>
  <g id="Group_171" data-name="Group 171" transform="translate(-14 -88)">
    <g id="Rectangle_979" data-name="Rectangle 979" transform="translate(14 88)" fill="#f8f8f8" stroke="#707070" stroke-width="0.1">
      <rect width="188" height="283" rx="15" stroke="none"/>
      <rect x="0.05" y="0.05" width="187.9" height="282.9" rx="14.95" fill="none"/>
    </g>
    <g id="posttask" transform="translate(22.907 107.604)">
      <g id="Group_91" data-name="Group 91" transform="translate(128.695 104.133)" opacity="0.2">
        <path id="Path_466" data-name="Path 466" d="M745.582,748.434a3.933,3.933,0,0,1-.356.548q-1.773-1.246-3.606-2.447l.079-.157a3.463,3.463,0,0,1,1.226-1.336,2.049,2.049,0,0,1,2.061-.169,2.072,2.072,0,0,1,1.012,1.8A3.475,3.475,0,0,1,745.582,748.434Z" transform="translate(-741.62 -697.505)" fill="#3f3d56"/>
        <ellipse id="Ellipse_125" data-name="Ellipse 125" cx="2.876" cy="2.196" rx="2.876" ry="2.196" transform="translate(0.38 48.326) rotate(-62.09)" fill="#3f3d56"/>
        <ellipse id="Ellipse_126" data-name="Ellipse 126" cx="2.876" cy="2.196" rx="2.876" ry="2.196" transform="translate(2.025 45.221) rotate(-62.09)" fill="#3f3d56"/>
        <ellipse id="Ellipse_127" data-name="Ellipse 127" cx="2.876" cy="2.196" rx="2.876" ry="2.196" transform="translate(3.67 42.116) rotate(-62.09)" fill="#3f3d56"/>
        <ellipse id="Ellipse_128" data-name="Ellipse 128" cx="2.876" cy="2.196" rx="2.876" ry="2.196" transform="translate(5.314 39.012) rotate(-62.09)" fill="#3f3d56"/>
        <path id="Path_467" data-name="Path 467" d="M755.46,477.42a10.4,10.4,0,0,1-.169-1.447l5.552,1.869-5.537-2.881a10.533,10.533,0,0,1,3.724-7.46l5.365,7.758-4.166-8.628a10.519,10.519,0,1,1,9.843,18.534,10.531,10.531,0,0,1,.169,2.258l-8.433-.068,8.311,1.37a10.519,10.519,0,0,1-6.12,7.927,10.519,10.519,0,1,1-14.614-7.74,10.522,10.522,0,0,1,6.088-11.494Z" transform="translate(-742.874 -465.029)" fill="#6c63ff"/>
        <path id="Path_468" data-name="Path 468" d="M768.952,606.52a10.48,10.48,0,0,1-5.033,4.694,10.519,10.519,0,1,1-14.614-7.74C748.9,601.232,769.505,605.476,768.952,606.52Z" transform="translate(-742.807 -579.589)" opacity="0.1"/>
      </g>
      <g id="Group_92" data-name="Group 92" transform="translate(0.093 0.369)" opacity="0.2">
        <path id="Path_469" data-name="Path 469" d="M476.089,659.252a11.3,11.3,0,0,0,.623,1.839q6.028-2.309,12.194-4.434c-.037-.167-.073-.339-.115-.522a10.311,10.311,0,0,0-2.564-4.752,5.682,5.682,0,0,0-10.053,2.444A10.316,10.316,0,0,0,476.089,659.252Z" transform="translate(-419.511 -497.413)" fill="#3f3d56"/>
        <ellipse id="Ellipse_129" data-name="Ellipse 129" cx="6.539" cy="8.558" rx="6.539" ry="8.558" transform="translate(52.076 143.345) rotate(-13.72)" fill="#3f3d56"/>
        <ellipse id="Ellipse_130" data-name="Ellipse 130" cx="6.539" cy="8.558" rx="6.539" ry="8.558" transform="translate(49.592 133.182) rotate(-13.72)" fill="#3f3d56"/>
        <ellipse id="Ellipse_131" data-name="Ellipse 131" cx="6.539" cy="8.558" rx="6.539" ry="8.558" transform="translate(47.112 123.019) rotate(-13.72)" fill="#3f3d56"/>
        <ellipse id="Ellipse_132" data-name="Ellipse 132" cx="6.539" cy="8.558" rx="6.539" ry="8.558" transform="translate(44.631 112.859) rotate(-13.72)" fill="#3f3d56"/>
        <path id="Path_470" data-name="Path 470" d="M319.9,111.507a30.947,30.947,0,0,0,1.515-4.059l-17.359,1.333,18.092-4.28a31.384,31.384,0,0,0-5.3-24.258L295.687,98.725l18.327-21.866a31.319,31.319,0,1,0-41.946,46.312,31.124,31.124,0,0,0-2.115,6.4l24.412,5.968-24.989-2.118a31.337,31.337,0,0,0,11.879,27.388,31.319,31.319,0,1,0,47.83-11.673,31.322,31.322,0,0,0-9.184-37.626Z" transform="translate(-260.093 -67.221)" fill="#6c63ff"/>
        <path id="Path_471" data-name="Path 471" d="M298.637,355.762a31.173,31.173,0,0,0,11.1,17.215,31.319,31.319,0,1,0,47.83-11.673C360.383,355.139,297.8,352.348,298.637,355.762Z" transform="translate(-288.577 -279.409)" opacity="0.1"/>
      </g>
      <path id="Path_472" data-name="Path 472" d="M541.655,109.889h-.582V78.52A12.619,12.619,0,0,0,528.355,66H457.111a12.622,12.622,0,0,0-12.719,12.52v13h-.17a.743.743,0,0,0-.749.736v6.26a.743.743,0,0,0,.749.736h.183v6.393h-.23a.741.741,0,0,0-.746.736v11.97a.743.743,0,0,0,.746.738h.23v4.7h-.2a.741.741,0,0,0-.749.736V136.61a.741.741,0,0,0,.749.736h.2V247a12.619,12.619,0,0,0,12.719,12.52h71.228A12.622,12.622,0,0,0,541.071,247V133.349h.584a.743.743,0,0,0,.749-.736V110.625a.743.743,0,0,0-.749-.736Z" transform="translate(-395.515 -65.95)" fill="url(#linear-gradient)"/>
      <g id="Group_93" data-name="Group 93" transform="translate(49.323 1.354)" opacity="0.9">
        <rect id="Rectangle_870" data-name="Rectangle 870" width="2.809" height="23.168" rx="1.405" transform="translate(93.472 43.354)" fill="#e5e7eb"/>
        <rect id="Rectangle_871" data-name="Rectangle 871" width="1.578" height="7.627" rx="0.789" transform="translate(0.057 25.205)" fill="#e5e7eb"/>
        <rect id="Rectangle_872" data-name="Rectangle 872" width="1.779" height="13.274" rx="0.889" transform="translate(0 39.168)" fill="#e5e7eb"/>
        <rect id="Rectangle_873" data-name="Rectangle 873" width="1.693" height="13.389" rx="0.846" transform="translate(0.029 57.088)" fill="#e5e7eb"/>
        <rect id="Rectangle_874" data-name="Rectangle 874" width="94.038" height="191.121" rx="38.99" transform="translate(0.949)" fill="#fff"/>
        <rect id="Rectangle_875" data-name="Rectangle 875" width="13.133" height="2.666" rx="1.333" transform="translate(38.899 5.707)" fill="#e5e7eb"/>
        <circle id="Ellipse_133" data-name="Ellipse 133" cx="1.513" cy="1.513" r="1.513" transform="translate(54.015 5.527)" fill="#e5e7eb"/>
      </g>
      <path id="Path_473" data-name="Path 473" d="M549.7,90.09H538.93v1.3a6.151,6.151,0,0,1-6.151,6.148H498.458a6.151,6.151,0,0,1-6.151-6.148v-1.3h-10.1a7.468,7.468,0,0,0-7.468,7.468V263.787a7.468,7.468,0,0,0,7.468,7.468H549.7a7.468,7.468,0,0,0,7.468-7.468V97.558A7.468,7.468,0,0,0,549.7,90.09Z" transform="translate(-418.658 -83.756)" fill="#ececf3"/>
      <ellipse id="Ellipse_134" data-name="Ellipse 134" cx="14.917" cy="2.522" rx="14.917" ry="2.522" transform="translate(7.912 194.071)" fill="#6c63ff"/>
      <path id="Path_474" data-name="Path 474" d="M331.785,784.171a4.367,4.367,0,0,0,1.422-2.147,1.912,1.912,0,0,0-.994-2.186c-.913-.35-1.889.282-2.627.921a3.514,3.514,0,0,1-2.556,1.234,3.887,3.887,0,0,0,1.2-3.652,1.5,1.5,0,0,0-.334-.738c-.506-.543-1.424-.31-2.032.117-1.928,1.356-2.468,3.978-2.478,6.338a11.929,11.929,0,0,1-.037-2.608,2.689,2.689,0,0,0-.978-2.311,2.972,2.972,0,0,0-1.5-.35,3.1,3.1,0,0,0-2.423.689,2.411,2.411,0,0,0,.094,2.979,9.37,9.37,0,0,0,2.512,2.011,5.561,5.561,0,0,1,1.792,1.711,1.542,1.542,0,0,1,.133.305h5.433A15.239,15.239,0,0,0,331.785,784.171Z" transform="translate(-302.787 -591.704)" fill="#6c63ff"/>
      <g id="Group_94" data-name="Group 94" transform="translate(140.282 176.427)" opacity="0.4">
        <ellipse id="Ellipse_135" data-name="Ellipse 135" cx="8.514" cy="1.44" rx="8.514" ry="1.44" transform="translate(0 4.85)" fill="#6c63ff"/>
        <path id="Path_475" data-name="Path 475" d="M871.183,746.12A2.487,2.487,0,0,0,872,744.9a1.093,1.093,0,0,0-.569-1.25,1.6,1.6,0,0,0-1.5.522,2.019,2.019,0,0,1-1.458.7,2.215,2.215,0,0,0,.686-2.087.851.851,0,0,0-.19-.42c-.289-.31-.814-.177-1.158.065a4.341,4.341,0,0,0-1.416,3.618,6.923,6.923,0,0,1-.018-1.489,1.544,1.544,0,0,0-.561-1.32,1.7,1.7,0,0,0-.853-.2,1.777,1.777,0,0,0-1.385.391,1.378,1.378,0,0,0,.055,1.7,5.32,5.32,0,0,0,1.435,1.148,3.209,3.209,0,0,1,1.023.975.885.885,0,0,1,.075.175h3.1A8.61,8.61,0,0,0,871.183,746.12Z" transform="translate(-859.15 -742.185)" fill="#6c63ff"/>
      </g>
      <g id="Group_95" data-name="Group 95" transform="translate(22.882 160.246)" opacity="0.4">
        <ellipse id="Ellipse_136" data-name="Ellipse 136" cx="8.514" cy="1.44" rx="8.514" ry="1.44" transform="translate(0 4.851)" fill="#6c63ff"/>
        <path id="Path_476" data-name="Path 476" d="M371.273,684.089a2.46,2.46,0,0,0,.811-1.226,1.087,1.087,0,0,0-.569-1.247,1.6,1.6,0,0,0-1.5.522,2.018,2.018,0,0,1-1.458.7,2.228,2.228,0,0,0,.686-2.087.881.881,0,0,0-.19-.422c-.289-.308-.814-.175-1.161.068a4.327,4.327,0,0,0-1.414,3.615,6.766,6.766,0,0,1-.021-1.489,1.494,1.494,0,0,0-.558-1.3,1.684,1.684,0,0,0-.856-.2,1.763,1.763,0,0,0-1.383.394,1.378,1.378,0,0,0,.055,1.7,5.4,5.4,0,0,0,1.432,1.148,3.154,3.154,0,0,1,1.023.975,1.074,1.074,0,0,1,.078.175h3.1A8.681,8.681,0,0,0,371.273,684.089Z" transform="translate(-359.238 -680.153)" fill="#6c63ff"/>
      </g>
      <rect id="Rectangle_876" data-name="Rectangle 876" width="13.326" height="13.326" transform="translate(62.405 20.135)" fill="#d6d8e0"/>
      <rect id="Rectangle_877" data-name="Rectangle 877" width="27.92" height="2.538" transform="translate(85.565 21.087)" fill="#d6d8e0"/>
      <rect id="Rectangle_878" data-name="Rectangle 878" width="46.005" height="2.538" transform="translate(85.565 25.529)" fill="#d6d8e0"/>
      <rect id="Rectangle_879" data-name="Rectangle 879" width="46.005" height="2.538" transform="translate(85.565 29.971)" fill="#d6d8e0"/>
      <rect id="Rectangle_880" data-name="Rectangle 880" width="13.326" height="13.326" transform="translate(62.506 44.565)" fill="#d6d8e0"/>
      <rect id="Rectangle_881" data-name="Rectangle 881" width="27.92" height="2.538" transform="translate(85.666 45.517)" fill="#d6d8e0"/>
      <rect id="Rectangle_882" data-name="Rectangle 882" width="46.005" height="2.538" transform="translate(85.666 49.959)" fill="#d6d8e0"/>
      <rect id="Rectangle_883" data-name="Rectangle 883" width="46.005" height="2.538" transform="translate(85.666 54.399)" fill="#d6d8e0"/>
      <rect id="Rectangle_884" data-name="Rectangle 884" width="13.326" height="13.326" transform="translate(62.608 68.995)" fill="#d6d8e0"/>
      <rect id="Rectangle_885" data-name="Rectangle 885" width="27.92" height="2.538" transform="translate(85.771 69.945)" fill="#d6d8e0"/>
      <rect id="Rectangle_886" data-name="Rectangle 886" width="46.005" height="2.538" transform="translate(85.771 74.387)" fill="#d6d8e0"/>
      <rect id="Rectangle_887" data-name="Rectangle 887" width="46.005" height="2.538" transform="translate(85.771 78.829)" fill="#d6d8e0"/>
      <rect id="Rectangle_888" data-name="Rectangle 888" width="13.326" height="13.326" transform="translate(62.71 93.423)" fill="#d6d8e0"/>
      <rect id="Rectangle_889" data-name="Rectangle 889" width="27.92" height="2.538" transform="translate(85.873 94.375)" fill="#d6d8e0"/>
      <rect id="Rectangle_890" data-name="Rectangle 890" width="46.005" height="2.538" transform="translate(85.873 98.817)" fill="#d6d8e0"/>
      <rect id="Rectangle_891" data-name="Rectangle 891" width="46.005" height="2.538" transform="translate(85.873 103.26)" fill="#d6d8e0"/>
      <rect id="Rectangle_892" data-name="Rectangle 892" width="13.326" height="13.326" transform="translate(62.814 117.854)" fill="#d6d8e0"/>
      <rect id="Rectangle_893" data-name="Rectangle 893" width="27.92" height="2.538" transform="translate(85.974 118.806)" fill="#d6d8e0"/>
      <rect id="Rectangle_894" data-name="Rectangle 894" width="46.005" height="2.538" transform="translate(85.974 123.248)" fill="#d6d8e0"/>
      <rect id="Rectangle_895" data-name="Rectangle 895" width="46.005" height="2.538" transform="translate(85.974 127.69)" fill="#d6d8e0"/>
      <rect id="Rectangle_896" data-name="Rectangle 896" width="13.326" height="13.326" transform="translate(62.916 142.284)" fill="#d6d8e0"/>
      <rect id="Rectangle_897" data-name="Rectangle 897" width="27.92" height="2.538" transform="translate(86.076 143.236)" fill="#d6d8e0"/>
      <rect id="Rectangle_898" data-name="Rectangle 898" width="46.005" height="2.538" transform="translate(86.076 147.678)" fill="#d6d8e0"/>
      <rect id="Rectangle_899" data-name="Rectangle 899" width="46.005" height="2.538" transform="translate(86.076 152.12)" fill="#d6d8e0"/>
      <rect id="Rectangle_900" data-name="Rectangle 900" width="13.326" height="13.326" transform="translate(63.018 166.714)" fill="#d6d8e0"/>
      <rect id="Rectangle_901" data-name="Rectangle 901" width="27.92" height="2.538" transform="translate(86.178 167.666)" fill="#d6d8e0"/>
      <rect id="Rectangle_902" data-name="Rectangle 902" width="46.005" height="2.538" transform="translate(86.178 172.109)" fill="#d6d8e0"/>
      <rect id="Rectangle_903" data-name="Rectangle 903" width="46.005" height="2.538" transform="translate(86.178 176.551)" fill="#d6d8e0"/>
      <rect id="Rectangle_904" data-name="Rectangle 904" width="113.583" height="28.236" transform="translate(40.502 60.317)" fill="url(#linear-gradient-2)"/>
      <rect id="Rectangle_905" data-name="Rectangle 905" width="112.631" height="26.968" transform="translate(41.136 60.954)" fill="#fff"/>
      <rect id="Rectangle_906" data-name="Rectangle 906" width="13.326" height="13.326" transform="translate(62.869 67.775)" fill="#6c63ff"/>
      <g id="Group_96" data-name="Group 96" transform="translate(86.032 68.727)" opacity="0.5">
        <rect id="Rectangle_907" data-name="Rectangle 907" width="27.92" height="2.538" fill="#6c63ff"/>
        <rect id="Rectangle_908" data-name="Rectangle 908" width="46.005" height="2.538" transform="translate(0 4.442)" fill="#6c63ff"/>
        <rect id="Rectangle_909" data-name="Rectangle 909" width="46.005" height="2.538" transform="translate(0 8.884)" fill="#6c63ff"/>
      </g>
      <path id="Path_477" data-name="Path 477" d="M457,386.455a2.32,2.32,0,0,0-2.741-.417,4.026,4.026,0,0,0-1.362,1.844,14.279,14.279,0,0,0-1.422,3.146c-.6,3.107-3.075,5.519-4.067,8.522a16.927,16.927,0,0,1-1.083,3.2,10.193,10.193,0,0,1-.887,1.221,34.379,34.379,0,0,0-3.391,5.172,4.162,4.162,0,0,0-1.544.96,5.328,5.328,0,0,1-2.087.989,1.971,1.971,0,0,0-.856.313c-.36.3-.41.84-.7,1.2a1.873,1.873,0,0,1-.782.522c0-.091-.013-.183-.016-.276-.013-.483-.021-.968-.021-1.453a5.462,5.462,0,0,0-.016-7.09,10.688,10.688,0,0,1,.3-2.241,1,1,0,0,0-.211-1.028c-.143-.112-.329-.154-.483-.261a2.1,2.1,0,0,1-.522-.663,2.817,2.817,0,0,0-3.542-.905c-.942.5-1.513,1.487-2.348,2.16-.428.344-.921.6-1.349.949a5.6,5.6,0,0,0-1.745,2.838,16.257,16.257,0,0,0-.475,3.349,3.024,3.024,0,0,0,.039,1.017,2.685,2.685,0,0,0,.383.782,8.77,8.77,0,0,0,3.242,3.091,1.26,1.26,0,0,1,0,.2,1.44,1.44,0,0,1-.057.31l-.151-.042a5.989,5.989,0,0,1-1.662-.389c-.856-.48-1.114-1.651-1.933-2.188a1.473,1.473,0,0,0-.219-.117,14.637,14.637,0,0,0-.84-4.348,5.417,5.417,0,0,1-.5-2.061,5.067,5.067,0,0,1,.629-1.865,47.4,47.4,0,0,0,2.348-6.424q.65-2.053,1.3-4.108a6.479,6.479,0,0,0,1.145-1.09,5.815,5.815,0,0,0,1.328-2.851,4.038,4.038,0,0,0-.733-3.015,1.742,1.742,0,0,0-1.226-.751,1.594,1.594,0,0,0-1.145.522,5.091,5.091,0,0,0-.981,1.685,7.52,7.52,0,0,0-.819,3.154c.034.908.373,1.922-.157,2.661a63.631,63.631,0,0,0-4.419,7.844,14.025,14.025,0,0,0-.892,1.967,10.956,10.956,0,0,0-.467,3.391,45.475,45.475,0,0,0,.574,6.427,8.26,8.26,0,0,0,.759,2.817,11.816,11.816,0,0,0-.467,3.172,1.808,1.808,0,0,0,.115.728,3.006,3.006,0,0,0,.576.725,3.247,3.247,0,0,1,.782,2.567,7.279,7.279,0,0,0,.232,2.572c.522,2.316,1.043,4.63,1.461,6.965a4.457,4.457,0,0,1,.1,1.325,7.816,7.816,0,0,0-.355,1.865,7.063,7.063,0,0,1,.167.892,2.2,2.2,0,0,1-.157.668c-.595,1.729-2.194,5.694-2.175,7.525l.417-.1c-.42,2.376-1.4,4.648-1.92,7.017a23.478,23.478,0,0,0-.485,5.248,19.477,19.477,0,0,1-.042,2.374c-.081.7-.261,1.388-.36,2.087a18.916,18.916,0,0,0-.125,2.825,28.836,28.836,0,0,0,.261,4.434c.4,2.5-.3,4.993-.49,7.52a45.2,45.2,0,0,1-.6,5.274c-.143.736-.323,1.466-.423,2.209-.292,2.207.133,4.481-.326,6.659-.216,1.02-.6,2.165-.034,3.036.18.274.438.488.634.751a.954.954,0,0,1,.183.921c-.112.24-.373.4-.438.652-.1.4.316.73.691.9l.107.042a.968.968,0,0,0,.2.783,1.658,1.658,0,0,0,.8.417l4.925,1.492a6.571,6.571,0,0,0,3.391.391.853.853,0,0,0,.2.423,1.659,1.659,0,0,0,.8.417l4.888,1.482a5.708,5.708,0,0,0,3.845.24,2.183,2.183,0,0,0,.882-.665,2.327,2.327,0,0,0,.313-1.948,1.588,1.588,0,0,0-.475-.871,2.086,2.086,0,0,0-1.137-.373,2.3,2.3,0,0,1-1-.261.718.718,0,0,1-.227-.237q.423-.417.819-.866c-.214-.073-.289-.381-.31-.605-.31-3.323.942-6.571,1.416-9.873a21.125,21.125,0,0,0,.125-5c-.057-.629-.143-1.255-.17-1.886-.123-3.287,1.448-6.448,1.393-9.737-.026-1.539.782-3.057,1.176-4.546a16.459,16.459,0,0,0,.363-4.069l.063-10.762a13.465,13.465,0,0,0-.464-4.32,5.479,5.479,0,0,1-.188-2.363c1.328-.587,2.585-1.456,4-1.3.378-1-.07-4.351-.425-5.366a23.074,23.074,0,0,1-.783-12.427c.321-1.484-.12-3.062.237-4.541a2.746,2.746,0,0,1,.389-.976,1.043,1.043,0,0,1,.895-.472c0-.905-.018-1.826-.078-2.744a6.524,6.524,0,0,0,1.453-1.672,25.787,25.787,0,0,0,1.768-4.192c.957-2.5,2.264-4.854,3.362-7.3s1.205-5.128,2.087-7.664a5.76,5.76,0,0,1,2.8-3.229,4.474,4.474,0,0,0,1.455-.876,2.347,2.347,0,0,0,.506-1.244,3.289,3.289,0,0,0-.84-2.775ZM426.484,494.216c.107-.117.211-.235.31-.363-.329-.052-.73-.292-.738-.626a3.464,3.464,0,0,1,.214-.978,3.911,3.911,0,0,0,.073-1.737c-.073-.4-.209-.782-.292-1.195a11.173,11.173,0,0,1-.156-1.351,22.347,22.347,0,0,0-.949-4.789c-.472-1.51.175-3.039.342-4.612a9.085,9.085,0,0,1,.305-2.217c.154-.417.407-.783.561-1.205a5.516,5.516,0,0,0-.073-3.054c1.544-2.8,2.055-6.138,2.637-9.289q.49-2.653.981-5.3a5.167,5.167,0,0,1,.782-2.238,27.5,27.5,0,0,1,.595,7.131,10.589,10.589,0,0,0,.026,2.087c.12.759.436,1.476.618,2.222a27.085,27.085,0,0,1,.261,5.068c.034.683.123,1.367.151,2.05.128,3.023-.884,5.963-1.883,8.819a32.739,32.739,0,0,0-1.043,5.574c-.276,1.755-.55,3.513-.691,5.285-.042.54-.076,1.1-.141,1.643a4.3,4.3,0,0,0-.509-.081,2.3,2.3,0,0,1-1-.261A1.161,1.161,0,0,1,426.484,494.216Z" transform="translate(-376.026 -301.49)" fill="url(#linear-gradient-3)"/>
      <path id="Path_478" data-name="Path 478" d="M467.616,814.491a2.115,2.115,0,0,1,1.137.37,1.584,1.584,0,0,1,.475.866,2.306,2.306,0,0,1-.313,1.938,2.163,2.163,0,0,1-.882.657,5.689,5.689,0,0,1-3.845-.235l-4.925-1.484a1.654,1.654,0,0,1-.8-.415,1.085,1.085,0,0,1-.021-1.265,2.472,2.472,0,0,1,1.043-.832,11.727,11.727,0,0,1,4.956-.949c.626-.013,1.242-.149,1.667.334.224.261.185.537.522.759A2.261,2.261,0,0,0,467.616,814.491Z" transform="translate(-406.469 -618.187)" fill="#3f3d56"/>
      <path id="Path_479" data-name="Path 479" d="M431.946,804.11a2.088,2.088,0,0,1,1.137.368,1.609,1.609,0,0,1,.475.866,2.3,2.3,0,0,1-.313,1.938,2.171,2.171,0,0,1-.882.66,5.692,5.692,0,0,1-3.845-.237l-4.925-1.484a1.632,1.632,0,0,1-.8-.415,1.085,1.085,0,0,1-.021-1.265,2.455,2.455,0,0,1,1.043-.832,11.7,11.7,0,0,1,4.943-.95c.623,0,1.242-.149,1.667.334.224.261.185.54.522.759A2.3,2.3,0,0,0,431.946,804.11Z" transform="translate(-380.103 -610.516)" fill="#3f3d56"/>
      <path id="Path_480" data-name="Path 480" d="M432.073,600.478a60.65,60.65,0,0,0-8.733-.245,1.715,1.715,0,0,0-.566.089c-.642.261-.741,1.1-.8,1.789-.245,2.783-1.474,5.378-2.087,8.109a23.154,23.154,0,0,0-.485,5.217,19.167,19.167,0,0,1-.042,2.348c-.081.7-.261,1.38-.36,2.087a18.668,18.668,0,0,0-.125,2.807,28.478,28.478,0,0,0,.261,4.4c.4,2.488-.3,4.956-.49,7.471a44.7,44.7,0,0,1-.6,5.24c-.143.73-.323,1.455-.423,2.194-.292,2.194.133,4.455-.326,6.617-.216,1.012-.6,2.149-.034,3.016.18.274.438.485.634.746a.947.947,0,0,1,.183.916c-.112.237-.373.394-.438.647-.1.4.316.728.691.9a7.206,7.206,0,0,0,8.389-2.074c-.329-.052-.73-.29-.738-.621a3.425,3.425,0,0,1,.214-.973,3.861,3.861,0,0,0,.073-1.727c-.073-.4-.209-.783-.292-1.187a10.983,10.983,0,0,1-.156-1.341,22.078,22.078,0,0,0-.949-4.758c-.472-1.5.175-3.018.342-4.583a8.984,8.984,0,0,1,.305-2.2c.154-.415.407-.782.561-1.2a5.441,5.441,0,0,0-.073-3.034c1.544-2.783,2.055-6.1,2.637-9.229l.981-5.269a5.09,5.09,0,0,1,.783-2.222,27.152,27.152,0,0,1,.595,7.087,10.439,10.439,0,0,0,.026,2.058c.12.754.436,1.466.618,2.209a26.729,26.729,0,0,1,.261,5.034c.034.678.123,1.356.151,2.037.128,3-.884,5.924-1.883,8.759a32.354,32.354,0,0,0-1.043,5.538c-.276,1.745-.55,3.49-.691,5.251-.128,1.617-.183,3.367-1.189,4.638a8.531,8.531,0,0,0,2.945,1.411,5.461,5.461,0,0,0,3.633-.7,11.473,11.473,0,0,0,2.869-2.441c-.214-.073-.29-.381-.31-.6-.31-3.3.942-6.521,1.416-9.808a20.865,20.865,0,0,0,.125-4.971c-.057-.623-.143-1.244-.17-1.87-.123-3.266,1.448-6.409,1.393-9.675-.026-1.529.783-3.039,1.176-4.518a16.21,16.21,0,0,0,.363-4.04l.063-10.695a13.305,13.305,0,0,0-.464-4.293c-.574-1.641.081-3.529.18-5.264A21.707,21.707,0,0,1,432.073,600.478Z" transform="translate(-375.952 -460.328)" fill="#3f3d56"/>
      <path id="Path_481" data-name="Path 481" d="M510.046,416.174a34.1,34.1,0,0,1,3.994-6.307,10.293,10.293,0,0,0,.887-1.21,16.729,16.729,0,0,0,1.083-3.18c.991-2.984,3.464-5.381,4.067-8.467a14.323,14.323,0,0,1,1.422-3.13,3.947,3.947,0,0,1,1.362-1.826,2.321,2.321,0,0,1,2.741.417,3.25,3.25,0,0,1,.837,2.752,2.3,2.3,0,0,1-.506,1.236,4.534,4.534,0,0,1-1.456.874,5.712,5.712,0,0,0-2.8,3.206c-.871,2.52-.981,5.185-2.087,7.614s-2.4,4.763-3.362,7.249a24.992,24.992,0,0,1-1.768,4.174,5.137,5.137,0,0,1-3.537,2.593,8.885,8.885,0,0,0-.438-2.775C510.164,418.357,509.572,417.134,510.046,416.174Z" transform="translate(-444.624 -306.748)" fill="#a0616a"/>
      <path id="Path_482" data-name="Path 482" d="M433.242,415.02a14.465,14.465,0,0,0-.845-5.42,5.368,5.368,0,0,1-.5-2.048,5.006,5.006,0,0,1,.629-1.852,46.9,46.9,0,0,0,2.348-6.385l1.3-4.079a6.523,6.523,0,0,0,1.145-1.083,5.775,5.775,0,0,0,1.328-2.833,4,4,0,0,0-.733-3,1.732,1.732,0,0,0-1.226-.743,1.578,1.578,0,0,0-1.145.522,5.044,5.044,0,0,0-.981,1.675,7.43,7.43,0,0,0-.819,3.13c.034.9.373,1.909-.156,2.642a63.191,63.191,0,0,0-4.419,7.791,13.876,13.876,0,0,0-.892,1.954,10.83,10.83,0,0,0-.467,3.375,44.892,44.892,0,0,0,.574,6.385,5.705,5.705,0,0,0,1.432,3.652A21.353,21.353,0,0,1,433.242,415.02Z" transform="translate(-383.97 -303.649)" fill="#a0616a"/>
      <circle id="Ellipse_137" data-name="Ellipse 137" cx="5.412" cy="5.412" r="5.412" transform="translate(50.497 101.567)" fill="#a0616a"/>
      <path id="Path_483" data-name="Path 483" d="M457,487.933a7.22,7.22,0,0,1-1.166,2.7c-.31.522-.7,1.077-1.3,1.135a26.081,26.081,0,0,0,4.914,1.977,5.59,5.59,0,0,0,1.8.29,4.39,4.39,0,0,0,1.495-.383,7.421,7.421,0,0,0,4.21-4.956,9.771,9.771,0,0,1-2.008-.154,1.482,1.482,0,0,1-.986-.483,1.589,1.589,0,0,1-.2-.874q-.039-1.354,0-2.707a10.7,10.7,0,0,0-3.934.483c-.522.17-1.043.376-1.578.509-.329.081-1.234,0-1.476.19C456.392,485.949,457.1,487.268,457,487.933Z" transform="translate(-403.72 -375.255)" fill="#a0616a"/>
      <path id="Path_484" data-name="Path 484" d="M442.1,488.438a3.4,3.4,0,0,0-2.588-3.02,5.986,5.986,0,0,1-1.661-.386c-.856-.477-1.114-1.641-1.933-2.175a2.285,2.285,0,0,0-2.7.441,5.821,5.821,0,0,0-1.369,2.577,12.975,12.975,0,0,0-.7,3.952,1.794,1.794,0,0,0,.115.725,3.04,3.04,0,0,0,.576.723,3.2,3.2,0,0,1,.783,2.546,7.209,7.209,0,0,0,.232,2.559c.522,2.3,1.043,4.6,1.461,6.918a4.4,4.4,0,0,1,.1,1.3,7.72,7.72,0,0,0-.355,1.849,7.014,7.014,0,0,1,.167.889,2.158,2.158,0,0,1-.157.66c-.595,1.722-2.194,5.66-2.175,7.478a45.238,45.238,0,0,1,9.74-.882,20.484,20.484,0,0,1,2.366.1c1.886.2,3.816.751,5.645.243,1.7-.472,3.2-1.826,4.956-1.654.378-1-.07-4.325-.425-5.332a22.782,22.782,0,0,1-.783-12.346c.321-1.476-.12-3.041.237-4.51a2.7,2.7,0,0,1,.389-.97,1.043,1.043,0,0,1,.895-.47,33.229,33.229,0,0,0-.652-7.024c-.175-.822-.537-1.792-1.364-1.933-.746-.125-1.375.5-1.972.968a5.388,5.388,0,0,1-2.087.981,1.965,1.965,0,0,0-.856.31c-.36.3-.409.835-.7,1.2-.522.65-1.688.592-2.058,1.341a4.7,4.7,0,0,0-.2.686,2.509,2.509,0,0,1-.858,1.109A4.841,4.841,0,0,1,442.1,488.438Z" transform="translate(-386.432 -372.47)" fill="#6c63ff"/>
      <path id="Path_485" data-name="Path 485" d="M460.606,445.018a.99.99,0,0,0-.211-1.022c-.143-.112-.329-.154-.483-.261a2.087,2.087,0,0,1-.522-.66,2.833,2.833,0,0,0-3.55-.895c-.942.493-1.513,1.479-2.348,2.147-.428.344-.921.6-1.349.942a5.566,5.566,0,0,0-1.745,2.822,16.064,16.064,0,0,0-.472,3.331,2.992,2.992,0,0,0,.039,1.012,2.655,2.655,0,0,0,.383.769,8.677,8.677,0,0,0,3.417,3.161,5.3,5.3,0,0,0,4.554.081.811.811,0,0,0,.35-.282.981.981,0,0,0,.052-.6,4.135,4.135,0,0,1,.457-2.306c.261-.522.649-.97.861-1.513a5.371,5.371,0,0,0,.245-1.873A20.073,20.073,0,0,1,460.606,445.018Z" transform="translate(-400.298 -343.793)" fill="#2d293d"/>
      <rect id="Rectangle_910" data-name="Rectangle 910" width="13.326" height="13.326" transform="translate(62.814 67.934)" fill="#6c63ff"/>
      <path id="Path_486" data-name="Path 486" d="M522.2,360.674a1.751,1.751,0,0,1-.9.819,2.243,2.243,0,0,1-.717.136,2.024,2.024,0,0,1-.783-.1,1.8,1.8,0,0,1-.827-.66,4.171,4.171,0,0,1-.48-.96,1.064,1.064,0,0,1-.1-.543.783.783,0,0,0,.522-.295.66.66,0,0,0,.013-.522c-.016-.052-.031-.1-.049-.149-.039-.115-.175-.331-.081-.428s.313-.094.4-.133a3.764,3.764,0,0,1,.811-.363,1.973,1.973,0,0,1,.769.05.262.262,0,0,1,.1.037.224.224,0,0,1,.07.1c.073.177.115.373.172.556a1.144,1.144,0,0,0,.287.509,1.441,1.441,0,0,0,.4.24l.349.159a.5.5,0,0,1,.164.107.434.434,0,0,1,.078.214A2,2,0,0,1,522.2,360.674Z" transform="translate(-450.926 -281.388)" fill="#a0616a"/>
      <path id="Path_487" data-name="Path 487" d="M522.177,358.257a1.813,1.813,0,0,1-2.188.326c-.016-.052-.031-.1-.05-.149-.039-.115-.175-.331-.081-.428s.313-.094.4-.133a3.759,3.759,0,0,1,.811-.363,1.971,1.971,0,0,1,.769.05.259.259,0,0,1,.1.036.225.225,0,0,1,.07.1C522.078,357.887,522.119,358.074,522.177,358.257Z" transform="translate(-451.983 -281.41)" opacity="0.1"/>
      <circle id="Ellipse_138" data-name="Ellipse 138" cx="1.81" cy="1.81" r="1.81" transform="translate(67.079 73.704)" fill="#a0616a"/>
      <path id="Path_488" data-name="Path 488" d="M518.6,366.942h-8.519c-.261-.582-.5-1.166-.759-1.748h0a1.212,1.212,0,0,1,.154-.391.425.425,0,0,1,.35-.2c.076,0,.162.029.216-.026s.036-.1.076-.136a.318.318,0,0,1,.206-.031.472.472,0,0,0,.4-.2.64.64,0,0,1,.1-.133.581.581,0,0,1,.219-.057c.211-.047.336-.261.5-.394a.3.3,0,0,1,.313-.086.194.194,0,0,1,.065.055.59.59,0,0,1,.086.217,1.935,1.935,0,0,0,.681,1.1,1.544,1.544,0,0,0,2.332-.582,3.041,3.041,0,0,0,.214-.989V363.3a.746.746,0,0,1,.621.123,3.507,3.507,0,0,0,.553.347c.232.091.522.091.681.261.068.068.115.162.2.2a.6.6,0,0,0,.167.039.989.989,0,0,1,.655.574,4.468,4.468,0,0,1,.365,1.32Z" transform="translate(-444.218 -285.684)" fill="#f86d70"/>
      <path id="Path_489" data-name="Path 489" d="M515.1,343.1a1.367,1.367,0,0,0-.316.365,1.8,1.8,0,0,1-.631.621.784.784,0,0,0-.289.18.484.484,0,0,0-.076.2,3.827,3.827,0,0,0-.081.77.82.82,0,0,0,.063.381c.052.11.151.2.169.323a.939.939,0,0,1-.031.282.245.245,0,0,0,.1.261.665.665,0,0,0,.146.034c.261.057.35.365.389.618.089,0,.128-.107.149-.19l.261-1.213c.031-.13.078-.284.211-.329a.66.66,0,0,1,.276,0c.36.031.662-.248,1.015-.326a1.384,1.384,0,0,1,.344-.021c.277,0,.6.128.66.386a.13.13,0,0,0,.055.115.218.218,0,0,0,.123,0c.175-.018.279.18.331.342l.182.592c.029.089.076.2.172.206a.182.182,0,0,0,.18-.159.72.72,0,0,0-.036-.261,2.824,2.824,0,0,1,.128-1.171,1.282,1.282,0,0,0-.177-1.135c-.1-.107-.229-.188-.321-.3s-.133-.237-.222-.344a2.277,2.277,0,0,0-1.265-.553,2.592,2.592,0,0,0-1.5.326Z" transform="translate(-447.457 -270.521)" fill="#3f3d56"/>
      <g id="Group_97" data-name="Group 97" transform="translate(66.247 74.004)" opacity="0.1">
        <path id="Path_490" data-name="Path 490" d="M518.909,352.1c-.1,0-.144-.117-.172-.206l-.182-.592c-.052-.162-.157-.36-.331-.344a.22.22,0,0,1-.123,0c-.039-.021-.044-.07-.055-.115-.06-.261-.383-.373-.66-.386a1.27,1.27,0,0,0-.344.023c-.352.076-.655.355-1.015.323a.759.759,0,0,0-.276,0c-.133.047-.18.2-.211.331-.091.4-.18.809-.261,1.21-.021.083-.06.185-.149.19-.039-.261-.128-.561-.389-.618a.545.545,0,0,1-.146-.034.164.164,0,0,1-.076-.086.863.863,0,0,1-.021.112.245.245,0,0,0,.1.261.66.66,0,0,0,.146.034c.261.057.35.365.389.618.089,0,.128-.107.149-.19.091-.4.18-.809.261-1.213.031-.13.078-.284.211-.329a.66.66,0,0,1,.277,0c.36.031.662-.248,1.015-.326a1.388,1.388,0,0,1,.344-.021c.276,0,.6.128.66.386a.13.13,0,0,0,.055.115.22.22,0,0,0,.123,0c.175-.018.279.18.331.342l.182.592c.029.089.076.2.172.206a.182.182,0,0,0,.18-.159.519.519,0,0,0-.026-.209A.161.161,0,0,1,518.909,352.1Z" transform="translate(-514.288 -350.214)"/>
        <path id="Path_491" data-name="Path 491" d="M513.943,352.308c-.018-.12-.117-.214-.17-.323a.663.663,0,0,1-.06-.235v.13a.821.821,0,0,0,.063.381c.042.089.115.167.151.261A.582.582,0,0,0,513.943,352.308Z" transform="translate(-513.711 -351.168)"/>
        <path id="Path_492" data-name="Path 492" d="M532.048,349.823a3.393,3.393,0,0,0-.149,1.043,6.312,6.312,0,0,1,.149-.762,2,2,0,0,0,.044-.584A2.374,2.374,0,0,1,532.048,349.823Z" transform="translate(-527.155 -349.52)"/>
      </g>
      <path id="Path_493" data-name="Path 493" d="M509.082,371.755H507.05a6.383,6.383,0,0,1,.477-1.586.362.362,0,0,1,.086-.138.126.126,0,0,1,.029-.024c.06-.047.143-.065.209-.11s.073-.091.133-.11a1.8,1.8,0,0,1,.663.11.66.66,0,0,1,.175.044.589.589,0,0,1,.276.339A3.2,3.2,0,0,1,509.082,371.755Z" transform="translate(-442.54 -290.498)" fill="#f86d70"/>
    </g>
    <text id="post_a_task" data-name="post a task" transform="translate(112 356)" fill="#4c45b2" font-size="20" font-family="HelveticaNeue, Helvetica Neue"><tspan x="-49.46" y="0">post a task</tspan></text>
    <text id="you_want_to_get_anything_done" data-name="you want to get anything done" transform="translate(112 333)" fill="#4c45b2" font-size="10" font-family="HelveticaNeue, Helvetica Neue"><tspan x="-67.885" y="0">you want to get anything done</tspan></text>
  </g>
</svg>
