<svg xmlns="http://www.w3.org/2000/svg" width="97.258" height="62.01" viewBox="0 0 97.258 62.01">
  <g id="techniian" transform="translate(-897 -825.475)">
    <g id="Group_78" data-name="Group 78" transform="translate(4 -34)">
      <path id="Path_429" data-name="Path 429" d="M42.751,286.044h81.014v15.864H42.751Z" transform="translate(858.37 610.143)" fill="#4073c8"/>
      <path id="Path_430" data-name="Path 430" d="M102.07,128.86v16.5H89.7c.009-.183.013-.367.013-.554a11.974,11.974,0,0,0-23.948,0c0,.187,0,.371.013.554H42.145c.009-.183.013-.367.013-.554a11.974,11.974,0,0,0-23.948,0c0,.187,0,.371.013.554H7.512V118.4l6-20.24a7.525,7.525,0,0,1,7.215-5.384H65.674a7.526,7.526,0,0,1,7.138,5.143L79.646,118.4l17.226,3.936a6.687,6.687,0,0,1,5.2,6.52Z" transform="translate(886.915 766.695)" fill="#6c63ff"/>
      <path id="Path_431" data-name="Path 431" d="M25.1,92.78a7.525,7.525,0,0,0-7.215,5.384l-6,20.24v26.952H7.512V118.4l6-20.24a7.525,7.525,0,0,1,7.215-5.384Z" transform="translate(886.915 766.695)" fill="#65617d"/>
      <g id="Group_70" data-name="Group 70" transform="translate(902.465 864.618)">
        <path id="Path_432" data-name="Path 432" d="M58.88,140.334H54.093a4.265,4.265,0,0,1-4.136-5.3l2.989-11.952a4.266,4.266,0,0,1,4.138-3.229h1.8Z" transform="translate(-49.827 -119.853)" fill="#e4f6ff"/>
        <path id="Path_433" data-name="Path 433" d="M130.695,140.334h13.747a4.235,4.235,0,0,0,4.235-4.235V124.088a4.235,4.235,0,0,0-4.235-4.235H130.695a4.235,4.235,0,0,0-4.235,4.235V136.1A4.235,4.235,0,0,0,130.695,140.334Z" transform="translate(-111.903 -119.853)" fill="#e4f6ff"/>
        <path id="Path_434" data-name="Path 434" d="M287.375,119.852h-10.75a4.235,4.235,0,0,0-4.235,4.235V136.1a4.235,4.235,0,0,0,4.235,4.235h17.584" transform="translate(-230.113 -119.852)" fill="#e4f6ff"/>
        <path id="Path_435" data-name="Path 435" d="M452.143,276.032a2.942,2.942,0,0,1-2.942-2.942v-3.037a2.942,2.942,0,0,1,5.884,0v3.037A2.942,2.942,0,0,1,452.143,276.032Z" transform="translate(-373.337 -239.138)" fill="#e4f6ff"/>
      </g>
      <path id="Path_436" data-name="Path 436" d="M284.419,255.988h-5.125a1.427,1.427,0,1,1,0-2.854h5.125a1.427,1.427,0,0,1,0,2.854Z" transform="translate(667.916 636.802)" fill="#f9f6f9"/>
      <path id="Path_437" data-name="Path 437" d="M133.492,255.988h-5.125a1.427,1.427,0,1,1,0-2.854h5.125a1.427,1.427,0,0,1,0,2.854Z" transform="translate(790.173 636.802)" fill="#f9f6f9"/>
      <g id="Group_71" data-name="Group 71" transform="translate(907.112 901.512)">
        <ellipse id="Ellipse_105" data-name="Ellipse 105" cx="9.987" cy="9.987" rx="9.987" ry="9.987" transform="translate(0)" fill="#818181"/>
        <path id="Path_438" data-name="Path 438" d="M85.833,333.927a10.238,10.238,0,0,1-1.556.12,9.987,9.987,0,1,1,0-19.973,10.234,10.234,0,0,1,1.556.12,9.989,9.989,0,0,0,0,19.734Z" transform="translate(-74.29 -314.074)" fill="#454545"/>
        <ellipse id="Ellipse_106" data-name="Ellipse 106" cx="4.163" cy="4.163" rx="4.163" ry="4.163" transform="translate(5.823 5.823)" fill="#f9f6f9"/>
        <path id="Path_439" data-name="Path 439" d="M110.253,352.9a4.164,4.164,0,1,1,0-8.008,4.165,4.165,0,0,0,0,8.008Z" transform="translate(-99.122 -338.908)" fill="#dfeaef"/>
      </g>
      <path id="Path_440" data-name="Path 440" d="M452.542,329.263H441.788a1.427,1.427,0,0,1,0-2.854h10.754a1.427,1.427,0,1,1,0,2.854Z" transform="translate(536.289 577.446)" fill="#f9f6f9"/>
      <path id="Path_441" data-name="Path 441" d="M9.465,329.263H1.427a1.427,1.427,0,0,1,0-2.854H9.465a1.427,1.427,0,0,1,0,2.854Z" transform="translate(893 577.446)" fill="#f9f6f9"/>
      <path id="Path_442" data-name="Path 442" d="M215.749,329.263H197.238a1.427,1.427,0,0,1,0-2.854h18.511a1.427,1.427,0,0,1,0,2.854Z" transform="translate(734.385 577.446)" fill="#65617d"/>
      <g id="Group_72" data-name="Group 72" transform="translate(954.672 901.512)">
        <ellipse id="Ellipse_107" data-name="Ellipse 107" cx="9.987" cy="9.987" rx="9.987" ry="9.987" fill="#818181"/>
        <path id="Path_443" data-name="Path 443" d="M336.2,333.927a10.238,10.238,0,0,1-1.556.12,9.987,9.987,0,0,1,0-19.973,10.234,10.234,0,0,1,1.556.12,9.989,9.989,0,0,0,0,19.734Z" transform="translate(-324.66 -314.074)" fill="#454545"/>
        <ellipse id="Ellipse_108" data-name="Ellipse 108" cx="4.163" cy="4.163" rx="4.163" ry="4.163" transform="translate(5.823 5.823)" fill="#f9f6f9"/>
        <path id="Path_444" data-name="Path 444" d="M360.622,352.9a4.164,4.164,0,1,1,0-8.008,4.165,4.165,0,0,0,0,8.008Z" transform="translate(-349.491 -338.908)" fill="#dfeaef"/>
      </g>
    </g>
  </g>
</svg>
