<svg xmlns="http://www.w3.org/2000/svg" width="90.237" height="97.258" viewBox="0 0 90.237 97.258">
  <g id="assembly" transform="translate(-1157 -807.799)">
    <g id="Group_79" data-name="Group 79" transform="translate(4 -34)">
      <path id="Path_445" data-name="Path 445" d="M105.341,181.075H50.616a2.108,2.108,0,1,0,0,4.216l54.725,3.424Z" transform="translate(1110.196 695.12)" fill="#e4f6ff"/>
      <path id="Path_446" data-name="Path 446" d="M54.411,184.675a2.1,2.1,0,0,0,1.491.616H50.617a2.108,2.108,0,0,1,0-4.215H55.9a2.109,2.109,0,0,0-1.491,3.6Z" transform="translate(1110.195 695.119)" fill="#d3effb"/>
      <path id="Path_447" data-name="Path 447" d="M351.5,38.612l-13.643,3.78-12.377-3.78c0-1.645-.032-3.483-.027-5.454.015-10.608,1-25.017,13.038-33.157,12.034,8.141,13.023,22.55,13.038,33.158,0,1.971-.027,3.809-.027,5.454Z" transform="translate(885.859 841.799)" fill="#e0e0e0"/>
      <path id="Path_448" data-name="Path 448" d="M351.5,180.006l-13.643,3.78-12.377-3.78c0-1.645-.032-3.483-.027-5.454h26.075C351.532,176.523,351.5,178.362,351.5,180.006Z" transform="translate(885.859 700.404)" fill="#dfeaef"/>
      <path id="Path_449" data-name="Path 449" d="M111.509,266.574a4.477,4.477,0,0,1,0-6.331l49.6-49.6,6.331,6.331-49.6,49.6A4.477,4.477,0,0,1,111.509,266.574Z" transform="translate(1060.224 671.171)" fill="#818181"/>
      <path id="Path_450" data-name="Path 450" d="M113.893,262.623a4.471,4.471,0,0,0-.959,4.91,4.477,4.477,0,0,1-1.42-7.289l49.6-49.6,2.379,2.379Z" transform="translate(1060.221 671.17)" fill="#454545"/>
      <path id="Path_451" data-name="Path 451" d="M156.371,266.574a4.477,4.477,0,0,0,0-6.331l-49.6-49.6-6.331,6.331,49.6,49.6A4.476,4.476,0,0,0,156.371,266.574Z" transform="translate(1068.131 671.171)" fill="#818181"/>
      <path id="Path_452" data-name="Path 452" d="M152.42,281.051a4.471,4.471,0,0,0,4.91.959,4.477,4.477,0,0,1-7.289,1.42l-49.6-49.6,2.379-2.379Z" transform="translate(1068.13 654.316)" fill="#454545"/>
      <path id="Path_453" data-name="Path 453" d="M103.471,213.76H23.727a5.246,5.246,0,1,1,0-10.492H103.47a5.246,5.246,0,0,1,0,10.492Z" transform="translate(1134.519 677.143)" fill="#6c63ff"/>
      <path id="Path_454" data-name="Path 454" d="M108.718,223.113a5.245,5.245,0,0,1-5.246,5.246H23.727a5.246,5.246,0,0,1-4.92-7.068,5.245,5.245,0,0,0,4.92,3.425h79.744a5.242,5.242,0,0,0,4.92-3.425A5.207,5.207,0,0,1,108.718,223.113Z" transform="translate(1134.519 662.543)" fill="#65617d"/>
      <path id="Path_455" data-name="Path 455" d="M101.668,228.219H83.621v-33.3l18.047-1.957Z" transform="translate(1081.753 685.488)" fill="#e4f6ff"/>
      <path id="Path_456" data-name="Path 456" d="M83.621,203.268h3.916v33.3H83.621Z" transform="translate(1081.753 677.143)" fill="#d3effb"/>
      <g id="Group_73" data-name="Group 73" transform="translate(1217.109 852.082)">
        <ellipse id="Ellipse_109" data-name="Ellipse 109" cx="1.468" cy="1.468" rx="1.468" ry="1.468" transform="translate(0 14.55)" fill="#dfeaef"/>
        <ellipse id="Ellipse_110" data-name="Ellipse 110" cx="1.468" cy="1.468" rx="1.468" ry="1.468" transform="translate(0.42 7.415)" fill="#dfeaef"/>
        <ellipse id="Ellipse_111" data-name="Ellipse 111" cx="1.468" cy="1.468" rx="1.468" ry="1.468" transform="translate(5.773)" fill="#dfeaef"/>
        <ellipse id="Ellipse_112" data-name="Ellipse 112" cx="1.468" cy="1.468" rx="1.468" ry="1.468" transform="translate(11.124 7.415)" fill="#dfeaef"/>
        <ellipse id="Ellipse_113" data-name="Ellipse 113" cx="1.468" cy="1.468" rx="1.468" ry="1.468" transform="translate(11.545 14.55)" fill="#dfeaef"/>
      </g>
      <ellipse id="Ellipse_114" data-name="Ellipse 114" cx="1.468" cy="1.468" rx="1.468" ry="1.468" transform="translate(1168.321 907.483)" fill="#454545"/>
      <path id="Path_457" data-name="Path 457" d="M83.621,322.16h18.047v2.295H83.621Z" transform="translate(1081.753 580.835)" fill="#d3effb"/>
    </g>
  </g>
</svg>
