<svg xmlns="http://www.w3.org/2000/svg" xmlns:xlink="http://www.w3.org/1999/xlink" width="747.145" height="569.974" viewBox="0 0 747.145 569.974">
  <defs>
    <linearGradient id="linear-gradient" x1="0.5" y1="1" x2="0.5" gradientUnits="objectBoundingBox">
      <stop offset="0" stop-color="gray" stop-opacity="0.251"/>
      <stop offset="0.54" stop-color="gray" stop-opacity="0.122"/>
      <stop offset="1" stop-color="gray" stop-opacity="0.102"/>
    </linearGradient>
  </defs>
  <g id="hero" transform="translate(0 -0.008)">
    <path id="Path_371" data-name="Path 371" d="M749.936,429.263c-4.422,10.657-10.223,20.873-18.341,28.709-9.892,9.547-22.177,14.755-35.331,17.245a106.42,106.42,0,0,1-11.726,1.518,170.444,170.444,0,0,1-31.247-.842,369.45,369.45,0,0,1-73.6-15.748q-5.9-1.9-11.726-4.008-8.795-3.159-17.431-6.767c-23.453-9.8-47.7-22.3-72.649-18.424-12.092,1.883-23.453,7.588-35.572,9.285A63.606,63.606,0,0,1,416.9,438.41a87.321,87.321,0,0,1-11.726-4.049A133.434,133.434,0,0,1,380.809,420.6c-18.279-12.775-34.683-28.612-53.928-39.677-21.218-12.2-44.705-18-68.634-22.328q-5.843-1.055-11.726-2.014c-11.071-1.828-22.17-3.518-33.11-5.518-10.54-1.945-21.266-4.325-30.44-10.174-6.546-4.173-12.051-9.954-17.1-16.044a191.408,191.408,0,0,1-23.811-36.711q-.517-1.035-1.014-2.069c-10.133-20.79-16.948-43.457-21.128-66.91-.124-.69-.241-1.38-.359-2.069a377.849,377.849,0,0,1-4.932-70.358l.041-2.069c.269-11.651.993-23.253,2.069-34.689.773-8.043,1.807-16.389,5.974-23.149s10.947-11.106,17.734-14.72c29.868-15.913,58.5-20.342,90.631-12.63,5.16,1.235,10.3,2.566,15.437,3.946,3.911,1.048,7.822,2.131,11.726,3.221,27,7.512,53.9,15.52,81.823,17.914q4.042.352,8.091.538,8.008.372,16.017.166a276.735,276.735,0,0,0,41-4.222q5.877-1.014,11.726-2.249c16.831-3.511,33.51-8.195,49.92-13.375q5.029-1.587,10.043-3.228c7.532-2.463,15.065-4.973,22.611-7.415C522,47.465,544.668,40.795,567.963,38.1q2.987-.338,5.987-.6c1.911-.166,3.828-.3,5.739-.393A195.18,195.18,0,0,1,684.537,61.764q5.967,3.325,11.726,7.063Q704.244,74.022,711.735,80c10.237,8.174,19.818,17.479,27.116,28.661a103.731,103.731,0,0,1,14.382,35.979c.145.69.283,1.38.407,2.069,3.9,20.756,2.683,43.015-1.69,63.812-.462,2.18-.952,4.366-1.462,6.546-.159.69-.324,1.38-.49,2.069-4.718,19.666-10.747,39.277-9.174,59.384.2,2.532.517,5.042.931,7.526.117.69.235,1.38.366,2.069,3.076,16.4,10.071,31.965,14.265,48.209a148.525,148.525,0,0,1-6.45,92.935Z" transform="translate(-75.84 -36.84)" fill="#6c63ff" opacity="0.1"/>
    <path id="Path_372" data-name="Path 372" d="M696.291,146.831h57.377c-.124-.69-.262-1.38-.407-2.069h-56.97V68.947q-5.753-3.739-11.726-7.063v82.878H579.716V37.23c-1.911.1-3.828.228-5.739.393s-3.994.372-5.987.6V144.761H418.306l-.359-.393L499.5,54.882c-7.546,2.442-15.079,4.953-22.611,7.415l-59.963,65.827V78.9q-5.856,1.228-11.726,2.249v49.216l-41-45.009q-8.008.193-16.017-.166L402.1,144.354l-.359.393H258.261V66.732c-3.9-1.09-7.815-2.173-11.726-3.221v81.25H114.681l-.041,2.069H246.548v70.358H119.572c.117.69.235,1.38.359,2.069H246.548v66.91H141.059q.5,1.035,1.014,2.069H246.548v68.468q5.877.959,11.726,2.014V288.237H405.2V434.473a87.317,87.317,0,0,0,11.726,4.049V288.237H567.99V456.249q5.836,2.111,11.726,4.008V288.237H684.564V476.846a106.4,106.4,0,0,0,11.726-1.518V288.237h45.857c-.131-.69-.248-1.38-.366-2.069H696.256v-66.91h53.735c.166-.69.331-1.38.49-2.069h-54.19Zm-11.726,0v70.358H579.716V146.831ZM567.99,217.189H416.926V146.831H567.99ZM258.275,146.831H403.13l2.069,1.883v68.475H258.275Zm0,139.337v-66.91H405.2v66.91Zm158.651,0v-66.91H567.99v66.91Zm267.638,0H579.716v-66.91H684.564Z" transform="translate(-75.867 -36.959)" fill="#6c63ff" opacity="0.1"/>
    <path id="Path_373" data-name="Path 373" d="M849.888,123.9h-.911a2.235,2.235,0,0,0,1.11-1.807h0c0-1.428-1.745-2.594-3.877-2.594H818.992c-2.131,0-3.884,1.166-3.884,2.594h0c0,1.428,1.752,2.594,3.884,2.594h.911a2.228,2.228,0,0,0-1.111,1.807c0,1.214,1.269,2.235,2.966,2.511h-7.795c-2.138,0-3.883,1.166-3.883,2.594s1.745,2.594,3.883,2.594h27.185c2.138,0,3.884-1.173,3.884-2.594,0-1.214-1.276-2.242-2.973-2.518h7.829c2.131,0,3.877-1.166,3.877-2.587S852.019,123.9,849.888,123.9Z" transform="translate(-291.6 -62.48)" fill="#6c63ff" opacity="0.1"/>
    <path id="Path_374" data-name="Path 374" d="M422.728,159.664h-.911a2.256,2.256,0,0,0,1.111-1.807h0c0-1.421-1.745-2.587-3.884-2.587H391.86c-2.138,0-3.884,1.166-3.884,2.587h0c0,1.428,1.745,2.594,3.884,2.594h.9a2.249,2.249,0,0,0-1.1,1.807c0,1.214,1.269,2.242,2.966,2.518H386.8c-2.131,0-3.877,1.166-3.877,2.587s1.745,2.594,3.877,2.594h27.219c2.131,0,3.884-1.166,3.884-2.594,0-1.214-1.276-2.235-2.973-2.511h7.829c2.131,0,3.877-1.166,3.877-2.594S424.859,159.664,422.728,159.664Z" transform="translate(-159.09 -73.576)" fill="#6c63ff" opacity="0.1"/>
    <path id="Path_375" data-name="Path 375" d="M910.348,312.721h-.911a2.255,2.255,0,0,0,1.111-1.807h0c0-1.428-1.745-2.594-3.883-2.594H879.48c-2.138,0-3.884,1.166-3.884,2.594h0c0,1.428,1.745,2.594,3.884,2.594h.9a2.249,2.249,0,0,0-1.1,1.807c0,1.214,1.269,2.235,2.966,2.511h-7.829c-2.131,0-3.877,1.166-3.877,2.594s1.745,2.594,3.877,2.594h27.191c2.131,0,3.883-1.166,3.883-2.594,0-1.214-1.276-2.242-2.973-2.518h7.829c2.131,0,3.877-1.166,3.877-2.587S912.479,312.721,910.348,312.721Z" transform="translate(-310.355 -121.054)" fill="#6c63ff" opacity="0.1"/>
    <ellipse id="Ellipse_1" data-name="Ellipse 1" cx="291.477" cy="32.179" rx="291.477" ry="32.179" transform="translate(71.062 470.245)" fill="#6c63ff" opacity="0.1"/>
    <path id="Path_376" data-name="Path 376" d="M616.23,424.716V525.909a18.764,18.764,0,0,1-.69,5.084,19.08,19.08,0,0,1-18.39,14H511.616a19.08,19.08,0,0,1-19.086-19.086V424.716a19.08,19.08,0,0,1,19.086-19.086H597.15a19.079,19.079,0,0,1,18.389,14A18.765,18.765,0,0,1,616.23,424.716Z" transform="translate(-193.093 -151.24)" fill="#e9ccdb"/>
    <path id="Path_377" data-name="Path 377" d="M493.91,431.011V532.2a19.051,19.051,0,0,1-.69,5.091,19.049,19.049,0,0,1-.69-5.091V431.011a19.052,19.052,0,0,1,.69-5.091,19.052,19.052,0,0,1,.69,5.091Z" transform="translate(-193.093 -157.534)" opacity="0.1"/>
    <rect id="Rectangle_15" data-name="Rectangle 15" width="149.912" height="139.337" rx="27.67" transform="translate(149.526 254.39)" fill="#e9ccdb"/>
    <path id="Path_378" data-name="Path 378" d="M671.24,431.014V532.206a18.766,18.766,0,0,1-.69,5.084,19.036,19.036,0,0,1-.69-5.084V431.014a19.036,19.036,0,0,1,.69-5.084,18.766,18.766,0,0,1,.69,5.084Z" transform="translate(-248.102 -157.538)" opacity="0.1"/>
    <rect id="Rectangle_16" data-name="Rectangle 16" width="149.919" height="139.337" rx="27.67" transform="translate(423.137 254.39)" fill="#e9ccdb"/>
    <path id="Path_379" data-name="Path 379" d="M419.623,606.189H282.679l-.69-11.968c-.759-13.437,16.61-24.591,38.3-24.591h93.2c7.277,0,12.892,3.959,11.961,8.429Z" transform="translate(-127.773 -202.115)" opacity="0.1"/>
    <path id="Path_380" data-name="Path 380" d="M419.623,608.189H282.679l-.69-11.968c-.759-13.437,16.61-24.591,38.3-24.591h93.2c7.277,0,12.892,3.959,11.961,8.429Z" transform="translate(-127.773 -202.735)" fill="#caa4bc"/>
    <path id="Path_381" data-name="Path 381" d="M677.8,607.339H814.744l.69-11.968c.759-13.437-16.61-24.591-38.3-24.591h-93.2c-7.27,0-12.892,3.959-11.961,8.429Z" transform="translate(-248.724 -202.472)" opacity="0.1"/>
    <path id="Path_382" data-name="Path 382" d="M677.8,609.339H814.744l.69-11.968c.759-13.437-16.61-24.591-38.3-24.591h-93.2c-7.27,0-12.892,3.959-11.961,8.429Z" transform="translate(-248.724 -203.092)" fill="#caa4bc"/>
    <path id="Path_383" data-name="Path 383" d="M447.746,533.94h92.79a19.721,19.721,0,0,1,19.721,19.721v12.251H426.1V555.565A21.639,21.639,0,0,1,447.746,533.94Z" transform="translate(-132.181 -165.632)" opacity="0.1"/>
    <path id="Path_384" data-name="Path 384" d="M447.746,535.94h92.79a19.721,19.721,0,0,1,19.721,19.721v12.251H426.1V557.565A21.639,21.639,0,0,1,447.746,535.94Z" transform="translate(-132.181 -166.252)" fill="#caa4bc"/>
    <path id="Path_385" data-name="Path 385" d="M234.417,553.79H345.473A18.624,18.624,0,0,1,364.1,572.414v25.177H226.16V562.047a8.277,8.277,0,0,1,8.257-8.257Z" transform="translate(-70.157 -171.789)" fill="#e9ccdb"/>
    <path id="Path_386" data-name="Path 386" d="M438.193,553.79H543.73a18.624,18.624,0,0,1,18.624,18.624v25.177H420.61V571.38A17.59,17.59,0,0,1,438.193,553.79Z" transform="translate(-130.478 -171.789)" opacity="0.1"/>
    <path id="Path_387" data-name="Path 387" d="M442.193,553.79H547.73a18.624,18.624,0,0,1,18.624,18.624v25.177H424.61V571.38a17.59,17.59,0,0,1,17.583-17.59Z" transform="translate(-131.719 -171.789)" opacity="0.1"/>
    <path id="Path_388" data-name="Path 388" d="M440.193,553.79H545.73a18.624,18.624,0,0,1,18.624,18.624v25.177H422.61V571.38A17.59,17.59,0,0,1,440.193,553.79Z" transform="translate(-131.098 -171.789)" fill="#e9ccdb"/>
    <path id="Path_389" data-name="Path 389" d="M631.055,553.79h112.76a17.762,17.762,0,0,1,17.762,17.762v26.039H623.66V561.185a7.4,7.4,0,0,1,7.395-7.395Z" transform="translate(-193.466 -171.789)" opacity="0.1"/>
    <path id="Path_390" data-name="Path 390" d="M633.055,553.79h112.76a17.762,17.762,0,0,1,17.762,17.762v26.04H625.66V561.185a7.4,7.4,0,0,1,7.395-7.395Z" transform="translate(-194.087 -171.789)" fill="#e9ccdb"/>
    <path id="Path_391" data-name="Path 391" d="M276.052,738.63v18.8a9.491,9.491,0,0,1-9.485,9.485h-6.553a9.491,9.491,0,0,1-9.485-9.485v-18.8Z" transform="translate(-118.022 -254.541)" fill="#9c7aa5"/>
    <path id="Path_392" data-name="Path 392" d="M905.522,738.63v18.8a9.491,9.491,0,0,1-9.485,9.485h-6.553A9.492,9.492,0,0,1,880,757.427v-18.8Z" transform="translate(-313.29 -254.541)" fill="#9c7aa5"/>
    <path id="Path_393" data-name="Path 393" d="M274.974,548.457a25.177,25.177,0,1,0-30.047,24.7V674.93h28.281V557.748A25.191,25.191,0,0,0,274.974,548.457Z" transform="translate(-109.983 -187.736)" fill="#e9ccdb"/>
    <path id="Path_394" data-name="Path 394" d="M868.44,548.457a25.177,25.177,0,1,1,30.047,24.7V674.93H870.206V557.748a25.191,25.191,0,0,1-1.766-9.291Z" transform="translate(-309.704 -187.736)" fill="#e9ccdb"/>
    <path id="Path_395" data-name="Path 395" d="M274.974,548.457a25.177,25.177,0,1,0-30.047,24.7V674.93h28.281V557.748A25.191,25.191,0,0,0,274.974,548.457Z" transform="translate(-109.983 -187.736)" opacity="0.1"/>
    <path id="Path_396" data-name="Path 396" d="M868.44,548.457a25.177,25.177,0,1,1,30.047,24.7V674.93H870.206V557.748a25.191,25.191,0,0,1-1.766-9.291Z" transform="translate(-309.704 -187.736)" opacity="0.1"/>
    <rect id="Rectangle_17" data-name="Rectangle 17" width="426.172" height="19.659" transform="translate(149.526 469.604)" fill="#9c7aa5"/>
    <rect id="Rectangle_18" data-name="Rectangle 18" width="418.826" height="45.181" transform="translate(154.23 425.802)" opacity="0.1"/>
    <rect id="Rectangle_19" data-name="Rectangle 19" width="418.826" height="45.181" transform="translate(154.23 424.423)" fill="#caa4bc"/>
    <rect id="Rectangle_20" data-name="Rectangle 20" width="25.481" height="6.553" transform="translate(566.744 484.089)" opacity="0.1"/>
    <path id="Path_397" data-name="Path 397" d="M877.47,551.455a25.177,25.177,0,1,1,30.027,24.7V677.928H879.215V560.746A25.052,25.052,0,0,1,877.47,551.455Z" transform="translate(-312.505 -188.665)" fill="#e9ccdb"/>
    <rect id="Rectangle_21" data-name="Rectangle 21" width="25.164" height="6.553" transform="translate(132.508 484.089)" opacity="0.1"/>
    <path id="Path_398" data-name="Path 398" d="M266.944,551.459a25.177,25.177,0,1,0-30.068,24.7V677.931h28.281V560.75a25.054,25.054,0,0,0,1.787-9.291Z" transform="translate(-107.492 -188.669)" fill="#e9ccdb"/>
    <rect id="Rectangle_22" data-name="Rectangle 22" width="397.422" height="1.262" transform="translate(163.218 424.423)" opacity="0.1"/>
    <circle id="Ellipse_2" data-name="Ellipse 2" cx="11.382" cy="11.382" r="11.382" transform="translate(121.127 350.615)" fill="#caa4bc"/>
    <circle id="Ellipse_3" data-name="Ellipse 3" cx="11.382" cy="11.382" r="11.382" transform="translate(580.844 350.615)" fill="#caa4bc"/>
    <path id="Path_399" data-name="Path 399" d="M367.777,500.442c-10.843-2.711-33.738-31.3-33.738-31.3-8.609-6.015-26.164-42.45-26.164-42.45s-6.663-3.139-12.533,10.975-40.008,25.4-50.23,26.978c-5.76.89-5.2,3.449-3.615,5.518a9.161,9.161,0,0,0,4.1,2.9c4.346,1.649,17.831,17.838,17.831,17.838,12.575,8.5,26.522,47.754,31.158,58.011,2.573,5.7,5.436,2.973,7.477-.579a54.078,54.078,0,0,1,15.817-17.314c17.548-12.34,36.359-17.459,37.642-17.479C357.14,513.5,378.62,503.152,367.777,500.442Z" transform="translate(-114.886 -157.683)" opacity="0.1"/>
    <path id="Path_400" data-name="Path 400" d="M213.45,461.423a10.637,10.637,0,0,1-4.518-3.283c-1.814-2.325-2.587-5.208,3.449-6.208,10.65-1.752,45.843-14.354,51.044-30.254s12.416-12.34,12.416-12.34,21.025,41.125,30.516,47.947c0,0,26.115,32.3,37.725,35.4s-10.292,14.686-12,14.713c-1.38,0-20.811,5.732-38.435,19.583a54.383,54.383,0,0,0-15.458,19.473c-1.9,4-4.732,7.07-7.843.635-5.594-11.582-23.032-55.873-36.869-65.53C233.481,481.558,218.14,463.258,213.45,461.423Z" transform="translate(-104.711 -152.285)" fill="#6c63ff"/>
    <path id="Path_401" data-name="Path 401" d="M213.45,461.423a10.637,10.637,0,0,1-4.518-3.283c-1.814-2.325-2.587-5.208,3.449-6.208,10.65-1.752,45.843-14.354,51.044-30.254s12.416-12.34,12.416-12.34,21.025,41.125,30.516,47.947c0,0,26.115,32.3,37.725,35.4s-10.292,14.686-12,14.713c-1.38,0-20.811,5.732-38.435,19.583a54.383,54.383,0,0,0-15.458,19.473c-1.9,4-4.732,7.07-7.843.635-5.594-11.582-23.032-55.873-36.869-65.53C233.481,481.558,218.14,463.258,213.45,461.423Z" transform="translate(-104.711 -152.285)" opacity="0.1"/>
    <path id="Path_402" data-name="Path 402" d="M224.492,461.8a9.526,9.526,0,0,1-4.208-2.932c-1.676-2.069-2.359-4.718,3.318-5.711,10.064-1.766,43.457-13.8,48.589-28.426s11.92-11.464,11.92-11.464,19.2,37.249,28.047,43.36c0,0,24.143,29.123,35.034,31.779s-9.926,13.568-11.533,13.63c-1.276.041-19.707,5.518-36.559,18.479a52.313,52.313,0,0,0-14.851,18.017c-1.856,3.683-4.573,6.532-7.408.69-5.1-10.505-20.866-50.741-33.765-59.322C243.075,479.9,228.886,463.438,224.492,461.8Z" transform="translate(-108.269 -153.521)" fill="#6c63ff"/>
    <path id="Path_403" data-name="Path 403" d="M282.859,500.43s-3.614,3.4,13.672-3.118S282.859,500.43,282.859,500.43Z" transform="translate(-127.953 -178.979)" opacity="0.1"/>
    <path id="Path_404" data-name="Path 404" d="M303.57,524.721s2.635.379,12.547-3.67S303.57,524.721,303.57,524.721Z" transform="translate(-134.475 -186.681)" opacity="0.1"/>
    <path id="Path_405" data-name="Path 405" d="M302.31,568.7s2.463,0,12.354-4.1S302.31,568.7,302.31,568.7Z" transform="translate(-134.084 -200.2)" opacity="0.1"/>
    <path id="Path_406" data-name="Path 406" d="M843.292,466.758v13.161C840.45,485.8,837.67,493.3,837.67,493.3c-8.277,10.775-6.967,46.671-7.512,56.363-.3,5.38-3.828,4.1-6.9,1.89a54.555,54.555,0,0,0-20.238-8.919c-20-4.38-38.628-2.559-39.815-2.173-1.462.483-24.308-1.055-15.562-6.65s19.2-35.731,19.2-35.731c5.594-7.533,8.512-42.3,8.512-42.3s4.828-4.615,15.072,4.829C800.152,469.668,831.91,468.565,843.292,466.758Z" transform="translate(-271.615 -166.449)" opacity="0.1"/>
    <path id="Path_407" data-name="Path 407" d="M852.367,470.384a7.87,7.87,0,0,0,2.649-3.615c.69-2.152.3-4.38-5.167-3.283-9.692,1.945-44.209,3.649-54.417-5.829s-15.072-4.863-15.072-4.863-2.918,34.758-8.512,42.3c0,0-10.45,30.137-19.2,35.731s14.1,7.132,15.562,6.643c1.159-.386,19.783-2.2,39.815,2.18a54.651,54.651,0,0,1,20.238,8.912c3.07,2.207,6.594,3.5,6.9-1.89.545-9.657-.752-45.581,7.512-56.356C842.669,490.312,849.056,473.075,852.367,470.384Z" transform="translate(-273.165 -165.523)" fill="#6c63ff"/>
    <path id="Path_408" data-name="Path 408" d="M852.367,470.384a7.87,7.87,0,0,0,2.649-3.615c.69-2.152.3-4.38-5.167-3.283-9.692,1.945-44.209,3.649-54.417-5.829s-15.072-4.863-15.072-4.863-2.918,34.758-8.512,42.3c0,0-10.45,30.137-19.2,35.731s14.1,7.132,15.562,6.643c1.159-.386,19.783-2.2,39.815,2.18a54.651,54.651,0,0,1,20.238,8.912c3.07,2.207,6.594,3.5,6.9-1.89.545-9.657-.752-45.581,7.512-56.356C842.669,490.312,849.056,473.075,852.367,470.384Z" transform="translate(-273.165 -165.523)" opacity="0.1"/>
    <path id="Path_409" data-name="Path 409" d="M851.06,473.068a7.477,7.477,0,0,0,2.511-3.449c.69-2.069.29-4.139-4.9-3.111-9.209,1.842-41.98,3.449-51.672-5.518s-14.313-4.615-14.313-4.615-2.759,33-8.077,40.153c0,0-9.919,28.619-18.231,33.931s13.389,6.767,14.768,6.3c1.1-.366,18.79-2.069,37.807,2.069a51.692,51.692,0,0,1,19.211,8.464c2.918,2.069,6.263,3.318,6.553-1.793.517-9.2-.69-43.277,7.132-53.514C841.851,491.982,847.915,475.62,851.06,473.068Z" transform="translate(-274.355 -166.654)" fill="#6c63ff"/>
    <path id="Path_410" data-name="Path 410" d="M851.574,508.63s-2.414,1.38-13.968,5.346S849.677,512.424,851.574,508.63Z" transform="translate(-299.156 -183.192)" opacity="0.1"/>
    <path id="Path_411" data-name="Path 411" d="M852.348,526.28s-7.243,5.932-10.864,6.45S850.279,532.074,852.348,526.28Z" transform="translate(-301.138 -188.667)" opacity="0.1"/>
    <path id="Path_412" data-name="Path 412" d="M860.7,566s-7.243,5.932-10.864,6.45S858.629,571.808,860.7,566Z" transform="translate(-303.728 -200.989)" opacity="0.1"/>
    <path id="Path_413" data-name="Path 413" d="M549.289,492.05a15.628,15.628,0,0,1-3.035-.435c-.069-.324-.621-.545-1.787-.593h-.235a24.583,24.583,0,0,1-9.395-6.387c-3.325-3.656-12.734-8.229-12.734-8.229s-6.65-5.608-11.037-6.063-16.514-12.692-26.833-24.018-26.267-23.674-26.267-23.674L451.2,415.1s-7.891-5.622-9.719-8.74c-1-1.69-4.139-2.559-7.353-2.863-3.449-1.38-9.14-1.38-11.8-.8-1.621.366-6.1,4.608-10.519,9.126l3.628-46.561a2.863,2.863,0,0,0-2-2.952l-12.209,5.953a2.759,2.759,0,0,0-1.552,2.3L396.4,420.553l-14.417,10.54a10.933,10.933,0,0,0-2.207-4.829c-8.084-10.54-20.652,9.457-25.336,17.824a2.718,2.718,0,0,0-.635.117,1.67,1.67,0,0,1-.421.648,59.8,59.8,0,0,1-10.1-6.229,3.325,3.325,0,0,1-.545-.814c-.69-1.718-3.4-4.67-4.966-6.3-4.76-5.36-11.857-12.54-12.871-13-.538-.235-3.083-2.187-6.243-4.663a32.232,32.232,0,0,0-1.614-3.056,11.313,11.313,0,0,0-8.767-5.125c-2.483-1.931-4.38-3.373-4.884-3.621-1.718-.855-5.677-7.036-7.588-10.981s-15.8-4.456-15.8-4.456a32.372,32.372,0,0,1,3.656-15.589c.145-.276.283-.545.428-.807a25.129,25.129,0,0,0,16.727-32.337c1.78-.628,3.953-.352,5.822-1.007,2.511-.876,4.787-2.9,5.173-5.518a8.084,8.084,0,0,0-1.159-5,16.553,16.553,0,0,0-3.166-4.008c-3.408-3.573-8.312-5.774-13.106-7.422-6.077-2.069-12.458-3.663-18.88-3.311s-12.927,2.821-17.065,7.719a14.085,14.085,0,0,1-2.573,2.7,8.494,8.494,0,0,1-5.153,1.1c-5.891-.214-12.044-2.538-17.479-.262-6.532,2.759-8.815,10.719-9.657,17.734-.876,7.222-1.09,14.568-3,21.583s-5.849,13.872-12.251,17.355a62.827,62.827,0,0,0-5.67,2.925c-1.759,1.2-3.256,3.063-3.263,5.187,0,2.9,2.6,5.029,3.959,7.588.69,1.3,1.09,2.794,1.773,4.077h0c.069.131.138.255.214.379l.041.069c.062.1.124.193.193.29a.489.489,0,0,0,.069.1l.193.262a1.175,1.175,0,0,1,.076.1c.1.11.193.221.3.324a4.686,4.686,0,0,0,.379.338,3.592,3.592,0,0,1,.31.345c2.959,2.987,8.215,1.3,12.009,3.111a8.318,8.318,0,0,1,1.98,1.38c1.269,1.38,2.29,3.083,3.449,4.615l.069.083.359.455.186.214c.083.1.172.207.262.3s.317.345.476.5l.31.283c.124.138.248.276.379.407,3.118,3.1,7.726,4.187,12.126,4.491a15.656,15.656,0,0,0,7.126-.821,9.575,9.575,0,0,0,2.759-1.793,27.377,27.377,0,0,0,4.139,2.676c3.628,2.373,7.65,4.587,11.444,7.1,3.953,3.759,8.74,9.091,8.8,12.975.09,5.153,7.174,15.272,10.347,19.535.159.848.228,1.331.228,1.331l14.561,21.446s1.09,3.345,6.774,3.532c-1.048,6.456-.69,17.81,4.353,19,5.849,1.38,15.369.228,16.748,1.945s24.081-.917,24.081-.917,12.616-2.856,20.99-.338a23.328,23.328,0,0,0,15.706-1.145s9.05-.855,10.223-4.394a2.718,2.718,0,0,0,.448-1.1,4.779,4.779,0,0,1,.3-1.124c.911-1.483,2.325-1.918,1.793-2.249.69-.593.835-.731-1.3-1.09a11.728,11.728,0,0,0-4.242.145q.766-.773,1.511-1.635a8.6,8.6,0,0,0,.952,0c3.166.179,2.945-1.193,5.9-1.931a90.407,90.407,0,0,1,11.354-1.718c4.456-.517,9.119-3.083,11.037-5.518s9.974-1.035,12.209-5.153c1.918-3.518-4.863-6.539-8.478-6.263a4.256,4.256,0,0,0-2.532.435c-2.125,1.38-9.747,2.014-12.361,2.18-.573-.207-2.876-1-5.587-1.69,2.345-3.842,5.629-9.078,8.6-13.3,5.394-7.664,8.6-10.409,8.6-10.409a19.2,19.2,0,0,1,4.139-4.725c4.035,10.223,27.847,27.336,39.318,29.316,12.616,2.173,25,12.465,25,12.465a45.856,45.856,0,0,0-1.145,6.9c0,.924,2.29,1.38,5.167,1.607,1.931,1.449,11.306,1.29,14.9.69,4.015-.69,15.369,2.173,24.66,2.759S554.9,492.278,549.289,492.05Z" transform="translate(-102.16 -122.059)" fill="url(#linear-gradient)"/>
    <path id="Path_414" data-name="Path 414" d="M374.022,459.9l-.862,10.954,5.318,11.533L386,489.009l8.181,4.829,7.588,5.284,7.588-6.815s-11.112-7.132-12.106-9.554-5.987-7.326-5.987-7.326l-7.05-6.815-5.725-5.222Z" transform="translate(-156.063 -168.075)" fill="#fd6f8d"/>
    <path id="Path_415" data-name="Path 415" d="M374.022,459.9l-.862,10.954,5.318,11.533L386,489.009l8.181,4.829,7.588,5.284,7.588-6.815s-11.112-7.132-12.106-9.554-5.987-7.326-5.987-7.326l-7.05-6.815-5.725-5.222Z" transform="translate(-156.063 -168.075)" opacity="0.1"/>
    <path id="Path_416" data-name="Path 416" d="M309.377,390.209a29.907,29.907,0,0,0-2.428,22.315c4.925,16.555-31.178-6.608-31.178-6.608s7.781-11.616,10.057-21.646c.738-3.249.9-6.339,0-8.809-3.58-10.078,28.44,7.388,28.44,7.388a34.4,34.4,0,0,0-4.891,7.36Z" transform="translate(-125.851 -140.91)" fill="#ffbec5"/>
    <path id="Path_417" data-name="Path 417" d="M317.84,420.37s13.582.5,15.431,4.366,5.7,9.912,7.388,10.754,19.48,15.451,20.99,16.12,16.8,16.624,16.8,18.307,15.789,11.423,25.867,12.934,25.522,19.652,30.061,18.976,13.8,2.69,13.8,2.69,10.416-.5,12.934-2.187,11.92,1.683,9.74,5.711-10.078,2.69-11.926,5.042-6.381,4.87-10.747,5.373a86.177,86.177,0,0,0-11.085,1.676c-3.359.842-2.518,2.518-7.588,1.683s-24.688-35.779-24.688-35.779l-21.832-9.905s-8.229-6.719-8.905-8.905S357.613,450.1,357.613,450.1l-20.659-15.12Z" transform="translate(-138.902 -155.813)" opacity="0.1"/>
    <path id="Path_418" data-name="Path 418" d="M319.3,420.37s13.582.5,15.431,4.366,5.711,9.912,7.388,10.754,19.48,15.451,21,16.12S379.9,468.234,379.9,469.918s15.789,11.423,25.867,12.934,25.522,19.652,30.061,18.976,13.8,2.69,13.8,2.69,10.416-.5,12.934-2.187,11.926,1.683,9.74,5.711-10.078,2.69-11.926,5.042-6.381,4.87-10.747,5.373a86.35,86.35,0,0,0-11.106,1.676c-3.352.842-2.518,2.518-7.588,1.683s-24.688-35.779-24.688-35.779l-21.832-9.905s-8.229-6.719-8.905-8.905S359.1,450.1,359.1,450.1l-20.694-15.12Z" transform="translate(-139.355 -155.813)" fill="#fd6f8d"/>
    <path id="Path_419" data-name="Path 419" d="M421.85,502.32s20.383-18.031,21.383-19.369c.5-.69,6.946-5.553,13.334-10.347a181.567,181.567,0,0,0,22.246-19.618c4.6-4.773,9.526-9.54,11.223-9.919,3.449-.786,12.2-.448,14,2.573s9.519,8.512,9.519,8.512l6.608,7.381s15.569,12.092,25.646,23.177,21.942,23.067,26.212,23.515,10.747,5.932,10.747,5.932,9.181,4.484,12.416,8.064,8.622,7.057,14.106,7.277-2.911,4.484-11.982,3.918-20.149-3.359-24.074-2.683-14.886.779-14.886-1.235a44.62,44.62,0,0,1,1.117-6.719s-12.092-10.05-24.384-12.175-39.214-22.17-38.994-31.461c0,0-3.8-.338-8.174,6.381,0,0-3.132,2.69-8.395,10.188s-11.533,18.245-11.533,18.245-9.74,19.693-17.576,19.535-16.238-1.062-16.238-1.062l-10.416-7.388-.69-8.967Z" transform="translate(-171.167 -162.741)" fill="#ffbec5"/>
    <path id="Path_420" data-name="Path 420" d="M421.85,502.32s20.383-18.031,21.383-19.369c.5-.69,6.946-5.553,13.334-10.347a181.567,181.567,0,0,0,22.246-19.618c4.6-4.773,9.526-9.54,11.223-9.919,3.449-.786,12.2-.448,14,2.573s9.519,8.512,9.519,8.512l6.608,7.381s15.569,12.092,25.646,23.177,21.942,23.067,26.212,23.515,10.747,5.932,10.747,5.932,9.181,4.484,12.416,8.064,8.622,7.057,14.106,7.277-2.911,4.484-11.982,3.918-20.149-3.359-24.074-2.683-14.886.779-14.886-1.235a44.62,44.62,0,0,1,1.117-6.719s-12.092-10.05-24.384-12.175-39.214-22.17-38.994-31.461c0,0-3.8-.338-8.174,6.381,0,0-3.132,2.69-8.395,10.188s-11.533,18.245-11.533,18.245-9.74,19.693-17.576,19.535-16.238-1.062-16.238-1.062l-10.416-7.388-.69-8.967Z" transform="translate(-171.167 -162.741)" opacity="0.05"/>
    <path id="Path_421" data-name="Path 421" d="M428.67,503.789s20.376-18.024,21.383-19.369,26.309-19.935,26.309-19.935,17.017-19.142,20.494-19.928,12.2-.448,14,2.573,9.512,8.512,9.512,8.512l6.608,7.388s15.562,12.092,25.639,23.177,21.949,23.067,26.212,23.515,10.747,5.939,10.747,5.939,9.181,4.477,12.416,8.057,8.622,7.057,14.106,7.277-2.911,4.484-11.982,3.918-20.156-3.352-24.074-2.683-14.879.814-14.879-1.255a43.07,43.07,0,0,1,1.124-6.719s-12.092-10.071-24.412-12.2-39.166-22.149-38.966-31.434c0,0-3.808-.338-8.174,6.381,0,0-3.132,2.69-8.395,10.188S474.8,515.44,474.8,515.44s-9.74,19.673-17.583,19.528-16.231-1.062-16.231-1.062l-10.416-7.388-.69-8.967Z" transform="translate(-173.283 -163.204)" fill="#ffbec5"/>
    <path id="Path_422" data-name="Path 422" d="M521.47,545.338c-.552.235-1.09.517-1.621.8L516.4,547.98a34.014,34.014,0,0,0,9.091.269c1.683-.179,4.049-1.607,2.131-3.3C526.1,543.628,523.022,544.662,521.47,545.338Z" transform="translate(-200.497 -194.261)" opacity="0.1"/>
    <path id="Path_423" data-name="Path 423" d="M499.869,549.068c1.869-.372,3.884-.738,5.629,0a9.661,9.661,0,0,1,1.69,1.042l2.994,2.159a38.057,38.057,0,0,1-7.912,1.449,3.084,3.084,0,0,1-1.069-.041,3.229,3.229,0,0,1-1.221-.773C497.641,550.958,496.062,549.827,499.869,549.068Z" transform="translate(-194.658 -195.604)" opacity="0.1"/>
    <path id="Path_424" data-name="Path 424" d="M318.679,382.849a34.4,34.4,0,0,0-4.9,7.36,24.688,24.688,0,0,1-23.549-5.939c.738-3.249.9-6.339,0-8.809C286.659,365.384,318.679,382.849,318.679,382.849Z" transform="translate(-130.249 -140.91)" opacity="0.1"/>
    <circle id="Ellipse_4" data-name="Ellipse 4" cx="24.632" cy="24.632" r="24.632" transform="translate(152.354 200.241)" fill="#ffbec5"/>
    <path id="Path_425" data-name="Path 425" d="M260.288,383.53l-1.318,2.125,16,17.362,7.519,5.256,4.346-5.829Z" transform="translate(-80.335 -118.973)" fill="#504f88"/>
    <path id="Path_426" data-name="Path 426" d="M355,447.353s7.884-.993,11.526,5.049A28.019,28.019,0,0,1,370.5,463.88s3.635,2.911,3.3,4.539a4.532,4.532,0,0,1-1.793,2.573s-7.057-4.028-7.112-4.2-5.429-6.1-5.429-6.1l-4.47-4.7Z" transform="translate(-150.429 -164.164)" fill="#504f88"/>
    <path id="Path_427" data-name="Path 427" d="M279.678,412.452s-12.313.979-13.547,9.574-1.676,13.492,2.69,19.424,13.32,8.4,13.32,8.4,13.547,10.637,13.665,17.127,11.533,21.052,11.533,21.052,21.735,16.12,20.163,21.273-2.028,19.818,3.683,21.163,15,.221,16.348,1.9,23.515-.9,23.515-.9,12.313-2.8,20.487-.338a22.722,22.722,0,0,0,15.341-1.131s9.519-.9,10.078-4.7,4.828-3.69.786-4.366-6.608,1.455-9.519.448-5.373-4.366-12.092-4.256-8.277.228-8.967.11,4.256-3.918,1.566-10.071-7.829-10.961-7.6-14.41-10.078-15.231-10.078-15.231-4.925-7.16-11.313-9.512-18.362-16.8-18.362-16.8-10.257-15.969-15.824-16.824-23.812-17.245-23.812-17.245S286.265,410.762,279.678,412.452Z" transform="translate(-122.599 -153.268)" opacity="0.1"/>
    <path id="Path_428" data-name="Path 428" d="M279.186,413.422s-12.32,1-13.568,9.574-1.676,13.492,2.69,19.431,13.327,8.395,13.327,8.395,13.547,10.637,13.658,17.134S306.826,489,306.826,489s21.749,16.127,20.183,21.3-2.021,19.818,3.683,21.163,15.01.228,16.348,1.9,23.515-.9,23.515-.9,12.32-2.794,20.494-.331A22.674,22.674,0,0,0,406.376,531s9.519-.9,10.078-4.7,4.829-3.7.786-4.366-6.608,1.455-9.519.441-5.373-4.366-12.092-4.249-8.277.221-8.967.11,4.249-3.918,1.566-10.078-7.836-10.974-7.588-14.444-10.078-15.231-10.078-15.231-4.925-7.16-11.306-9.512-18.362-16.8-18.362-16.8-10.264-15.969-15.824-16.831-23.818-17.21-23.818-17.21S285.766,411.732,279.186,413.422Z" transform="translate(-122.438 -153.569)" fill="#fd6f8d"/>
    <path id="Path_429" data-name="Path 429" d="M401.117,552.106c-.759,1.69-.924,3.89.379,5.2a7.587,7.587,0,0,0,2.814,1.449c2.1.821,4.139,2.263,4.829,4.415a5.016,5.016,0,0,0,.69,1.676,3.27,3.27,0,0,0,1.269.848A44.594,44.594,0,0,0,430.2,569.64a14.955,14.955,0,0,0-7.926-3.973c-2.373-.386-4.884-.207-7.077-1.193s-3.656-2.87-5.091-4.718a6.607,6.607,0,0,1-1.221-2.069c-.517-1.662.31-3.5-.166-5.173-.276-.959-2.58-4.387-3.559-4.6C403.669,547.615,401.62,550.981,401.117,552.106Z" transform="translate(-164.553 -195.372)" opacity="0.1"/>
    <path id="Path_430" data-name="Path 430" d="M527.39,491.511c1.38-.448,8.395-1.759,6.277-4.422C531.736,484.648,528.887,490.994,527.39,491.511Z" transform="translate(-203.907 -176.337)" opacity="0.1"/>
    <path id="Path_431" data-name="Path 431" d="M488.713,391.731l11.913-5.8-4.139,59.791-12.547-2.49,3.256-49.272A2.711,2.711,0,0,1,488.713,391.731Z" transform="translate(-190.428 -145.129)" fill="#cbe3ff"/>
    <path id="Path_432" data-name="Path 432" d="M506.269,385.93h0l-4.139,59.791h0a1.814,1.814,0,0,0,1.807-1.676l4.311-55.218a2.807,2.807,0,0,0-1.98-2.9Z" transform="translate(-196.071 -145.129)" fill="#c8bfca"/>
    <path id="Path_433" data-name="Path 433" d="M466.483,468.284l-37.8,27.785a2.759,2.759,0,0,0-.441,4.09l3.7,4.208,47.83-35.745-11.644-.835a2.456,2.456,0,0,0-1.642.5Z" transform="translate(-172.929 -170.521)" fill="#f1f1f2"/>
    <path id="Path_434" data-name="Path 434" d="M412.71,435.76l-25.46,17.824,3.546,3.842,29.7-21.135Z" transform="translate(-120.129 -135.175)" fill="#7e7a98"/>
    <path id="Path_435" data-name="Path 435" d="M433.94,504.745h0L481.756,469h0a3.78,3.78,0,0,1-1.145,4.663l-42,31.5A3.483,3.483,0,0,1,433.94,504.745Z" transform="translate(-174.917 -170.898)" fill="#c8bfca"/>
    <path id="Path_436" data-name="Path 436" d="M422,496.2s16.693-33.724,26.55-20.825-15.12,26.9-15.12,26.9Z" transform="translate(-171.213 -171.965)" fill="#ffbec5"/>
    <path id="Path_437" data-name="Path 437" d="M286.4,426a19.956,19.956,0,0,0-14.072,13.527c-1.083,3.7-1.007,7.767,2.663,10.485,8.4,6.208,20.266,10.581,25.757,20.77A71.931,71.931,0,0,1,307.782,492l14.223,20.99s2.159,6.719,16.555,1.462,22.266-7.953,22.266-7.953,11.161-5.987,16.148-8.174a9.042,9.042,0,0,1,2.221-.786c1.676,0,13.678-10.271,14.23-11.685s-12.133-7.291-17.2-6.015c0,0-.724,3.035-10.243,2.587s-13.106,3.587-13.106,3.587-4.7-1.683-7.726-1.518-8.505-2.759-12.6-2.407c0,0,2.069-4.139-.614-7.588s-5.153-3.139-6.27-7.222c-.641-2.331-2.759-9.747-4.477-15.706a43.229,43.229,0,0,0-12.858-20.549c-4.015-3.539-8.788-6.415-13.575-6.243A37.608,37.608,0,0,0,286.4,426Z" transform="translate(-124.595 -157.178)" opacity="0.1"/>
    <path id="Path_438" data-name="Path 438" d="M286.821,423.575a20,20,0,0,0-14.092,13.534c-1.076,3.7-1.007,7.76,2.669,10.478,8.395,6.208,20.266,10.581,25.75,20.77a71.888,71.888,0,0,1,7.057,21.218l14.223,21s2.152,6.719,16.555,1.455,22.266-7.946,22.266-7.946,11.161-5.994,16.141-8.174a8.828,8.828,0,0,1,2.221-.786c1.683,0,13.685-10.271,14.23-11.685s-12.126-7.291-17.2-6.015c0,0-.724,3.035-10.243,2.587s-13.106,3.58-13.106,3.58-4.7-1.676-7.726-1.511-8.512-2.759-12.6-2.407c0,0,2.069-4.139-.621-7.588s-5.146-3.132-6.27-7.222c-.635-2.325-2.759-9.74-4.47-15.706A43.263,43.263,0,0,0,308.756,428.6c-4.021-3.539-8.788-6.415-13.575-6.208A37.365,37.365,0,0,0,286.821,423.575Z" transform="translate(-124.72 -156.438)" opacity="0.1"/>
    <path id="Path_439" data-name="Path 439" d="M286.4,424.555a19.956,19.956,0,0,0-14.072,13.527c-1.083,3.7-1.007,7.767,2.663,10.485,8.4,6.208,20.266,10.581,25.757,20.77a71.932,71.932,0,0,1,7.036,21.218l14.223,20.99s2.159,6.719,16.555,1.455,22.266-7.946,22.266-7.946,11.161-5.994,16.148-8.174a8.741,8.741,0,0,1,2.221-.786c1.676,0,13.678-10.271,14.23-11.685s-12.133-7.291-17.2-6.015c0,0-.724,3.035-10.243,2.587s-13.106,3.58-13.106,3.58-4.7-1.676-7.726-1.511-8.505-2.759-12.6-2.407c0,0,2.069-4.139-.614-7.588s-5.153-3.132-6.27-7.215c-.641-2.331-2.759-9.747-4.477-15.713a43.209,43.209,0,0,0-12.858-20.542c-4.015-3.546-8.788-6.415-13.575-6.208a37.609,37.609,0,0,0-8.36,1.18Z" transform="translate(-124.595 -156.742)" fill="#fd6f8d"/>
    <path id="Path_440" data-name="Path 440" d="M310.223,338.921c2.449-.855,4.677-2.842,5.056-5.408a7.96,7.96,0,0,0-1.152-4.911c-3.063-5.518-9.236-8.457-15.175-10.512s-12.161-3.594-18.431-3.242-12.623,2.759-16.679,7.588a13.671,13.671,0,0,1-2.511,2.649,8.3,8.3,0,0,1-5.029,1.083c-5.753-.214-11.761-2.49-17.065-.255-6.374,2.676-8.609,10.492-9.436,17.362-.855,7.063-1.062,14.258-2.932,21.128s-5.7,13.582-11.954,16.99a58.721,58.721,0,0,0-5.518,2.863c-1.7,1.173-3.18,3-3.187,5.084,0,2.835,2.538,4.918,3.863,7.422.966,1.828,1.338,4.015,2.794,5.477,2.89,2.925,8.015,1.269,11.726,3.049,3.3,1.587,4.718,5.47,7.312,8.057,3.049,3.042,7.546,4.1,11.837,4.4a15.179,15.179,0,0,0,6.953-.8c4.318-1.828,6.608-6.76,6.863-11.437s-1.09-9.271-2.069-13.858a7.692,7.692,0,0,1,0-4.566,6.9,6.9,0,0,1,2.311-2.759c5.1-4.028,12.361-5.87,15.286-11.671,1.966-3.9,1.38-8.526,1.849-12.865a6.792,6.792,0,0,1,1.745-4.339c1.435-1.318,3.58-1.38,5.518-1.552a27.8,27.8,0,0,0,15.52-6.739c2.111-1.842,3.387-4.139,5.222-6.146S307.747,339.769,310.223,338.921Z" transform="translate(-104.273 -123.063)" opacity="0.1"/>
    <path id="Path_441" data-name="Path 441" d="M309.22,337.951c2.449-.862,4.677-2.849,5.056-5.415a7.96,7.96,0,0,0-1.159-4.9c-3.056-5.518-9.236-8.457-15.175-10.519s-12.168-3.587-18.431-3.235-12.623,2.759-16.686,7.588a13.636,13.636,0,0,1-2.5,2.649,8.255,8.255,0,0,1-5.029,1.083c-5.753-.207-11.761-2.483-17.072-.255-6.374,2.683-8.609,10.5-9.436,17.362-.848,7.07-1.055,14.258-2.925,21.128s-5.711,13.589-11.961,16.99a58.774,58.774,0,0,0-5.518,2.87c-1.7,1.18-3.18,3-3.18,5.077,0,2.835,2.538,4.925,3.863,7.429.959,1.821,1.338,4.015,2.759,5.477,2.9,2.918,8.022,1.262,11.726,3.049,3.3,1.587,4.725,5.47,7.319,8.057,3.042,3.035,7.539,4.1,11.837,4.394a15.1,15.1,0,0,0,6.953-.8c4.318-1.828,6.608-6.753,6.863-11.43s-1.1-9.278-2.069-13.858a8.1,8.1,0,0,1-.034-4.566,6.967,6.967,0,0,1,2.318-2.759c5.091-4.021,12.354-5.863,15.279-11.664,1.966-3.9,1.38-8.526,1.856-12.865a6.793,6.793,0,0,1,1.738-4.339c1.442-1.324,3.587-1.38,5.518-1.552a27.874,27.874,0,0,0,15.527-6.746c2.111-1.835,3.38-4.139,5.222-6.146S306.765,338.82,309.22,337.951Z" transform="translate(-103.96 -122.762)" fill="#ffe2da"/>
    <g id="Group_11" data-name="Group 11" transform="translate(106.821 201.462)" opacity="0.1">
      <path id="Path_442" data-name="Path 442" d="M224.4,440.931c-3.449-1.655-8.139-.331-11.106-2.511a6.38,6.38,0,0,0,1.055,1.483c2.9,2.918,8.022,1.262,11.726,3.049a7.933,7.933,0,0,1,2.249,1.642A10.954,10.954,0,0,0,224.4,440.931Z" transform="translate(-213.29 -362.874)"/>
      <path id="Path_443" data-name="Path 443" d="M323.924,332.308a15.865,15.865,0,0,0-2.538-3.408,14.488,14.488,0,0,1,.89,1.38,7.939,7.939,0,0,1,1.152,4.9c-.379,2.566-2.607,4.553-5.056,5.415s-5.518.048-7.346,2.069-3.118,4.311-5.229,6.146a27.861,27.861,0,0,1-15.52,6.746c-1.945.179-4.09.228-5.518,1.552a6.735,6.735,0,0,0-1.738,4.339c-.5,4.332.11,8.967-1.856,12.865-2.925,5.794-10.188,7.636-15.286,11.664a6.959,6.959,0,0,0-2.311,2.759,7.982,7.982,0,0,0,.034,4.566c.98,4.58,2.332,9.174,2.069,13.858s-2.552,9.6-6.863,11.43a15.22,15.22,0,0,1-6.96.8c-4.29-.29-8.788-1.38-11.837-4.394l-.041-.048a16.55,16.55,0,0,0,1.724,2.069c3.042,3.035,7.539,4.1,11.837,4.394a15.1,15.1,0,0,0,6.953-.8c4.318-1.828,6.608-6.753,6.863-11.43s-1.1-9.278-2.069-13.858a8.1,8.1,0,0,1-.034-4.566A6.967,6.967,0,0,1,267.562,388c5.091-4.021,12.354-5.863,15.279-11.664,1.966-3.9,1.38-8.526,1.856-12.865a6.763,6.763,0,0,1,1.745-4.339c1.435-1.324,3.58-1.38,5.518-1.552a27.874,27.874,0,0,0,15.527-6.746c2.111-1.835,3.38-4.139,5.222-6.146s4.877-1.193,7.353-2.069,4.677-2.849,5.056-5.415a7.96,7.96,0,0,0-1.193-4.9Z" transform="translate(-221.566 -328.9)"/>
    </g>
    <ellipse id="Ellipse_5" data-name="Ellipse 5" cx="51.458" cy="7.898" rx="51.458" ry="7.898" transform="translate(644.228 526.705)" fill="#6c63ff" opacity="0.1"/>
    <ellipse id="Ellipse_6" data-name="Ellipse 6" cx="28.557" cy="4.38" rx="28.557" ry="4.38" transform="translate(45.05 561.222)" fill="#6c63ff" opacity="0.1"/>
    <path id="Path_444" data-name="Path 444" d="M145.783,594.9s4.918,6.436-2.269,16.148-13.106,17.935-10.733,23.977c0,0,10.857-18.045,19.687-18.293S155.53,605.75,145.783,594.9Z" transform="translate(-81.329 -209.954)" fill="#6c63ff"/>
    <path id="Path_445" data-name="Path 445" d="M145.9,594.9a7.927,7.927,0,0,1,1.007,2.014c8.615,10.126,13.209,19.576,4.925,19.818-7.719.221-16.976,14.017-19.2,17.5.076.269.166.538.262.793,0,0,10.857-18.045,19.687-18.293S155.651,605.75,145.9,594.9Z" transform="translate(-81.451 -209.954)" opacity="0.1"/>
    <path id="Path_446" data-name="Path 446" d="M164.621,606.137c0,2.263-.255,4.1-.566,4.1s-.566-1.835-.566-4.1.317-1.2.628-1.2S164.621,603.868,164.621,606.137Z" transform="translate(-91.021 -212.989)" fill="#ffd037"/>
    <path id="Path_447" data-name="Path 447" d="M167.935,610.012c-1.987,1.083-3.718,1.738-3.87,1.462s1.338-1.38,3.332-2.463,1.2-.29,1.38,0S169.928,608.929,167.935,610.012Z" transform="translate(-91.196 -214.16)" fill="#ffd037"/>
    <path id="Path_448" data-name="Path 448" d="M109.211,594.9s-4.918,6.436,2.269,16.148,13.106,17.935,10.726,23.977c0,0-10.85-18.045-19.687-18.293S99.492,605.75,109.211,594.9Z" transform="translate(-70.756 -209.954)" fill="#6c63ff"/>
    <path id="Path_449" data-name="Path 449" d="M109.211,594.9a7.926,7.926,0,0,0-1.007,2.014c-8.615,10.126-13.209,19.576-4.925,19.818,7.719.221,16.976,14.017,19.19,17.5a6.284,6.284,0,0,1-.262.793s-10.85-18.045-19.687-18.293S99.492,605.75,109.211,594.9Z" transform="translate(-70.756 -209.954)" opacity="0.1"/>
    <path id="Path_450" data-name="Path 450" d="M100.92,606.137c0,2.263.255,4.1.566,4.1s.566-1.835.566-4.1-.317-1.2-.628-1.2S100.92,603.868,100.92,606.137Z" transform="translate(-71.611 -212.989)" fill="#ffd037"/>
    <path id="Path_451" data-name="Path 451" d="M95.814,610.012c1.987,1.083,3.718,1.738,3.87,1.462s-1.338-1.38-3.332-2.463-1.2-.29-1.38,0S93.821,608.929,95.814,610.012Z" transform="translate(-69.643 -214.16)" fill="#ffd037"/>
    <ellipse id="Ellipse_7" data-name="Ellipse 7" cx="51.458" cy="7.898" rx="51.458" ry="7.898" transform="translate(0 458.512)" fill="#6c63ff" opacity="0.1"/>
    <path id="Path_452" data-name="Path 452" d="M147.594,639.151l-.248,2.007L147,644l-.145,1.18-.345,2.842-.145,1.186-.345,2.835-3.939,32.289c-.352,2.883-5.063,5.125-10.74,5.125H110.876c-5.684,0-10.347-2.242-10.733-5.125L96.2,652.05l-.345-2.835-.145-1.186-.352-2.842-.138-1.18-.345-2.842-.248-2.007c-.2-1.628,2.345-3.007,5.567-3.007h41.843C145.235,636.143,147.794,637.523,147.594,639.151Z" transform="translate(-69.655 -222.75)" fill="#65617d"/>
    <path id="Path_453" data-name="Path 453" d="M89.039,606.57l-.345,2.835H36.9l-.345-2.835Z" transform="translate(-11.341 -188.162)" fill="#9d9cb5"/>
    <path id="Path_454" data-name="Path 454" d="M88.77,612.4l-.345,2.842h-50.8L37.27,612.4Z" transform="translate(-11.562 -189.971)" fill="#9d9cb5"/>
    <path id="Path_455" data-name="Path 455" d="M88.493,618.23l-.345,2.842H38.325l-.345-2.842Z" transform="translate(-11.782 -191.779)" fill="#9d9cb5"/>
  </g>
</svg>
