<svg xmlns="http://www.w3.org/2000/svg" width="91.956" height="97.258" viewBox="0 0 91.956 97.258">
  <g id="laundry" transform="translate(-163 -815.799)">
    <g id="Group_75" data-name="Group 75" transform="translate(4 -34)">
      <path id="Path_458" data-name="Path 458" d="M148.124,9.334V87.924a9.333,9.333,0,0,1-9.332,9.335H75.4a9.334,9.334,0,0,1-9.334-9.335V9.334A9.336,9.336,0,0,1,75.4,0h63.39a9.334,9.334,0,0,1,9.333,9.334Z" transform="translate(102.832 849.799)" fill="#ccc8cc"/>
      <g id="Group_74" data-name="Group 74" transform="translate(168.899 849.799)">
        <path id="Path_459" data-name="Path 459" d="M80.639,97.257H75.4a9.335,9.335,0,0,1-9.334-9.334V9.334A9.335,9.335,0,0,1,75.4,0h5.238A9.335,9.335,0,0,0,71.3,9.334V87.923A9.335,9.335,0,0,0,80.639,97.257Z" transform="translate(-66.067 0)" fill="#dfeaef"/>
        <path id="Path_460" data-name="Path 460" d="M66.067,110.848h82.057v2.935H66.067Z" transform="translate(-66.067 -89.792)" fill="#dfeaef"/>
        <ellipse id="Ellipse_115" data-name="Ellipse 115" cx="29.233" cy="29.233" rx="29.233" ry="29.233" transform="translate(11.796 29.018)" fill="#dfeaef"/>
      </g>
      <path id="Path_461" data-name="Path 461" d="M221.123,225.289a18.638,18.638,0,0,0-37.181,1.887c3.755,10.124,18.625,15.02,18.625,15.02s18.618-16.287,18.556-16.907Z" transform="translate(7.348 680.873)" fill="#4073c8"/>
      <path id="Path_462" data-name="Path 462" d="M221.615,298.433a18.639,18.639,0,0,1-37.182,1.887q.471.04,1,.04c5.847,0,5.847-3.856,11.694-3.856s5.845,3.856,11.692,3.856,5.847-3.856,11.694-3.856c.355,0,.69.013,1,.04C221.582,297.166,221.615,297.8,221.615,298.433Z" transform="translate(6.95 609.617)" fill="#61a2f9"/>
      <path id="Path_463" data-name="Path 463" d="M47.927,318.637H18.434l-4.477-45.344H52.4Z" transform="translate(145.043 628.419)" fill="#6c63ff"/>
      <path id="Path_464" data-name="Path 464" d="M26.893,318.637H18.435l-4.478-45.344H24.984Z" transform="translate(145.043 628.419)" fill="#65617d"/>
      <ellipse id="Ellipse_116" data-name="Ellipse 116" cx="5.513" cy="5.513" rx="5.513" ry="5.513" transform="translate(232.621 855.94)" fill="#dfeaef"/>
      <ellipse id="Ellipse_117" data-name="Ellipse 117" cx="5.513" cy="5.513" rx="5.513" ry="5.513" transform="translate(216.981 856.144)" fill="#dfeaef"/>
      <path id="Path_465" data-name="Path 465" d="M31.111,273.293l-8.975,13.078-8.179-13.078Z" transform="translate(145.043 628.419)" fill="#caa4bc"/>
    </g>
  </g>
</svg>
