<svg xmlns="http://www.w3.org/2000/svg" width="267.25" height="77.282" viewBox="0 0 267.25 77.282">
  <g id="footer_taskoo_icon" data-name="footer taskoo icon" transform="translate(-82.72 -206.289)">
    <path id="Path_1" data-name="Path 1" d="M88.669,230.3h1.405v-8.376q0-3.371.164-5.285a8.311,8.311,0,0,1,.913-3.3,6.04,6.04,0,0,1,2.155-2.323,5.723,5.723,0,0,1,3.139-.894,6.434,6.434,0,0,1,6.066,5.234,32.076,32.076,0,0,1,.352,5.44v9.5h4.684a5.675,5.675,0,0,1,4.146,1.4,4.837,4.837,0,0,1,1.429,3.6,4.105,4.105,0,0,1-2.038,3.933,12.272,12.272,0,0,1-5.833,1.124h-2.389V266a45.246,45.246,0,0,0,.211,5.03,5.354,5.354,0,0,0,1.124,2.861,3.659,3.659,0,0,0,2.975,1.1,14.739,14.739,0,0,0,3.045-.433,14.541,14.541,0,0,1,3-.435A3.714,3.714,0,0,1,116,275.474a4.763,4.763,0,0,1,1.241,3.345,5.6,5.6,0,0,1-3.373,5.159q-3.373,1.787-9.7,1.788-6,0-9.088-2.2a10.182,10.182,0,0,1-4.052-6.078,44.779,44.779,0,0,1-.96-10.368V240.359H88.388a5.761,5.761,0,0,1-4.216-1.43A4.871,4.871,0,0,1,82.72,235.3a4.681,4.681,0,0,1,1.522-3.6A6.306,6.306,0,0,1,88.669,230.3Z" transform="translate(0 -2.194)" fill="#4c45b2"/>
    <path id="Path_2" data-name="Path 2" d="M194.031,295.422a39.556,39.556,0,0,1-8.971,5.41,25.076,25.076,0,0,1-9.72,1.8,18.424,18.424,0,0,1-8.643-1.944,14.223,14.223,0,0,1-5.739-5.271,13.668,13.668,0,0,1-2.014-7.214,12.917,12.917,0,0,1,3.326-8.948,16.63,16.63,0,0,1,9.135-4.965q1.217-.282,6.043-1.265t8.268-1.8q3.443-.819,7.472-1.99-.235-5.059-2.038-7.424t-7.472-2.366q-4.873,0-7.332,1.358a11.914,11.914,0,0,0-4.216,4.076q-1.757,2.717-2.483,3.584t-3.115.866a5.446,5.446,0,0,1-3.724-1.383,4.5,4.5,0,0,1-1.569-3.536,10.819,10.819,0,0,1,2.389-6.558,17.1,17.1,0,0,1,7.448-5.247,33.57,33.57,0,0,1,12.6-2.061q8.432,0,13.257,1.992a12.323,12.323,0,0,1,6.816,6.3q1.99,4.311,1.991,11.43,0,4.5-.024,7.636t-.07,6.98a25.707,25.707,0,0,0,1.194,7.518,23.732,23.732,0,0,1,1.195,5.036,4.712,4.712,0,0,1-1.85,3.583,6.2,6.2,0,0,1-4.193,1.617,5.655,5.655,0,0,1-3.888-1.85A27.452,27.452,0,0,1,194.031,295.422Zm-.843-18.5a64.325,64.325,0,0,1-8.174,2.178q-5.364,1.149-7.425,1.687a10.1,10.1,0,0,0-3.935,2.109,5.4,5.4,0,0,0-1.874,4.38,6.482,6.482,0,0,0,2.2,4.941,8.138,8.138,0,0,0,5.762,2.038,14.987,14.987,0,0,0,7-1.664,11.09,11.09,0,0,0,4.708-4.285q1.733-2.9,1.733-9.557Z" transform="translate(-42.627 -19.066)" fill="#4c45b2"/>
    <path id="Path_3" data-name="Path 3" d="M313.323,286.038a14.834,14.834,0,0,1-10.189,14.78,34.133,34.133,0,0,1-12.25,1.944,29.877,29.877,0,0,1-11.8-2.108,17.2,17.2,0,0,1-7.261-5.269,10.621,10.621,0,0,1-2.343-6.348,4.917,4.917,0,0,1,1.5-3.607,5.142,5.142,0,0,1,3.794-1.5,4.429,4.429,0,0,1,3.092.984,10.8,10.8,0,0,1,2.061,2.764,14.014,14.014,0,0,0,4.708,5.106,14.2,14.2,0,0,0,7.472,1.687,10.8,10.8,0,0,0,6.3-1.709q2.459-1.711,2.459-3.912a5.324,5.324,0,0,0-2.553-4.919,31.6,31.6,0,0,0-8.409-2.952,69.624,69.624,0,0,1-10.751-3.443,17.693,17.693,0,0,1-6.629-4.754,10.9,10.9,0,0,1-2.483-7.261,12.8,12.8,0,0,1,2.3-7.261A15.756,15.756,0,0,1,279.1,252.8a25.951,25.951,0,0,1,10.8-2.037,35.509,35.509,0,0,1,8.924,1.031,22.286,22.286,0,0,1,6.605,2.764,13.655,13.655,0,0,1,4.029,3.841,7.519,7.519,0,0,1,1.382,4.123,4.761,4.761,0,0,1-1.475,3.607,5.844,5.844,0,0,1-4.193,1.405,5.139,5.139,0,0,1-3.35-1.124,22.065,22.065,0,0,1-3.162-3.373,11.582,11.582,0,0,0-3.419-3,10.774,10.774,0,0,0-5.34-1.124,10.469,10.469,0,0,0-5.762,1.475,4.306,4.306,0,0,0-2.3,3.678,3.982,3.982,0,0,0,1.686,3.3,14.01,14.01,0,0,0,4.544,2.131q2.857.843,7.87,2.061a42.1,42.1,0,0,1,9.72,3.467,16.179,16.179,0,0,1,5.715,4.754A10.547,10.547,0,0,1,313.323,286.038Z" transform="translate(-105.436 -19.191)" fill="#4c45b2"/>
    <path id="Path_4" data-name="Path 4" d="M402.358,277.2l-11.29-20.187-6.933,7.137V275.21a8.967,8.967,0,0,1-1.944,6.193,5.869,5.869,0,0,1-4.474,2.167,5.58,5.58,0,0,1-4.638-2.141q-1.686-2.141-1.686-6.321V215.77q0-4.637,1.64-7.061a5.321,5.321,0,0,1,4.685-2.42,5.661,5.661,0,0,1,4.684,2.192q1.733,2.193,1.733,6.474V248.7l14.382-16.415a36.736,36.736,0,0,1,4.075-4.18,5.684,5.684,0,0,1,7.4.536,5.755,5.755,0,0,1,1.593,4.154q0,3.058-5.2,8.156l-6.793,6.78,13.117,22.43q1.452,2.5,2.084,3.8a5.67,5.67,0,0,1,.633,2.473,7.7,7.7,0,0,1-1.663,5.226,5.527,5.527,0,0,1-4.38,1.911,4.651,4.651,0,0,1-3.607-1.376A33.118,33.118,0,0,1,402.358,277.2Z" transform="translate(-163.145)" fill="#4c45b2"/>
    <path id="Path_5" data-name="Path 5" d="M511.17,276.762a30.236,30.236,0,0,1-1.78,10.54,23.272,23.272,0,0,1-5.153,8.292,22.753,22.753,0,0,1-8.057,5.317,28.5,28.5,0,0,1-10.54,1.85,27.691,27.691,0,0,1-10.447-1.874,23.058,23.058,0,0,1-13.187-13.609,30.142,30.142,0,0,1-1.757-10.516,30.506,30.506,0,0,1,1.78-10.634,23.139,23.139,0,0,1,5.106-8.245,22.532,22.532,0,0,1,8.057-5.271,30.507,30.507,0,0,1,20.987.024,22.669,22.669,0,0,1,13.234,13.586A30.344,30.344,0,0,1,511.17,276.762Z" transform="translate(-212.421 -19.191)" fill="#4c45b2"/>
    <path id="Path_6" data-name="Path 6" d="M629.674,259.693a35.8,35.8,0,0,1-1.78,11.516,25.893,25.893,0,0,1-5.153,9.06,22.705,22.705,0,0,1-8.057,5.81,26.356,26.356,0,0,1-10.54,2.021,25.621,25.621,0,0,1-10.447-2.048,23.166,23.166,0,0,1-8.034-5.861,25.766,25.766,0,0,1-5.153-9.009,35.683,35.683,0,0,1-1.757-11.49,36.127,36.127,0,0,1,1.78-11.619,25.745,25.745,0,0,1,5.106-9.009,22.464,22.464,0,0,1,8.057-5.759,28.085,28.085,0,0,1,20.987.026,22.892,22.892,0,0,1,8.1,5.835,25.686,25.686,0,0,1,5.13,9.009A35.942,35.942,0,0,1,629.674,259.693Zm-11.766-12.765a8.19,8.19,0,0,0-1.26-4.87,4.157,4.157,0,0,0-5.8-.965,4.894,4.894,0,0,0-1.611,2.295,11.323,11.323,0,0,0-.009,7.042,4.993,4.993,0,0,0,1.594,2.294,3.894,3.894,0,0,0,2.443.8,3.963,3.963,0,0,0,3.385-1.751A8.159,8.159,0,0,0,617.908,246.927Zm-.1-26.114a8.188,8.188,0,0,0-1.26-4.869,4.155,4.155,0,0,0-5.8-.965,4.889,4.889,0,0,0-1.611,2.295,11.319,11.319,0,0,0-.008,7.042,5,5,0,0,0,1.594,2.295,3.9,3.9,0,0,0,2.443.8,3.962,3.962,0,0,0,3.386-1.752A8.158,8.158,0,0,0,617.807,220.813Z" transform="translate(-279.704 -4.529)" fill="#4c45b2"/>
  </g>
</svg>
